{"glyphs":{"0":{"ha":914,"x_min":50,"x_max":864,"o":"m 457 -14 q 150 103 250 -14 q 50 458 50 221 q 150 813 50 696 q 457 931 250 931 q 764 813 664 931 q 864 458 864 696 q 764 103 864 221 q 457 -14 664 -14 m 457 229 q 513 249 493 229 q 540 317 532 269 q 547 458 547 365 q 540 599 547 551 q 513 667 532 647 q 457 688 493 688 q 401 667 421 688 q 374 599 382 647 q 367 458 367 551 q 374 317 367 365 q 401 249 382 269 q 457 229 421 229 z "},"1":{"ha":638,"x_min":28,"x_max":560,"o":"m 560 917 l 560 0 l 250 0 l 250 614 q 46 510 150 525 l 28 769 q 194 823 111 779 q 308 917 276 867 l 560 917 z "},"2":{"ha":840,"x_min":38,"x_max":804,"o":"m 71 194 q 376 410 271 300 q 481 604 481 519 q 463 664 481 640 q 406 688 444 688 q 336 648 358 688 q 317 525 314 608 l 40 592 q 88 780 38 704 q 226 893 138 856 q 428 931 315 931 q 642 885 558 931 q 762 770 725 839 q 799 632 799 701 q 703 406 799 504 q 443 229 607 307 l 443 226 q 661 235 529 235 l 804 235 l 804 0 l 71 0 l 71 194 z "},"3":{"ha":833,"x_min":24,"x_max":793,"o":"m 422 931 q 684 861 592 931 q 776 661 776 792 q 742 540 776 585 q 667 478 708 496 q 604 461 626 461 l 604 456 q 676 442 633 456 q 756 384 718 429 q 793 253 793 339 q 744 112 793 172 q 608 19 694 51 q 415 -14 522 -14 q 153 40 247 -14 q 24 219 58 93 l 315 338 q 338 248 313 272 q 404 224 363 224 q 485 293 485 224 q 465 344 485 328 q 399 361 444 361 l 336 361 l 336 544 l 381 544 q 447 563 426 544 q 467 619 467 581 q 449 674 467 654 q 399 693 431 693 q 315 579 314 693 l 36 665 q 153 870 51 810 q 422 931 256 931 z "},"4":{"ha":931,"x_min":36,"x_max":908,"o":"m 908 175 l 785 175 l 785 0 l 507 0 l 507 175 l 36 175 l 36 308 l 411 917 l 785 917 l 785 385 l 908 385 l 908 175 m 328 385 l 507 385 l 507 563 l 511 715 l 508 715 q 436 567 483 644 l 328 385 z "},"5":{"ha":810,"x_min":11,"x_max":781,"o":"m 494 594 q 649 560 585 594 q 747 465 714 525 q 781 328 781 404 q 727 133 781 210 q 586 22 674 57 q 396 -14 499 -14 q 173 22 265 -14 q 11 151 81 57 l 289 313 q 319 240 296 263 q 400 217 343 217 q 472 239 446 217 q 499 306 499 261 q 474 367 499 344 q 396 389 449 389 q 289 357 325 389 l 53 401 l 114 917 l 724 917 l 724 679 l 340 679 l 328 585 q 318 536 325 563 l 319 536 q 390 580 343 565 q 494 594 438 594 z "},"6":{"ha":854,"x_min":50,"x_max":828,"o":"m 482 931 q 697 881 606 931 q 819 721 788 831 l 563 600 q 463 685 543 685 q 370 638 406 685 q 335 496 335 592 l 335 475 l 336 475 q 410 541 361 518 q 539 564 458 564 q 685 530 619 564 q 790 433 751 496 q 828 288 828 369 q 729 67 828 147 q 450 -14 631 -14 q 152 101 254 -14 q 50 458 50 215 q 167 815 50 700 q 482 931 285 931 m 458 368 q 396 348 418 368 q 374 290 374 328 q 396 233 374 253 q 458 213 418 213 q 521 233 499 213 q 543 290 543 253 q 521 348 543 328 q 458 368 499 368 z "},"7":{"ha":903,"x_min":60,"x_max":868,"o":"m 868 917 l 868 703 q 647 387 708 557 q 585 0 585 217 l 268 0 q 335 363 268 201 q 556 674 403 524 l 60 674 l 60 917 l 868 917 z "},"8":{"ha":881,"x_min":42,"x_max":839,"o":"m 440 926 q 717 855 617 926 q 818 658 818 783 q 778 537 818 588 q 663 460 738 486 l 663 458 q 839 240 839 404 q 734 54 839 122 q 440 -14 629 -14 q 147 54 251 -14 q 42 240 42 122 q 218 458 42 404 l 218 460 q 103 537 143 486 q 63 658 63 588 q 163 855 63 783 q 440 926 264 926 m 440 707 q 378 686 400 707 q 356 629 356 665 q 378 572 356 593 q 440 551 400 551 q 503 572 481 551 q 525 629 525 593 q 503 686 525 665 q 440 707 481 707 m 440 206 q 507 226 483 206 q 531 283 531 247 q 507 341 531 321 q 440 361 483 361 q 374 341 397 361 q 350 283 350 321 q 374 226 350 247 q 440 206 397 206 z "},"9":{"ha":847,"x_min":29,"x_max":811,"o":"m 414 931 q 811 450 811 931 q 703 96 811 206 q 399 -14 596 -14 q 181 33 269 -14 q 49 182 93 79 l 332 283 q 406 218 343 218 q 489 258 458 218 q 519 381 519 299 l 519 410 l 515 410 q 445 348 499 374 q 321 322 392 322 q 178 358 244 322 q 70 460 111 394 q 29 611 29 526 q 129 847 29 763 q 414 931 229 931 m 403 690 q 340 670 361 690 q 318 613 318 650 q 340 555 318 575 q 403 535 361 535 q 466 555 444 535 q 488 613 488 575 q 466 670 488 650 q 403 690 444 690 z "}," ":{"ha":347,"x_min":0,"x_max":0,"o":""},"A":{"ha":957,"x_min":-14,"x_max":971,"o":"m 599 175 l 351 175 l 308 0 l -14 0 l 283 917 l 672 917 l 971 0 l 640 0 l 599 175 m 551 376 l 478 682 l 474 682 l 438 526 l 400 376 l 551 376 z "},"Á":{"ha":957,"x_min":-14,"x_max":971,"o":"m 578 985 l 351 985 l 425 1217 l 711 1217 l 578 985 m 599 175 l 351 175 l 308 0 l -14 0 l 283 917 l 672 917 l 971 0 l 640 0 l 599 175 m 551 376 l 478 682 l 474 682 l 438 526 l 400 376 l 551 376 z "},"Ă":{"ha":957,"x_min":-14,"x_max":971,"o":"m 599 175 l 351 175 l 308 0 l -14 0 l 283 917 l 672 917 l 971 0 l 640 0 l 599 175 m 551 376 l 478 682 l 474 682 l 438 526 l 400 376 l 551 376 m 732 1213 q 665 1035 732 1099 q 478 972 599 972 q 290 1035 357 972 q 224 1213 224 1099 l 417 1213 q 478 1136 417 1136 q 539 1213 539 1136 l 732 1213 z "},"Â":{"ha":957,"x_min":-14,"x_max":971,"o":"m 403 985 l 179 985 l 329 1217 l 626 1217 l 776 985 l 553 985 l 478 1081 l 403 985 m 599 175 l 351 175 l 308 0 l -14 0 l 283 917 l 672 917 l 971 0 l 640 0 l 599 175 m 551 376 l 478 682 l 474 682 l 438 526 l 400 376 l 551 376 z "},"Ä":{"ha":957,"x_min":-14,"x_max":971,"o":"m 599 175 l 351 175 l 308 0 l -14 0 l 283 917 l 672 917 l 971 0 l 640 0 l 599 175 m 551 376 l 478 682 l 474 682 l 438 526 l 400 376 l 551 376 m 311 1222 q 419 1190 381 1222 q 457 1096 457 1157 q 419 1002 457 1035 q 311 969 381 969 q 206 1003 243 969 q 169 1096 169 1036 q 206 1189 169 1156 q 311 1222 243 1222 m 640 1222 q 748 1190 710 1222 q 786 1096 786 1157 q 748 1002 786 1035 q 640 969 710 969 q 535 1003 572 969 q 499 1096 499 1036 q 535 1189 499 1156 q 640 1222 572 1222 z "},"À":{"ha":957,"x_min":-14,"x_max":971,"o":"m 350 985 l 217 1217 l 503 1217 l 576 985 l 350 985 m 599 175 l 351 175 l 308 0 l -14 0 l 283 917 l 672 917 l 971 0 l 640 0 l 599 175 m 551 376 l 478 682 l 474 682 l 438 526 l 400 376 l 551 376 z "},"Ā":{"ha":957,"x_min":-14,"x_max":971,"o":"m 599 175 l 351 175 l 308 0 l -14 0 l 283 917 l 672 917 l 971 0 l 640 0 l 599 175 m 551 376 l 478 682 l 474 682 l 438 526 l 400 376 l 551 376 m 747 988 l 208 988 l 208 1168 l 747 1168 l 747 988 z "},"Ą":{"ha":957,"x_min":-14,"x_max":975,"o":"m 975 -262 q 904 -290 943 -282 q 811 -299 865 -299 q 659 -258 718 -299 q 600 -133 600 -217 q 678 0 600 -49 l 640 0 l 599 175 l 351 175 l 308 0 l -14 0 l 283 917 l 672 917 l 971 0 q 850 -25 886 -6 q 814 -78 814 -44 q 832 -117 814 -103 q 882 -131 850 -131 q 938 -119 919 -131 l 975 -262 m 551 376 l 478 682 l 474 682 l 438 526 l 400 376 l 551 376 z "},"Å":{"ha":957,"x_min":-14,"x_max":971,"o":"m 599 175 l 351 175 l 308 0 l -14 0 l 292 900 q 249 1014 249 943 q 310 1153 249 1101 q 479 1204 371 1204 q 649 1153 588 1204 q 710 1014 710 1101 q 664 900 710 943 l 971 0 l 640 0 l 599 175 m 479 1067 q 428 1050 446 1067 q 410 1001 410 1033 q 428 953 410 969 q 479 936 446 936 q 531 953 513 936 q 549 1001 549 969 q 531 1050 549 1033 q 479 1067 513 1067 m 551 376 l 515 526 l 479 682 l 472 682 l 438 526 l 400 376 l 551 376 z "},"Ã":{"ha":957,"x_min":-14,"x_max":971,"o":"m 599 175 l 351 175 l 308 0 l -14 0 l 283 917 l 672 917 l 971 0 l 640 0 l 599 175 m 551 376 l 478 682 l 474 682 l 438 526 l 400 376 l 551 376 m 769 1221 q 567 976 764 976 q 499 988 524 976 q 444 1021 474 999 q 417 1040 429 1033 q 392 1046 406 1046 q 350 979 356 1046 l 186 979 q 389 1224 192 1224 q 457 1213 432 1224 q 511 1179 482 1201 q 538 1160 526 1167 q 564 1154 550 1154 q 593 1170 583 1154 q 606 1221 603 1186 l 769 1221 z "},"Æ":{"ha":1256,"x_min":-14,"x_max":1233,"o":"m 1233 224 l 1233 0 l 557 0 l 557 257 l 369 257 l 306 0 l -14 0 l 283 917 l 1217 917 l 1217 693 l 854 693 l 854 560 l 1132 560 l 1132 353 l 854 353 l 854 224 l 1233 224 m 557 446 l 557 704 l 479 704 l 415 446 l 557 446 z "},"B":{"ha":978,"x_min":69,"x_max":961,"o":"m 69 917 l 594 917 q 853 855 768 915 q 938 672 938 794 q 885 531 938 588 q 731 461 833 475 l 731 460 q 904 390 847 447 q 961 242 961 333 q 879 60 961 121 q 631 0 797 0 l 69 0 l 69 917 m 521 561 q 607 628 607 561 q 521 694 607 694 l 379 694 l 379 561 l 521 561 m 544 211 q 631 279 631 211 q 544 344 631 344 l 379 344 l 379 211 l 544 211 z "},"C":{"ha":940,"x_min":40,"x_max":931,"o":"m 931 281 q 507 -14 860 -14 q 258 42 363 -14 q 97 203 153 97 q 40 458 40 310 q 97 713 40 607 q 258 875 153 819 q 507 931 363 931 q 782 862 668 931 q 924 653 896 793 l 646 544 q 606 658 635 629 q 515 688 576 688 q 407 632 443 688 q 371 458 371 576 q 406 285 371 340 q 513 229 440 229 q 607 258 578 229 q 644 354 636 288 l 931 281 z "},"Ć":{"ha":940,"x_min":40,"x_max":931,"o":"m 728 1217 l 594 985 l 368 985 l 442 1217 l 728 1217 m 931 281 q 507 -14 860 -14 q 258 42 363 -14 q 97 203 153 97 q 40 458 40 310 q 97 713 40 607 q 258 875 153 819 q 507 931 363 931 q 782 862 668 931 q 924 653 896 793 l 646 544 q 606 658 635 629 q 515 688 576 688 q 407 632 443 688 q 371 458 371 576 q 406 285 371 340 q 513 229 440 229 q 607 258 578 229 q 644 354 636 288 l 931 281 z "},"Č":{"ha":940,"x_min":40,"x_max":931,"o":"m 635 985 l 338 985 l 188 1217 l 411 1217 l 486 1121 l 561 1217 l 785 1217 l 635 985 m 931 281 q 507 -14 860 -14 q 258 42 363 -14 q 97 203 153 97 q 40 458 40 310 q 97 713 40 607 q 258 875 153 819 q 507 931 363 931 q 782 862 668 931 q 924 653 896 793 l 646 544 q 606 658 635 629 q 515 688 576 688 q 407 632 443 688 q 371 458 371 576 q 406 285 371 340 q 513 229 440 229 q 607 258 578 229 q 644 354 636 288 l 931 281 z "},"Ç":{"ha":940,"x_min":40,"x_max":931,"o":"m 931 281 q 639 -1 875 46 q 706 -125 706 -50 q 644 -258 706 -217 q 482 -299 583 -299 q 369 -282 413 -299 q 296 -237 325 -265 l 358 -106 q 461 -144 397 -144 q 516 -128 496 -144 q 536 -83 536 -112 q 458 -12 536 -35 q 151 126 261 3 q 40 458 40 249 q 97 713 40 607 q 258 875 153 819 q 507 931 363 931 q 782 862 668 931 q 924 653 896 793 l 646 544 q 606 658 635 629 q 515 688 576 688 q 407 632 443 688 q 371 458 371 576 q 406 285 371 340 q 513 229 440 229 q 607 258 578 229 q 644 354 636 288 l 931 281 z "},"D":{"ha":994,"x_min":69,"x_max":954,"o":"m 519 917 q 844 798 733 917 q 954 458 954 679 q 844 119 954 238 q 519 0 733 0 l 69 0 l 69 917 l 519 917 m 474 231 q 592 283 560 231 q 624 458 624 336 q 592 633 624 581 q 474 686 560 686 l 393 686 l 393 231 l 474 231 z "},"Ð":{"ha":1036,"x_min":8,"x_max":996,"o":"m 561 917 q 885 798 775 917 q 996 458 996 679 q 885 119 996 238 q 561 0 775 0 l 111 0 l 111 388 l 8 388 l 8 521 l 111 521 l 111 917 l 561 917 m 515 231 q 633 283 601 231 q 665 458 665 336 q 633 633 665 581 q 515 686 601 686 l 435 686 l 435 521 l 554 521 l 554 388 l 435 388 l 435 231 l 515 231 z "},"Ď":{"ha":994,"x_min":69,"x_max":954,"o":"m 303 985 l 153 1217 l 376 1217 l 451 1121 l 526 1217 l 750 1217 l 600 985 l 303 985 m 519 917 q 844 798 733 917 q 954 458 954 679 q 844 119 954 238 q 519 0 733 0 l 69 0 l 69 917 l 519 917 m 474 231 q 592 283 560 231 q 624 458 624 336 q 592 633 624 581 q 474 686 560 686 l 393 686 l 393 231 l 474 231 z "},"Đ":{"ha":1036,"x_min":8,"x_max":996,"o":"m 561 917 q 885 798 775 917 q 996 458 996 679 q 885 119 996 238 q 561 0 775 0 l 111 0 l 111 388 l 8 388 l 8 521 l 111 521 l 111 917 l 561 917 m 515 231 q 633 283 601 231 q 665 458 665 336 q 633 633 665 581 q 515 686 601 686 l 435 686 l 435 521 l 554 521 l 554 388 l 435 388 l 435 231 l 515 231 z "},"E":{"ha":869,"x_min":69,"x_max":847,"o":"m 847 238 l 847 0 l 69 0 l 69 917 l 831 917 l 831 679 l 393 679 l 393 565 l 746 565 l 746 346 l 393 346 l 393 238 l 847 238 z "},"É":{"ha":869,"x_min":69,"x_max":847,"o":"m 543 985 l 317 985 l 390 1217 l 676 1217 l 543 985 m 847 238 l 847 0 l 69 0 l 69 917 l 831 917 l 831 679 l 393 679 l 393 565 l 746 565 l 746 346 l 393 346 l 393 238 l 847 238 z "},"Ě":{"ha":869,"x_min":69,"x_max":847,"o":"m 278 985 l 128 1217 l 351 1217 l 426 1121 l 501 1217 l 725 1217 l 575 985 l 278 985 m 847 238 l 847 0 l 69 0 l 69 917 l 831 917 l 831 679 l 393 679 l 393 565 l 746 565 l 746 346 l 393 346 l 393 238 l 847 238 z "},"Ê":{"ha":869,"x_min":69,"x_max":847,"o":"m 360 985 l 136 985 l 286 1217 l 583 1217 l 733 985 l 510 985 l 435 1081 l 360 985 m 847 238 l 847 0 l 69 0 l 69 917 l 831 917 l 831 679 l 393 679 l 393 565 l 746 565 l 746 346 l 393 346 l 393 238 l 847 238 z "},"Ë":{"ha":869,"x_min":69,"x_max":847,"o":"m 847 238 l 847 0 l 69 0 l 69 917 l 831 917 l 831 679 l 393 679 l 393 565 l 746 565 l 746 346 l 393 346 l 393 238 l 847 238 m 268 1222 q 376 1190 338 1222 q 414 1096 414 1157 q 376 1002 414 1035 q 268 969 338 969 q 163 1003 200 969 q 126 1096 126 1036 q 163 1189 126 1156 q 268 1222 200 1222 m 597 1222 q 705 1190 667 1222 q 743 1096 743 1157 q 705 1002 743 1035 q 597 969 667 969 q 492 1003 529 969 q 456 1096 456 1036 q 492 1189 456 1156 q 597 1222 529 1222 z "},"Ė":{"ha":869,"x_min":69,"x_max":847,"o":"m 847 238 l 847 0 l 69 0 l 69 917 l 831 917 l 831 679 l 393 679 l 393 565 l 746 565 l 746 346 l 393 346 l 393 238 l 847 238 m 435 1231 q 594 1100 594 1231 q 435 969 594 969 q 279 1100 279 969 q 435 1231 279 1231 z "},"È":{"ha":869,"x_min":69,"x_max":847,"o":"m 349 985 l 215 1217 l 501 1217 l 575 985 l 349 985 m 847 238 l 847 0 l 69 0 l 69 917 l 831 917 l 831 679 l 393 679 l 393 565 l 746 565 l 746 346 l 393 346 l 393 238 l 847 238 z "},"Ē":{"ha":869,"x_min":69,"x_max":847,"o":"m 847 238 l 847 0 l 69 0 l 69 917 l 831 917 l 831 679 l 393 679 l 393 565 l 746 565 l 746 346 l 393 346 l 393 238 l 847 238 m 704 988 l 165 988 l 165 1168 l 704 1168 l 704 988 z "},"Ę":{"ha":869,"x_min":69,"x_max":853,"o":"m 853 -262 q 782 -290 821 -282 q 689 -299 743 -299 q 537 -258 596 -299 q 478 -133 478 -217 q 574 0 478 -49 l 69 0 l 69 917 l 831 917 l 831 679 l 393 679 l 393 565 l 746 565 l 746 346 l 393 346 l 393 238 l 847 238 l 847 1 l 849 0 q 728 -25 764 -6 q 692 -78 692 -44 q 710 -117 692 -103 q 760 -131 728 -131 q 815 -119 797 -131 l 853 -262 z "},"F":{"ha":853,"x_min":69,"x_max":829,"o":"m 393 679 l 393 551 l 746 551 l 746 314 l 393 314 l 393 0 l 69 0 l 69 917 l 829 917 l 829 679 l 393 679 z "},"G":{"ha":1003,"x_min":40,"x_max":943,"o":"m 515 517 l 940 517 l 940 0 l 726 0 l 715 104 q 467 -14 644 -14 q 249 40 346 -14 q 97 199 153 93 q 40 456 40 304 q 166 806 40 681 q 515 931 292 931 q 787 872 686 931 q 943 679 888 814 l 642 571 q 526 688 624 688 q 408 633 446 688 q 371 458 371 578 q 411 276 371 331 q 538 221 451 221 q 634 245 599 221 q 669 317 669 269 l 669 318 l 515 318 l 515 517 z "},"Ğ":{"ha":1003,"x_min":40,"x_max":943,"o":"m 515 517 l 940 517 l 940 0 l 726 0 l 715 104 q 467 -14 644 -14 q 249 40 346 -14 q 97 199 153 93 q 40 456 40 304 q 166 806 40 681 q 515 931 292 931 q 787 872 686 931 q 943 679 888 814 l 642 571 q 526 688 624 688 q 408 633 446 688 q 371 458 371 578 q 411 276 371 331 q 538 221 451 221 q 634 245 599 221 q 669 317 669 269 l 669 318 l 515 318 l 515 517 m 760 1213 q 693 1035 760 1099 q 506 972 626 972 q 318 1035 385 972 q 251 1213 251 1099 l 444 1213 q 506 1136 444 1136 q 567 1213 567 1136 l 760 1213 z "},"H":{"ha":1038,"x_min":69,"x_max":968,"o":"m 968 917 l 968 0 l 644 0 l 644 342 l 393 342 l 393 0 l 69 0 l 69 917 l 393 917 l 393 579 l 644 579 l 644 917 l 968 917 z "},"I":{"ha":463,"x_min":69,"x_max":393,"o":"m 393 0 l 69 0 l 69 917 l 393 917 l 393 0 z "},"Ĳ":{"ha":1375,"x_min":69,"x_max":1326,"o":"m 393 0 l 69 0 l 69 917 l 393 917 l 393 0 m 1326 378 q 1213 88 1326 190 q 890 -14 1099 -14 q 592 72 690 -14 q 494 308 494 158 q 503 403 494 356 l 826 457 q 819 360 819 410 q 842 259 819 289 q 911 229 865 229 q 981 270 958 229 q 1003 401 1003 311 l 1003 917 l 1326 917 l 1326 378 z "},"Í":{"ha":463,"x_min":69,"x_max":464,"o":"m 464 1217 l 331 985 l 104 985 l 178 1217 l 464 1217 m 393 0 l 69 0 l 69 917 l 393 917 l 393 0 z "},"Î":{"ha":463,"x_min":-68,"x_max":529,"o":"m 306 985 l 231 1081 l 156 985 l -68 985 l 82 1217 l 379 1217 l 529 985 l 306 985 m 393 0 l 69 0 l 69 917 l 393 917 l 393 0 z "},"Ï":{"ha":463,"x_min":-64,"x_max":526,"o":"m 72 1222 q 176 1189 139 1222 q 214 1096 214 1156 q 176 1003 214 1036 q 72 969 139 969 q -28 1003 7 969 q -64 1096 -64 1036 q -28 1189 -64 1156 q 72 1222 7 1222 m 385 1222 q 489 1189 451 1222 q 526 1096 526 1156 q 489 1003 526 1036 q 385 969 451 969 q 284 1003 319 969 q 249 1096 249 1036 q 284 1189 249 1156 q 385 1222 319 1222 m 393 0 l 69 0 l 69 917 l 393 917 l 393 0 z "},"İ":{"ha":463,"x_min":69,"x_max":393,"o":"m 393 0 l 69 0 l 69 917 l 393 917 l 393 0 m 231 1231 q 390 1100 390 1231 q 231 969 390 969 q 75 1100 75 969 q 231 1231 75 1231 z "},"Ì":{"ha":463,"x_min":-31,"x_max":393,"o":"m 329 985 l 103 985 l -31 1217 l 256 1217 l 329 985 m 393 0 l 69 0 l 69 917 l 393 917 l 393 0 z "},"Ī":{"ha":463,"x_min":1,"x_max":458,"o":"m 458 988 l 1 988 l 1 1168 l 458 1168 l 458 988 m 393 0 l 69 0 l 69 917 l 393 917 l 393 0 z "},"Į":{"ha":463,"x_min":22,"x_max":397,"o":"m 397 -262 q 326 -290 365 -282 q 233 -299 288 -299 q 81 -258 140 -299 q 22 -133 22 -217 q 100 0 22 -49 l 69 0 l 69 917 l 393 917 l 393 0 q 272 -25 308 -6 q 236 -78 236 -44 q 254 -117 236 -103 q 304 -131 272 -131 q 360 -119 342 -131 l 397 -262 z "},"J":{"ha":913,"x_min":32,"x_max":864,"o":"m 864 378 q 750 88 864 190 q 428 -14 636 -14 q 130 72 228 -14 q 32 308 32 158 q 40 403 32 356 l 364 457 q 357 360 357 410 q 380 259 357 289 q 449 229 403 229 q 518 270 496 229 q 540 401 540 311 l 540 917 l 864 917 l 864 378 z "},"K":{"ha":996,"x_min":69,"x_max":1001,"o":"m 468 343 l 393 240 l 393 0 l 69 0 l 69 917 l 393 917 l 393 575 l 632 917 l 976 917 l 696 553 l 1001 0 l 639 0 l 468 343 z "},"L":{"ha":840,"x_min":69,"x_max":808,"o":"m 808 238 l 808 0 l 69 0 l 69 917 l 393 917 l 393 238 l 808 238 z "},"Ĺ":{"ha":840,"x_min":69,"x_max":808,"o":"m 331 985 l 104 985 l 178 1217 l 464 1217 l 331 985 m 808 238 l 808 0 l 69 0 l 69 917 l 393 917 l 393 238 l 808 238 z "},"Ľ":{"ha":840,"x_min":69,"x_max":814,"o":"m 713 603 l 503 603 l 539 974 l 814 974 l 713 603 m 393 238 l 808 238 l 808 0 l 69 0 l 69 917 l 393 917 l 393 238 z "},"Ŀ":{"ha":918,"x_min":69,"x_max":904,"o":"m 808 238 l 808 0 l 69 0 l 69 917 l 393 917 l 393 238 l 808 238 m 733 654 q 860 615 815 654 q 904 506 904 576 q 860 396 904 435 q 733 357 815 357 q 607 396 651 357 q 563 506 563 435 q 607 615 563 576 q 733 654 651 654 z "},"Ł":{"ha":910,"x_min":-19,"x_max":878,"o":"m 878 238 l 878 0 l 139 0 l 139 272 l -19 203 l -19 415 l 139 485 l 139 917 l 463 917 l 463 628 l 693 729 l 693 517 l 463 415 l 463 238 l 878 238 z "},"M":{"ha":1317,"x_min":69,"x_max":1247,"o":"m 1247 0 l 965 0 l 965 318 l 969 626 l 965 626 l 788 0 l 529 0 l 354 626 l 349 626 l 353 318 l 353 0 l 69 0 l 69 917 l 522 917 l 628 510 l 668 339 l 671 339 l 711 510 l 817 917 l 1247 917 l 1247 0 z "},"N":{"ha":1036,"x_min":69,"x_max":967,"o":"m 967 0 l 617 0 l 397 417 l 347 529 l 344 529 l 350 340 l 350 0 l 69 0 l 69 917 l 419 917 l 639 499 l 689 388 l 692 388 l 686 576 l 686 917 l 967 917 l 967 0 z "},"Ń":{"ha":1036,"x_min":69,"x_max":967,"o":"m 751 1217 l 618 985 l 392 985 l 465 1217 l 751 1217 m 967 0 l 617 0 l 397 417 l 347 529 l 344 529 l 350 340 l 350 0 l 69 0 l 69 917 l 419 917 l 639 499 l 689 388 l 692 388 l 686 576 l 686 917 l 967 917 l 967 0 z "},"Ň":{"ha":1036,"x_min":69,"x_max":967,"o":"m 658 985 l 361 985 l 211 1217 l 435 1217 l 510 1121 l 585 1217 l 808 1217 l 658 985 m 967 0 l 617 0 l 397 417 l 347 529 l 344 529 l 350 340 l 350 0 l 69 0 l 69 917 l 419 917 l 639 499 l 689 388 l 692 388 l 686 576 l 686 917 l 967 917 l 967 0 z "},"Ñ":{"ha":1036,"x_min":69,"x_max":967,"o":"m 967 0 l 617 0 l 397 417 l 347 529 l 344 529 l 350 340 l 350 0 l 69 0 l 69 917 l 419 917 l 639 499 l 689 388 l 692 388 l 686 576 l 686 917 l 967 917 l 967 0 m 810 1221 q 607 976 804 976 q 539 988 564 976 q 485 1021 514 999 q 458 1040 469 1033 q 432 1046 446 1046 q 390 979 396 1046 l 226 979 q 429 1224 232 1224 q 497 1213 472 1224 q 551 1179 522 1201 q 578 1160 567 1167 q 604 1154 590 1154 q 633 1170 624 1154 q 646 1221 643 1186 l 810 1221 z "},"O":{"ha":1013,"x_min":40,"x_max":972,"o":"m 507 931 q 849 806 726 931 q 972 458 972 682 q 849 110 972 235 q 507 -14 726 -14 q 258 42 363 -14 q 97 203 153 97 q 40 458 40 310 q 97 713 40 607 q 258 875 153 819 q 507 931 363 931 m 507 688 q 403 633 436 688 q 371 458 371 578 q 403 284 371 339 q 507 229 436 229 q 610 284 578 229 q 642 458 642 339 q 610 633 642 578 q 507 688 578 688 z "},"Ó":{"ha":1013,"x_min":40,"x_max":972,"o":"m 740 1217 l 607 985 l 381 985 l 454 1217 l 740 1217 m 507 931 q 849 806 726 931 q 972 458 972 682 q 849 110 972 235 q 507 -14 726 -14 q 258 42 363 -14 q 97 203 153 97 q 40 458 40 310 q 97 713 40 607 q 258 875 153 819 q 507 931 363 931 m 507 688 q 403 633 436 688 q 371 458 371 578 q 403 284 371 339 q 507 229 436 229 q 610 284 578 229 q 642 458 642 339 q 610 633 642 578 q 507 688 578 688 z "},"Ô":{"ha":1013,"x_min":40,"x_max":972,"o":"m 582 985 l 507 1081 l 432 985 l 208 985 l 358 1217 l 656 1217 l 806 985 l 582 985 m 507 931 q 849 806 726 931 q 972 458 972 682 q 849 110 972 235 q 507 -14 726 -14 q 258 42 363 -14 q 97 203 153 97 q 40 458 40 310 q 97 713 40 607 q 258 875 153 819 q 507 931 363 931 m 507 688 q 403 633 436 688 q 371 458 371 578 q 403 284 371 339 q 507 229 436 229 q 610 284 578 229 q 642 458 642 339 q 610 633 642 578 q 507 688 578 688 z "},"Ö":{"ha":1013,"x_min":40,"x_max":972,"o":"m 507 931 q 849 806 726 931 q 972 458 972 682 q 849 110 972 235 q 507 -14 726 -14 q 258 42 363 -14 q 97 203 153 97 q 40 458 40 310 q 97 713 40 607 q 258 875 153 819 q 507 931 363 931 m 507 688 q 403 633 436 688 q 371 458 371 578 q 403 284 371 339 q 507 229 436 229 q 610 284 578 229 q 642 458 642 339 q 610 633 642 578 q 507 688 578 688 m 340 1222 q 448 1190 410 1222 q 486 1096 486 1157 q 448 1002 486 1035 q 340 969 410 969 q 235 1003 272 969 q 199 1096 199 1036 q 235 1189 199 1156 q 340 1222 272 1222 m 669 1222 q 777 1190 739 1222 q 815 1096 815 1157 q 777 1002 815 1035 q 669 969 739 969 q 565 1003 601 969 q 528 1096 528 1036 q 565 1189 528 1156 q 669 1222 601 1222 z "},"Ò":{"ha":1013,"x_min":40,"x_max":972,"o":"m 606 985 l 379 985 l 246 1217 l 532 1217 l 606 985 m 507 931 q 849 806 726 931 q 972 458 972 682 q 849 110 972 235 q 507 -14 726 -14 q 258 42 363 -14 q 97 203 153 97 q 40 458 40 310 q 97 713 40 607 q 258 875 153 819 q 507 931 363 931 m 507 688 q 403 633 436 688 q 371 458 371 578 q 403 284 371 339 q 507 229 436 229 q 610 284 578 229 q 642 458 642 339 q 610 633 642 578 q 507 688 578 688 z "},"Ő":{"ha":1013,"x_min":40,"x_max":972,"o":"m 564 1217 l 431 985 l 204 985 l 278 1217 l 564 1217 m 918 1217 l 785 985 l 558 985 l 632 1217 l 918 1217 m 507 931 q 849 806 726 931 q 972 458 972 682 q 849 110 972 235 q 507 -14 726 -14 q 258 42 363 -14 q 97 203 153 97 q 40 458 40 310 q 97 713 40 607 q 258 875 153 819 q 507 931 363 931 m 507 688 q 403 633 436 688 q 371 458 371 578 q 403 284 371 339 q 507 229 436 229 q 610 284 578 229 q 642 458 642 339 q 610 633 642 578 q 507 688 578 688 z "},"Ō":{"ha":1013,"x_min":40,"x_max":972,"o":"m 507 931 q 849 806 726 931 q 972 458 972 682 q 849 110 972 235 q 507 -14 726 -14 q 258 42 363 -14 q 97 203 153 97 q 40 458 40 310 q 97 713 40 607 q 258 875 153 819 q 507 931 363 931 m 507 688 q 403 633 436 688 q 371 458 371 578 q 403 284 371 339 q 507 229 436 229 q 610 284 578 229 q 642 458 642 339 q 610 633 642 578 q 507 688 578 688 m 776 988 l 238 988 l 238 1168 l 776 1168 l 776 988 z "},"Ø":{"ha":1013,"x_min":40,"x_max":972,"o":"m 844 811 q 972 458 972 688 q 849 110 972 235 q 507 -14 726 -14 q 253 44 360 -14 l 200 -29 l 67 -29 l 167 107 q 72 257 104 168 q 40 458 40 346 q 97 713 40 607 q 258 875 153 819 q 507 931 363 931 q 760 874 654 931 l 811 944 l 943 944 l 844 811 m 507 688 q 403 633 436 688 q 371 458 371 578 q 376 365 371 400 l 588 661 q 507 688 557 688 m 507 229 q 610 284 578 229 q 642 458 642 339 q 638 540 642 506 l 431 251 q 507 229 461 229 z "},"Õ":{"ha":1013,"x_min":40,"x_max":972,"o":"m 507 931 q 849 806 726 931 q 972 458 972 682 q 849 110 972 235 q 507 -14 726 -14 q 258 42 363 -14 q 97 203 153 97 q 40 458 40 310 q 97 713 40 607 q 258 875 153 819 q 507 931 363 931 m 507 688 q 403 633 436 688 q 371 458 371 578 q 403 284 371 339 q 507 229 436 229 q 610 284 578 229 q 642 458 642 339 q 610 633 642 578 q 507 688 578 688 m 799 1221 q 596 976 793 976 q 528 988 553 976 q 474 1021 503 999 q 447 1040 458 1033 q 421 1046 435 1046 q 379 979 385 1046 l 215 979 q 418 1224 221 1224 q 486 1213 461 1224 q 540 1179 511 1201 q 567 1160 556 1167 q 593 1154 579 1154 q 622 1170 613 1154 q 635 1221 632 1186 l 799 1221 z "},"Œ":{"ha":1426,"x_min":40,"x_max":1404,"o":"m 1404 238 l 1404 0 l 753 0 l 753 92 q 475 -14 644 -14 q 245 42 343 -14 q 94 203 147 97 q 40 458 40 310 q 94 713 40 607 q 245 875 147 819 q 475 931 343 931 q 753 825 644 931 l 753 917 l 1388 917 l 1388 679 l 951 679 l 951 565 l 1303 565 l 1303 346 l 951 346 l 951 238 l 1404 238 m 493 229 q 596 284 564 229 q 628 458 628 339 q 596 633 628 578 q 493 688 564 688 q 395 633 426 688 q 364 458 364 578 q 395 284 364 339 q 493 229 426 229 z "},"P":{"ha":981,"x_min":69,"x_max":940,"o":"m 556 917 q 940 596 940 917 q 843 369 940 447 q 556 292 746 292 l 393 292 l 393 0 l 69 0 l 69 917 l 556 917 m 503 514 q 590 535 563 514 q 617 600 617 556 q 590 665 617 644 q 503 686 563 686 l 393 686 l 393 514 l 503 514 z "},"Þ":{"ha":961,"x_min":69,"x_max":922,"o":"m 544 793 q 824 710 725 793 q 921 468 922 628 q 824 226 922 308 q 544 143 725 143 l 393 143 l 393 0 l 69 0 l 69 917 l 393 917 l 393 793 l 544 793 m 492 371 q 597 468 599 371 q 492 564 599 564 l 393 564 l 393 371 l 492 371 z "},"Q":{"ha":1013,"x_min":40,"x_max":972,"o":"m 729 -74 q 827 -58 782 -74 q 900 -19 872 -43 l 972 -215 q 704 -290 893 -290 q 485 -227 558 -290 q 411 -62 411 -164 q 417 -8 411 -44 q 139 138 238 17 q 40 458 40 258 q 97 713 40 607 q 258 875 153 819 q 507 931 363 931 q 849 806 726 931 q 972 458 972 682 q 870 133 972 256 q 583 -10 768 11 q 622 -59 588 -44 q 729 -74 657 -74 m 507 688 q 403 633 436 688 q 371 458 371 578 q 403 284 371 339 q 507 229 436 229 q 610 284 578 229 q 642 458 642 339 q 610 633 642 578 q 507 688 578 688 z "},"R":{"ha":979,"x_min":69,"x_max":989,"o":"m 475 304 l 386 304 l 386 0 l 69 0 l 69 917 l 567 917 q 844 840 750 917 q 938 610 938 763 q 772 339 938 408 l 989 0 l 638 0 l 475 304 m 386 517 l 501 517 q 588 535 563 517 q 614 601 614 554 q 588 667 614 647 q 501 686 563 686 l 386 686 l 386 517 z "},"Ŕ":{"ha":979,"x_min":69,"x_max":989,"o":"m 564 985 l 338 985 l 411 1217 l 697 1217 l 564 985 m 475 304 l 386 304 l 386 0 l 69 0 l 69 917 l 567 917 q 844 840 750 917 q 938 610 938 763 q 772 339 938 408 l 989 0 l 638 0 l 475 304 m 386 517 l 501 517 q 588 535 563 517 q 614 601 614 554 q 588 667 614 647 q 501 686 563 686 l 386 686 l 386 517 z "},"Ř":{"ha":979,"x_min":69,"x_max":989,"o":"m 307 985 l 157 1217 l 381 1217 l 456 1121 l 531 1217 l 754 1217 l 604 985 l 307 985 m 475 304 l 386 304 l 386 0 l 69 0 l 69 917 l 567 917 q 844 840 750 917 q 938 610 938 763 q 772 339 938 408 l 989 0 l 638 0 l 475 304 m 386 517 l 501 517 q 588 535 563 517 q 614 601 614 554 q 588 667 614 647 q 501 686 563 686 l 386 686 l 386 517 z "},"S":{"ha":897,"x_min":14,"x_max":890,"o":"m 468 931 q 700 899 604 931 q 890 785 796 867 l 749 583 q 622 667 686 642 q 478 693 557 693 q 400 678 429 693 q 371 640 371 664 q 399 617 371 625 q 496 596 426 608 q 785 487 697 560 q 874 282 874 414 q 819 121 874 188 q 672 20 765 54 q 464 -14 579 -14 q 204 17 301 -14 q 14 115 107 47 l 153 335 q 281 251 211 278 q 440 224 350 224 q 542 265 542 224 q 510 299 542 288 q 406 322 478 310 q 226 367 300 342 q 95 451 151 392 q 39 615 39 511 q 89 781 39 710 q 235 891 139 851 q 468 931 332 931 z "},"Ś":{"ha":897,"x_min":14,"x_max":890,"o":"m 693 1217 l 560 985 l 333 985 l 407 1217 l 693 1217 m 468 931 q 700 899 604 931 q 890 785 796 867 l 749 583 q 622 667 686 642 q 478 693 557 693 q 400 678 429 693 q 371 640 371 664 q 399 617 371 625 q 496 596 426 608 q 785 487 697 560 q 874 282 874 414 q 819 121 874 188 q 672 20 765 54 q 464 -14 579 -14 q 204 17 301 -14 q 14 115 107 47 l 153 335 q 281 251 211 278 q 440 224 350 224 q 542 265 542 224 q 510 299 542 288 q 406 322 478 310 q 226 367 300 342 q 95 451 151 392 q 39 615 39 511 q 89 781 39 710 q 235 891 139 851 q 468 931 332 931 z "},"Š":{"ha":897,"x_min":14,"x_max":890,"o":"m 600 985 l 303 985 l 153 1217 l 376 1217 l 451 1121 l 526 1217 l 750 1217 l 600 985 m 468 931 q 700 899 604 931 q 890 785 796 867 l 749 583 q 622 667 686 642 q 478 693 557 693 q 400 678 429 693 q 371 640 371 664 q 399 617 371 625 q 496 596 426 608 q 785 487 697 560 q 874 282 874 414 q 819 121 874 188 q 672 20 765 54 q 464 -14 579 -14 q 204 17 301 -14 q 14 115 107 47 l 153 335 q 281 251 211 278 q 440 224 350 224 q 542 265 542 224 q 510 299 542 288 q 406 322 478 310 q 226 367 300 342 q 95 451 151 392 q 39 615 39 511 q 89 781 39 710 q 235 891 139 851 q 468 931 332 931 z "},"ẞ":{"ha":1025,"x_min":69,"x_max":1008,"o":"m 781 494 q 947 424 886 479 q 1008 263 1008 368 q 924 61 1008 129 q 701 -7 839 -7 q 538 11 599 -7 q 435 68 476 29 l 510 246 q 561 217 536 225 q 628 210 586 210 q 690 227 667 210 q 713 275 713 244 q 622 338 713 338 l 489 338 l 489 499 l 668 686 l 563 686 q 436 640 479 686 q 393 503 393 593 l 393 0 l 69 0 l 69 560 q 181 823 69 729 q 493 917 292 917 l 960 917 l 960 692 l 781 494 z "},"T":{"ha":953,"x_min":28,"x_max":925,"o":"m 925 679 l 639 679 l 639 0 l 315 0 l 315 679 l 28 679 l 28 917 l 925 917 l 925 679 z "},"Ť":{"ha":953,"x_min":28,"x_max":925,"o":"m 319 985 l 169 1217 l 393 1217 l 468 1121 l 543 1217 l 767 1217 l 617 985 l 319 985 m 925 679 l 639 679 l 639 0 l 315 0 l 315 679 l 28 679 l 28 917 l 925 917 l 925 679 z "},"U":{"ha":983,"x_min":49,"x_max":935,"o":"m 935 394 q 492 -14 935 -14 q 49 394 49 -14 l 49 917 l 374 917 l 374 369 q 403 265 374 300 q 492 229 433 229 q 581 265 550 229 q 611 369 611 300 l 611 917 l 935 917 l 935 394 z "},"Ú":{"ha":983,"x_min":49,"x_max":935,"o":"m 725 1217 l 592 985 l 365 985 l 439 1217 l 725 1217 m 935 394 q 492 -14 935 -14 q 49 394 49 -14 l 49 917 l 374 917 l 374 369 q 403 265 374 300 q 492 229 433 229 q 581 265 550 229 q 611 369 611 300 l 611 917 l 935 917 l 935 394 z "},"Û":{"ha":983,"x_min":49,"x_max":935,"o":"m 567 985 l 492 1081 l 417 985 l 193 985 l 343 1217 l 640 1217 l 790 985 l 567 985 m 935 394 q 492 -14 935 -14 q 49 394 49 -14 l 49 917 l 374 917 l 374 369 q 403 265 374 300 q 492 229 433 229 q 581 265 550 229 q 611 369 611 300 l 611 917 l 935 917 l 935 394 z "},"Ü":{"ha":983,"x_min":49,"x_max":935,"o":"m 935 394 q 492 -14 935 -14 q 49 394 49 -14 l 49 917 l 374 917 l 374 369 q 403 265 374 300 q 492 229 433 229 q 581 265 550 229 q 611 369 611 300 l 611 917 l 935 917 l 935 394 m 325 1222 q 433 1190 394 1222 q 471 1096 471 1157 q 433 1002 471 1035 q 325 969 394 969 q 220 1003 257 969 q 183 1096 183 1036 q 220 1189 183 1156 q 325 1222 257 1222 m 654 1222 q 762 1190 724 1222 q 800 1096 800 1157 q 762 1002 800 1035 q 654 969 724 969 q 549 1003 586 969 q 513 1096 513 1036 q 549 1189 513 1156 q 654 1222 586 1222 z "},"Ù":{"ha":983,"x_min":49,"x_max":935,"o":"m 590 985 l 364 985 l 231 1217 l 517 1217 l 590 985 m 935 394 q 492 -14 935 -14 q 49 394 49 -14 l 49 917 l 374 917 l 374 369 q 403 265 374 300 q 492 229 433 229 q 581 265 550 229 q 611 369 611 300 l 611 917 l 935 917 l 935 394 z "},"Ű":{"ha":983,"x_min":49,"x_max":935,"o":"m 561 1217 l 428 985 l 201 985 l 275 1217 l 561 1217 m 915 1217 l 782 985 l 556 985 l 629 1217 l 915 1217 m 935 394 q 492 -14 935 -14 q 49 394 49 -14 l 49 917 l 374 917 l 374 369 q 403 265 374 300 q 492 229 433 229 q 581 265 550 229 q 611 369 611 300 l 611 917 l 935 917 l 935 394 z "},"Ū":{"ha":983,"x_min":49,"x_max":935,"o":"m 935 394 q 492 -14 935 -14 q 49 394 49 -14 l 49 917 l 374 917 l 374 369 q 403 265 374 300 q 492 229 433 229 q 581 265 550 229 q 611 369 611 300 l 611 917 l 935 917 l 935 394 m 761 988 l 222 988 l 222 1168 l 761 1168 l 761 988 z "},"Ų":{"ha":983,"x_min":49,"x_max":935,"o":"m 935 917 l 935 394 q 608 -6 935 42 q 539 -78 539 -31 q 557 -117 539 -103 q 607 -131 575 -131 q 663 -119 644 -131 l 700 -262 q 629 -290 668 -282 q 536 -299 590 -299 q 384 -258 443 -299 q 325 -133 325 -217 q 392 -8 325 -56 q 49 394 49 35 l 49 917 l 374 917 l 374 369 q 403 265 374 300 q 492 229 433 229 q 581 265 550 229 q 611 369 611 300 l 611 917 l 935 917 z "},"Ů":{"ha":983,"x_min":49,"x_max":935,"o":"m 935 394 q 492 -14 935 -14 q 49 394 49 -14 l 49 917 l 374 917 l 374 369 q 403 265 374 300 q 492 229 433 229 q 581 265 550 229 q 611 369 611 300 l 611 917 l 935 917 l 935 394 m 492 1260 q 636 1215 585 1260 q 688 1089 688 1171 q 636 963 688 1007 q 492 918 585 918 q 347 963 399 918 q 296 1089 296 1007 q 347 1215 296 1171 q 492 1260 399 1260 m 492 1143 q 451 1129 465 1143 q 436 1089 436 1115 q 451 1049 436 1063 q 492 1035 465 1035 q 533 1049 518 1035 q 547 1089 547 1063 q 533 1129 547 1115 q 492 1143 518 1143 z "},"V":{"ha":982,"x_min":-11,"x_max":993,"o":"m 683 0 l 299 0 l -11 917 l 326 917 l 453 415 l 497 236 l 539 413 l 668 917 l 993 917 l 683 0 z "},"W":{"ha":1418,"x_min":-11,"x_max":1428,"o":"m 604 0 l 249 0 l -11 917 l 338 917 l 444 254 l 574 917 l 851 917 l 988 258 l 1092 917 l 1428 917 l 1167 0 l 824 0 l 751 344 l 715 579 l 711 579 l 675 344 l 604 0 z "},"X":{"ha":978,"x_min":3,"x_max":990,"o":"m 600 0 l 479 238 l 368 0 l 3 0 l 307 457 l 14 917 l 396 917 l 503 688 l 611 917 l 964 917 l 672 465 l 990 0 l 600 0 z "},"Y":{"ha":990,"x_min":13,"x_max":978,"o":"m 657 318 l 657 0 l 333 0 l 333 318 l 13 917 l 335 917 l 432 707 l 497 540 l 563 707 l 660 917 l 978 917 l 657 318 z "},"Ý":{"ha":990,"x_min":13,"x_max":978,"o":"m 728 1217 l 594 985 l 368 985 l 442 1217 l 728 1217 m 657 318 l 657 0 l 333 0 l 333 318 l 13 917 l 335 917 l 432 707 l 497 540 l 563 707 l 660 917 l 978 917 l 657 318 z "},"Ÿ":{"ha":990,"x_min":13,"x_max":978,"o":"m 657 318 l 657 0 l 333 0 l 333 318 l 13 917 l 335 917 l 432 707 l 497 540 l 563 707 l 660 917 l 978 917 l 657 318 m 328 1222 q 435 1190 397 1222 q 474 1096 474 1157 q 435 1002 474 1035 q 328 969 397 969 q 223 1003 260 969 q 186 1096 186 1036 q 223 1189 186 1156 q 328 1222 260 1222 m 657 1222 q 765 1190 726 1222 q 803 1096 803 1157 q 765 1002 803 1035 q 657 969 726 969 q 552 1003 589 969 q 515 1096 515 1036 q 552 1189 515 1156 q 657 1222 589 1222 z "},"Z":{"ha":885,"x_min":35,"x_max":864,"o":"m 864 231 l 864 0 l 35 0 l 35 221 l 500 686 l 40 686 l 40 917 l 849 917 l 849 696 l 386 231 l 864 231 z "},"Ź":{"ha":885,"x_min":35,"x_max":864,"o":"m 557 985 l 331 985 l 404 1217 l 690 1217 l 557 985 m 864 231 l 864 0 l 35 0 l 35 221 l 500 686 l 40 686 l 40 917 l 849 917 l 849 696 l 386 231 l 864 231 z "},"Ž":{"ha":885,"x_min":35,"x_max":864,"o":"m 300 985 l 150 1217 l 374 1217 l 449 1121 l 524 1217 l 747 1217 l 597 985 l 300 985 m 864 231 l 864 0 l 35 0 l 35 221 l 500 686 l 40 686 l 40 917 l 849 917 l 849 696 l 386 231 l 864 231 z "},"Ż":{"ha":885,"x_min":35,"x_max":864,"o":"m 864 231 l 864 0 l 35 0 l 35 221 l 500 686 l 40 686 l 40 917 l 849 917 l 849 696 l 386 231 l 864 231 m 457 1231 q 617 1100 617 1231 q 457 969 617 969 q 301 1100 301 969 q 457 1231 301 1231 z "},"Ģ":{"ha":1003,"x_min":40,"x_max":943,"o":"m 515 517 l 940 517 l 940 0 l 726 0 l 715 104 q 467 -14 644 -14 q 249 40 346 -14 q 97 199 153 93 q 40 456 40 304 q 166 806 40 681 q 515 931 292 931 q 787 872 686 931 q 943 679 888 814 l 642 571 q 526 688 624 688 q 408 633 446 688 q 371 458 371 578 q 411 276 371 331 q 538 221 451 221 q 634 245 599 221 q 669 317 669 269 l 669 318 l 515 318 l 515 517 m 575 -337 l 378 -337 l 411 -69 l 679 -69 l 575 -337 z "},"Ķ":{"ha":996,"x_min":69,"x_max":1001,"o":"m 468 343 l 393 240 l 393 0 l 69 0 l 69 917 l 393 917 l 393 575 l 632 917 l 976 917 l 696 553 l 1001 0 l 639 0 l 468 343 m 543 -337 l 346 -337 l 379 -69 l 647 -69 l 543 -337 z "},"Ļ":{"ha":840,"x_min":69,"x_max":808,"o":"m 808 238 l 808 0 l 69 0 l 69 917 l 393 917 l 393 238 l 808 238 m 490 -337 l 293 -337 l 326 -69 l 594 -69 l 490 -337 z "},"Ņ":{"ha":1036,"x_min":69,"x_max":967,"o":"m 967 0 l 617 0 l 397 417 l 347 529 l 344 529 l 350 340 l 350 0 l 69 0 l 69 917 l 419 917 l 639 499 l 689 388 l 692 388 l 686 576 l 686 917 l 967 917 l 967 0 m 568 -337 l 371 -337 l 404 -69 l 672 -69 l 568 -337 z "},"Ŗ":{"ha":979,"x_min":69,"x_max":989,"o":"m 475 304 l 386 304 l 386 0 l 69 0 l 69 917 l 567 917 q 844 840 750 917 q 938 610 938 763 q 772 339 938 408 l 989 0 l 638 0 l 475 304 m 386 517 l 501 517 q 588 535 563 517 q 614 601 614 554 q 588 667 614 647 q 501 686 563 686 l 386 686 l 386 517 m 551 -337 l 354 -337 l 388 -69 l 656 -69 l 551 -337 z "},"Ş":{"ha":897,"x_min":14,"x_max":890,"o":"m 496 596 q 785 487 697 560 q 874 282 874 414 q 797 97 874 169 q 592 -1 719 24 q 658 -125 658 -50 q 597 -258 658 -217 q 435 -299 536 -299 q 322 -282 365 -299 q 249 -237 278 -265 l 311 -106 q 414 -144 350 -144 q 469 -128 449 -144 q 489 -83 489 -112 q 414 -12 489 -36 q 188 22 275 -8 q 14 115 100 53 l 153 335 q 281 251 211 278 q 440 224 350 224 q 542 265 542 224 q 510 299 542 288 q 406 322 478 310 q 226 367 300 342 q 95 451 151 392 q 39 615 39 511 q 89 781 39 710 q 235 891 139 851 q 468 931 332 931 q 700 899 604 931 q 890 785 796 867 l 749 583 q 622 667 686 642 q 478 693 557 693 q 400 678 429 693 q 371 640 371 664 q 399 617 371 625 q 496 596 426 608 z "},"Ţ":{"ha":953,"x_min":28,"x_max":925,"o":"m 639 679 l 639 6 q 686 -115 686 -37 q 625 -256 686 -214 q 463 -299 564 -299 q 269 -236 335 -299 l 347 -97 q 384 -130 364 -119 q 439 -140 404 -140 q 494 -123 472 -140 q 517 -71 517 -106 q 490 -18 517 -36 q 414 0 463 0 l 315 0 l 315 679 l 28 679 l 28 917 l 925 917 l 925 679 l 639 679 z "},"Ș":{"ha":897,"x_min":14,"x_max":890,"o":"m 468 931 q 700 899 604 931 q 890 785 796 867 l 749 583 q 622 667 686 642 q 478 693 557 693 q 400 678 429 693 q 371 640 371 664 q 399 617 371 625 q 496 596 426 608 q 785 487 697 560 q 874 282 874 414 q 819 121 874 188 q 672 20 765 54 q 464 -14 579 -14 q 204 17 301 -14 q 14 115 107 47 l 153 335 q 281 251 211 278 q 440 224 350 224 q 542 265 542 224 q 510 299 542 288 q 406 322 478 310 q 226 367 300 342 q 95 451 151 392 q 39 615 39 511 q 89 781 39 710 q 235 891 139 851 q 468 931 332 931 m 518 -337 l 321 -337 l 354 -69 l 622 -69 l 518 -337 z "},"Ț":{"ha":953,"x_min":28,"x_max":925,"o":"m 925 679 l 639 679 l 639 0 l 315 0 l 315 679 l 28 679 l 28 917 l 925 917 l 925 679 m 501 -337 l 304 -337 l 338 -69 l 606 -69 l 501 -337 z "},"a":{"ha":817,"x_min":22,"x_max":829,"o":"m 794 171 q 829 176 818 171 l 804 14 q 701 -14 757 -14 q 560 16 617 -14 q 483 103 503 46 q 390 17 451 49 q 236 -14 328 -14 q 75 28 128 -14 q 22 151 22 71 q 85 291 22 239 q 293 375 147 343 l 431 406 l 431 433 q 415 483 431 465 q 368 501 399 501 q 315 483 335 501 q 294 417 296 464 l 31 457 q 131 642 42 576 q 386 708 219 708 q 659 638 571 708 q 747 422 747 567 l 747 228 q 794 171 747 171 m 371 160 q 414 177 397 160 q 431 228 431 194 l 431 294 l 385 281 q 339 253 356 272 q 322 208 322 235 q 336 172 322 185 q 371 160 350 160 z "},"á":{"ha":817,"x_min":22,"x_max":829,"o":"m 794 171 q 829 176 818 171 l 804 14 q 701 -14 757 -14 q 560 16 617 -14 q 483 103 503 46 q 390 17 451 49 q 236 -14 328 -14 q 75 28 128 -14 q 22 151 22 71 q 85 291 22 239 q 293 375 147 343 l 431 406 l 431 433 q 415 483 431 465 q 368 501 399 501 q 315 483 335 501 q 294 417 296 464 l 31 457 q 131 642 42 576 q 386 708 219 708 q 659 638 571 708 q 747 422 747 567 l 747 228 q 794 171 747 171 m 371 160 q 414 177 397 160 q 431 228 431 194 l 431 294 l 385 281 q 339 253 356 272 q 322 208 322 235 q 336 172 322 185 q 371 160 350 160 m 621 1014 l 478 768 l 253 768 l 336 1014 l 621 1014 z "},"ă":{"ha":817,"x_min":22,"x_max":829,"o":"m 794 171 q 829 176 818 171 l 804 14 q 701 -14 757 -14 q 560 16 617 -14 q 483 103 503 46 q 390 17 451 49 q 236 -14 328 -14 q 75 28 128 -14 q 22 151 22 71 q 85 291 22 239 q 293 375 147 343 l 431 406 l 431 433 q 415 483 431 465 q 368 501 399 501 q 315 483 335 501 q 294 417 296 464 l 31 457 q 131 642 42 576 q 386 708 219 708 q 659 638 571 708 q 747 422 747 567 l 747 228 q 794 171 747 171 m 371 160 q 414 177 397 160 q 431 228 431 194 l 431 294 l 385 281 q 339 253 356 272 q 322 208 322 235 q 336 172 322 185 q 371 160 350 160 m 639 990 q 572 813 639 876 q 385 750 506 750 q 197 813 264 750 q 131 990 131 876 l 324 990 q 385 914 324 914 q 446 990 446 914 l 639 990 z "},"â":{"ha":817,"x_min":22,"x_max":829,"o":"m 794 171 q 829 176 818 171 l 804 14 q 701 -14 757 -14 q 560 16 617 -14 q 483 103 503 46 q 390 17 451 49 q 236 -14 328 -14 q 75 28 128 -14 q 22 151 22 71 q 85 291 22 239 q 293 375 147 343 l 431 406 l 431 433 q 415 483 431 465 q 368 501 399 501 q 315 483 335 501 q 294 417 296 464 l 31 457 q 131 642 42 576 q 386 708 219 708 q 659 638 571 708 q 747 422 747 567 l 747 228 q 794 171 747 171 m 371 160 q 414 177 397 160 q 431 228 431 194 l 431 294 l 385 281 q 339 253 356 272 q 322 208 322 235 q 336 172 322 185 q 371 160 350 160 m 464 760 l 385 858 l 306 760 l 89 760 l 236 1006 l 533 1006 l 681 760 l 464 760 z "},"ä":{"ha":817,"x_min":22,"x_max":829,"o":"m 794 171 q 829 176 818 171 l 804 14 q 701 -14 757 -14 q 560 16 617 -14 q 483 103 503 46 q 390 17 451 49 q 236 -14 328 -14 q 75 28 128 -14 q 22 151 22 71 q 85 291 22 239 q 293 375 147 343 l 431 406 l 431 433 q 415 483 431 465 q 368 501 399 501 q 315 483 335 501 q 294 417 296 464 l 31 457 q 131 642 42 576 q 386 708 219 708 q 659 638 571 708 q 747 422 747 567 l 747 228 q 794 171 747 171 m 371 160 q 414 177 397 160 q 431 228 431 194 l 431 294 l 385 281 q 339 253 356 272 q 322 208 322 235 q 336 172 322 185 q 371 160 350 160 m 218 1000 q 326 967 288 1000 q 364 874 364 935 q 326 780 364 813 q 218 747 288 747 q 113 781 150 747 q 76 874 76 814 q 113 967 76 933 q 218 1000 150 1000 m 547 1000 q 655 967 617 1000 q 693 874 693 935 q 655 780 693 813 q 547 747 617 747 q 442 781 479 747 q 406 874 406 814 q 442 967 406 933 q 547 1000 479 1000 z "},"à":{"ha":817,"x_min":22,"x_max":829,"o":"m 794 171 q 829 176 818 171 l 804 14 q 701 -14 757 -14 q 560 16 617 -14 q 483 103 503 46 q 390 17 451 49 q 236 -14 328 -14 q 75 28 128 -14 q 22 151 22 71 q 85 291 22 239 q 293 375 147 343 l 431 406 l 431 433 q 415 483 431 465 q 368 501 399 501 q 315 483 335 501 q 294 417 296 464 l 31 457 q 131 642 42 576 q 386 708 219 708 q 659 638 571 708 q 747 422 747 567 l 747 228 q 794 171 747 171 m 371 160 q 414 177 397 160 q 431 228 431 194 l 431 294 l 385 281 q 339 253 356 272 q 322 208 322 235 q 336 172 322 185 q 371 160 350 160 m 500 768 l 275 768 l 132 1014 l 417 1014 l 500 768 z "},"ā":{"ha":817,"x_min":22,"x_max":829,"o":"m 794 171 q 829 176 818 171 l 804 14 q 701 -14 757 -14 q 560 16 617 -14 q 483 103 503 46 q 390 17 451 49 q 236 -14 328 -14 q 75 28 128 -14 q 22 151 22 71 q 85 291 22 239 q 293 375 147 343 l 431 406 l 431 433 q 415 483 431 465 q 368 501 399 501 q 315 483 335 501 q 294 417 296 464 l 31 457 q 131 642 42 576 q 386 708 219 708 q 659 638 571 708 q 747 422 747 567 l 747 228 q 794 171 747 171 m 371 160 q 414 177 397 160 q 431 228 431 194 l 431 294 l 385 281 q 339 253 356 272 q 322 208 322 235 q 336 172 322 185 q 371 160 350 160 m 654 765 l 115 765 l 115 946 l 654 946 l 654 765 z "},"ą":{"ha":817,"x_min":22,"x_max":829,"o":"m 728 -131 q 783 -119 765 -131 l 821 -262 q 750 -290 789 -282 q 657 -299 711 -299 q 505 -256 564 -299 q 446 -125 446 -214 q 483 -24 446 -64 q 590 31 521 17 q 499 133 517 58 q 406 26 472 67 q 236 -14 340 -14 q 75 28 128 -14 q 22 151 22 71 q 85 291 22 239 q 293 375 147 343 l 431 406 l 431 433 q 415 483 431 465 q 368 501 399 501 q 315 483 335 501 q 294 417 296 464 l 31 457 q 131 642 42 576 q 386 708 219 708 q 659 638 571 708 q 747 422 747 567 l 747 228 q 794 171 747 171 q 829 176 818 171 l 804 7 q 695 -19 731 0 q 660 -78 660 -39 q 678 -117 660 -103 q 728 -131 696 -131 m 371 160 q 414 177 397 160 q 431 228 431 194 l 431 294 l 385 281 q 339 253 356 272 q 322 208 322 235 q 336 172 322 185 q 371 160 350 160 z "},"å":{"ha":817,"x_min":22,"x_max":829,"o":"m 794 171 q 829 176 818 171 l 804 14 q 701 -14 757 -14 q 560 16 617 -14 q 483 103 503 46 q 390 17 451 49 q 236 -14 328 -14 q 75 28 128 -14 q 22 151 22 71 q 85 291 22 239 q 293 375 147 343 l 431 406 l 431 433 q 415 483 431 465 q 368 501 399 501 q 315 483 335 501 q 294 417 296 464 l 31 457 q 131 642 42 576 q 386 708 219 708 q 659 638 571 708 q 747 422 747 567 l 747 228 q 794 171 747 171 m 371 160 q 414 177 397 160 q 431 228 431 194 l 431 294 l 385 281 q 339 253 356 272 q 322 208 322 235 q 336 172 322 185 q 371 160 350 160 m 389 1085 q 533 1040 482 1085 q 585 914 585 996 q 533 788 585 832 q 389 743 482 743 q 244 788 296 743 q 193 914 193 832 q 244 1040 193 996 q 389 1085 296 1085 m 389 968 q 348 954 363 968 q 333 914 333 940 q 348 874 333 888 q 389 860 363 860 q 430 874 415 860 q 444 914 444 888 q 430 954 444 940 q 389 968 415 968 z "},"ã":{"ha":817,"x_min":22,"x_max":829,"o":"m 794 171 q 829 176 818 171 l 804 14 q 701 -14 757 -14 q 560 16 617 -14 q 483 103 503 46 q 390 17 451 49 q 236 -14 328 -14 q 75 28 128 -14 q 22 151 22 71 q 85 291 22 239 q 293 375 147 343 l 431 406 l 431 433 q 415 483 431 465 q 368 501 399 501 q 315 483 335 501 q 294 417 296 464 l 31 457 q 131 642 42 576 q 386 708 219 708 q 659 638 571 708 q 747 422 747 567 l 747 228 q 794 171 747 171 m 371 160 q 414 177 397 160 q 431 228 431 194 l 431 294 l 385 281 q 339 253 356 272 q 322 208 322 235 q 336 172 322 185 q 371 160 350 160 m 676 999 q 474 754 671 754 q 406 765 431 754 q 351 799 381 776 q 324 817 336 811 q 299 824 313 824 q 257 757 263 824 l 93 757 q 296 1001 99 1001 q 364 990 339 1001 q 418 957 389 979 q 445 938 433 944 q 471 932 457 932 q 500 948 490 932 q 513 999 510 964 l 676 999 z "},"æ":{"ha":1213,"x_min":22,"x_max":1185,"o":"m 1185 369 q 1178 286 1185 317 l 738 286 q 773 217 746 236 q 846 199 800 199 q 893 213 879 199 q 915 258 907 226 l 1172 189 q 1056 38 1149 89 q 832 -14 964 -14 q 569 115 649 -14 q 447 22 528 57 q 249 -14 365 -14 q 77 30 132 -14 q 22 149 22 74 q 48 252 22 211 q 129 320 74 293 q 281 367 185 347 l 432 399 l 432 433 q 368 503 432 503 q 315 484 332 503 q 294 417 299 465 l 31 458 q 120 642 40 575 q 357 708 200 708 q 499 686 435 708 q 608 622 564 664 q 829 708 690 708 q 1092 617 999 708 q 1185 369 1185 525 m 817 497 q 760 475 778 497 q 736 396 742 453 l 886 396 q 867 473 883 449 q 817 497 851 497 m 367 147 q 413 165 394 147 q 432 224 432 183 l 432 288 l 386 276 q 332 250 349 267 q 315 203 315 233 q 328 162 315 176 q 367 147 342 147 z "},"b":{"ha":871,"x_min":54,"x_max":836,"o":"m 569 708 q 766 613 696 708 q 836 343 836 517 q 767 79 836 172 q 571 -14 699 -14 q 428 33 488 -14 q 343 163 369 81 l 335 0 l 54 0 l 54 972 l 374 972 l 374 578 q 450 674 401 639 q 569 708 499 708 m 442 210 q 496 240 478 210 q 514 347 514 269 q 496 454 514 425 q 442 483 478 483 q 390 451 407 483 q 374 353 374 419 l 374 342 q 391 241 374 272 q 442 210 408 210 z "},"c":{"ha":800,"x_min":28,"x_max":779,"o":"m 413 708 q 691 640 606 708 q 779 472 776 571 l 485 386 q 429 493 489 493 q 367 460 386 493 q 349 343 349 428 q 369 231 349 260 q 428 201 389 201 q 472 224 457 201 q 490 293 488 247 l 776 204 q 735 95 776 144 q 616 16 694 46 q 429 -14 538 -14 q 130 79 232 -14 q 28 347 28 172 q 128 614 28 519 q 413 708 229 708 z "},"ć":{"ha":800,"x_min":28,"x_max":779,"o":"m 413 708 q 691 640 606 708 q 779 472 776 571 l 485 386 q 429 493 489 493 q 367 460 386 493 q 349 343 349 428 q 369 231 349 260 q 428 201 389 201 q 472 224 457 201 q 490 293 488 247 l 776 204 q 735 95 776 144 q 616 16 694 46 q 429 -14 538 -14 q 130 79 232 -14 q 28 347 28 172 q 128 614 28 519 q 413 708 229 708 m 649 1014 l 506 768 l 281 768 l 364 1014 l 649 1014 z "},"č":{"ha":800,"x_min":28,"x_max":779,"o":"m 413 708 q 691 640 606 708 q 779 472 776 571 l 485 386 q 429 493 489 493 q 367 460 386 493 q 349 343 349 428 q 369 231 349 260 q 428 201 389 201 q 472 224 457 201 q 490 293 488 247 l 776 204 q 735 95 776 144 q 616 16 694 46 q 429 -14 538 -14 q 130 79 232 -14 q 28 347 28 172 q 128 614 28 519 q 413 708 229 708 m 553 768 l 256 768 l 108 1014 l 325 1014 l 404 915 l 483 1014 l 700 1014 l 553 768 z "},"ç":{"ha":800,"x_min":28,"x_max":779,"o":"m 428 201 q 472 224 457 201 q 490 293 488 247 l 776 204 q 722 80 776 135 q 565 0 667 25 q 636 -125 636 -49 q 575 -258 636 -217 q 413 -299 514 -299 q 299 -282 343 -299 q 226 -237 256 -265 l 289 -106 q 392 -144 328 -144 q 447 -128 426 -144 q 467 -83 467 -112 q 390 -12 467 -36 q 120 89 213 -4 q 28 347 28 182 q 128 614 28 519 q 413 708 229 708 q 691 640 606 708 q 779 472 776 571 l 485 386 q 429 493 489 493 q 367 460 386 493 q 349 343 349 428 q 369 231 349 260 q 428 201 389 201 z "},"d":{"ha":871,"x_min":35,"x_max":817,"o":"m 817 972 l 817 0 l 529 0 l 519 138 q 433 26 489 67 q 300 -14 378 -14 q 103 79 172 -14 q 35 343 35 172 q 105 613 35 517 q 301 708 175 708 q 421 674 372 708 q 497 578 469 639 l 497 972 l 817 972 m 429 210 q 480 241 463 210 q 497 342 497 272 l 497 353 q 481 451 497 419 q 429 483 464 483 q 375 454 393 483 q 357 347 357 425 q 375 240 357 269 q 429 210 393 210 z "},"ð":{"ha":824,"x_min":38,"x_max":808,"o":"m 664 836 q 794 435 794 668 q 755 171 794 268 q 630 30 715 74 q 401 -14 544 -14 q 135 80 232 -14 q 38 342 38 174 q 132 603 38 510 q 386 697 226 697 q 558 603 514 697 q 461 790 533 708 l 254 756 l 239 839 l 400 853 q 217 996 343 904 l 474 996 q 614 893 546 961 l 788 931 l 808 847 l 664 836 m 425 201 q 481 231 465 201 q 496 342 496 261 q 481 469 496 435 q 425 503 465 503 q 372 469 386 503 q 358 342 358 435 q 373 232 358 263 q 425 201 388 201 z "},"ď":{"ha":1060,"x_min":35,"x_max":1122,"o":"m 497 972 l 817 972 l 817 0 l 529 0 l 519 138 q 433 26 489 67 q 300 -14 378 -14 q 103 79 172 -14 q 35 343 35 172 q 105 613 35 517 q 301 708 175 708 q 421 674 372 708 q 497 578 469 639 l 497 972 m 1122 972 l 1038 601 l 863 601 l 893 972 l 1122 972 m 429 210 q 480 241 463 210 q 497 342 497 272 l 497 353 q 481 451 497 419 q 429 483 464 483 q 375 454 393 483 q 357 347 357 425 q 375 240 357 269 q 429 210 393 210 z "},"đ":{"ha":871,"x_min":35,"x_max":936,"o":"m 936 749 l 817 749 l 817 0 l 529 0 l 519 138 q 433 26 489 67 q 300 -14 378 -14 q 103 79 172 -14 q 35 343 35 172 q 105 613 35 517 q 301 708 175 708 q 421 674 372 708 q 497 578 469 639 l 497 749 l 342 749 l 342 874 l 497 874 l 497 972 l 817 972 l 817 874 l 936 874 l 936 749 m 429 210 q 480 241 463 210 q 497 342 497 272 l 497 353 q 481 451 497 419 q 429 483 464 483 q 375 454 393 483 q 357 347 357 425 q 375 240 357 269 q 429 210 393 210 z "},"e":{"ha":810,"x_min":28,"x_max":782,"o":"m 782 369 q 775 286 782 317 l 333 286 q 363 217 340 235 q 429 199 385 199 q 513 258 497 199 l 769 189 q 653 38 746 89 q 429 -14 561 -14 q 130 79 232 -14 q 28 347 28 172 q 128 614 28 519 q 413 708 229 708 q 687 617 592 708 q 782 369 782 525 m 414 497 q 358 476 378 497 q 333 404 339 456 l 483 404 q 463 474 479 451 q 414 497 447 497 z "},"é":{"ha":810,"x_min":28,"x_max":782,"o":"m 782 369 q 775 286 782 317 l 333 286 q 363 217 340 235 q 429 199 385 199 q 513 258 497 199 l 769 189 q 653 38 746 89 q 429 -14 561 -14 q 130 79 232 -14 q 28 347 28 172 q 128 614 28 519 q 413 708 229 708 q 687 617 592 708 q 782 369 782 525 m 414 497 q 358 476 378 497 q 333 404 339 456 l 483 404 q 463 474 479 451 q 414 497 447 497 m 647 1014 l 504 768 l 279 768 l 363 1014 l 647 1014 z "},"ě":{"ha":810,"x_min":28,"x_max":782,"o":"m 782 369 q 775 286 782 317 l 333 286 q 363 217 340 235 q 429 199 385 199 q 513 258 497 199 l 769 189 q 653 38 746 89 q 429 -14 561 -14 q 130 79 232 -14 q 28 347 28 172 q 128 614 28 519 q 413 708 229 708 q 687 617 592 708 q 782 369 782 525 m 414 497 q 358 476 378 497 q 333 404 339 456 l 483 404 q 463 474 479 451 q 414 497 447 497 m 551 768 l 254 768 l 107 1014 l 324 1014 l 403 915 l 482 1014 l 699 1014 l 551 768 z "},"ê":{"ha":810,"x_min":28,"x_max":782,"o":"m 782 369 q 775 286 782 317 l 333 286 q 363 217 340 235 q 429 199 385 199 q 513 258 497 199 l 769 189 q 653 38 746 89 q 429 -14 561 -14 q 130 79 232 -14 q 28 347 28 172 q 128 614 28 519 q 413 708 229 708 q 687 617 592 708 q 782 369 782 525 m 414 497 q 358 476 378 497 q 333 404 339 456 l 483 404 q 463 474 479 451 q 414 497 447 497 m 490 760 l 411 858 l 332 760 l 115 760 l 263 1006 l 560 1006 l 707 760 l 490 760 z "},"ë":{"ha":810,"x_min":28,"x_max":782,"o":"m 782 369 q 775 286 782 317 l 333 286 q 363 217 340 235 q 429 199 385 199 q 513 258 497 199 l 769 189 q 653 38 746 89 q 429 -14 561 -14 q 130 79 232 -14 q 28 347 28 172 q 128 614 28 519 q 413 708 229 708 q 687 617 592 708 q 782 369 782 525 m 414 497 q 358 476 378 497 q 333 404 339 456 l 483 404 q 463 474 479 451 q 414 497 447 497 m 244 1000 q 352 967 314 1000 q 390 874 390 935 q 352 780 390 813 q 244 747 314 747 q 140 781 176 747 q 103 874 103 814 q 140 967 103 933 q 244 1000 176 1000 m 574 1000 q 681 967 643 1000 q 719 874 719 935 q 681 780 719 813 q 574 747 643 747 q 469 781 506 747 q 432 874 432 814 q 469 967 432 933 q 574 1000 506 1000 z "},"ė":{"ha":810,"x_min":28,"x_max":782,"o":"m 782 369 q 775 286 782 317 l 333 286 q 363 217 340 235 q 429 199 385 199 q 513 258 497 199 l 769 189 q 653 38 746 89 q 429 -14 561 -14 q 130 79 232 -14 q 28 347 28 172 q 128 614 28 519 q 413 708 229 708 q 687 617 592 708 q 782 369 782 525 m 414 497 q 358 476 378 497 q 333 404 339 456 l 483 404 q 463 474 479 451 q 414 497 447 497 m 411 1008 q 571 878 571 1008 q 411 747 571 747 q 256 878 256 747 q 411 1008 256 1008 z "},"è":{"ha":810,"x_min":28,"x_max":782,"o":"m 782 369 q 775 286 782 317 l 333 286 q 363 217 340 235 q 429 199 385 199 q 513 258 497 199 l 769 189 q 653 38 746 89 q 429 -14 561 -14 q 130 79 232 -14 q 28 347 28 172 q 128 614 28 519 q 413 708 229 708 q 687 617 592 708 q 782 369 782 525 m 414 497 q 358 476 378 497 q 333 404 339 456 l 483 404 q 463 474 479 451 q 414 497 447 497 m 526 768 l 301 768 l 158 1014 l 443 1014 l 526 768 z "},"ē":{"ha":810,"x_min":28,"x_max":782,"o":"m 782 369 q 775 286 782 317 l 333 286 q 363 217 340 235 q 429 199 385 199 q 513 258 497 199 l 769 189 q 653 38 746 89 q 429 -14 561 -14 q 130 79 232 -14 q 28 347 28 172 q 128 614 28 519 q 413 708 229 708 q 687 617 592 708 q 782 369 782 525 m 414 497 q 358 476 378 497 q 333 404 339 456 l 483 404 q 463 474 479 451 q 414 497 447 497 m 681 765 l 142 765 l 142 946 l 681 946 l 681 765 z "},"ę":{"ha":810,"x_min":28,"x_max":782,"o":"m 782 369 q 775 286 782 317 l 333 286 q 363 217 340 235 q 429 199 385 199 q 513 258 497 199 l 769 189 q 691 63 751 111 q 539 -4 631 14 q 484 -36 501 -19 q 467 -78 467 -53 q 485 -117 467 -103 q 535 -131 503 -131 q 590 -119 572 -131 l 628 -262 q 557 -290 596 -282 q 464 -299 518 -299 q 312 -258 371 -299 q 253 -133 253 -217 q 325 -7 253 -54 q 103 107 178 17 q 28 347 28 197 q 128 614 28 519 q 413 708 229 708 q 687 617 592 708 q 782 369 782 525 m 414 497 q 358 476 378 497 q 333 404 339 456 l 483 404 q 463 474 479 451 q 414 497 447 497 z "},"f":{"ha":597,"x_min":4,"x_max":601,"o":"m 394 694 l 592 694 l 592 479 l 417 479 l 417 0 l 97 0 l 97 479 l 4 479 l 4 694 l 97 694 l 97 722 q 188 934 97 868 q 414 1000 278 1000 q 601 954 542 1000 l 581 769 q 547 786 565 781 q 501 792 529 792 q 422 772 449 792 q 394 706 394 753 l 394 694 z "},"g":{"ha":803,"x_min":11,"x_max":813,"o":"m 531 197 q 813 -39 813 197 q 703 -234 813 -169 q 390 -299 594 -299 q 101 -261 192 -299 q 11 -149 11 -224 q 42 -69 11 -103 q 146 -21 74 -35 q 29 135 29 25 q 61 222 29 183 q 147 281 93 261 q 28 471 28 339 q 403 708 28 708 q 539 699 482 708 q 599 857 549 793 q 744 921 649 921 q 775 919 764 921 l 801 722 q 751 728 778 728 q 683 712 711 728 q 642 671 656 696 q 778 471 778 614 q 403 236 778 236 q 249 249 315 236 q 231 226 231 243 q 290 197 231 197 l 531 197 m 403 543 q 360 524 375 543 q 344 472 344 506 q 360 420 344 439 q 403 401 375 401 q 446 420 431 401 q 461 472 461 439 q 446 524 461 506 q 403 543 431 543 m 410 -106 q 533 -97 494 -106 q 571 -71 571 -89 q 560 -55 571 -60 q 521 -50 549 -50 l 328 -50 q 259 -55 276 -50 q 242 -74 242 -60 q 281 -98 242 -90 q 410 -106 319 -106 z "},"ğ":{"ha":803,"x_min":11,"x_max":829,"o":"m 401 750 q 214 813 281 750 q 147 990 147 876 l 340 990 q 401 914 340 914 q 463 990 463 914 l 656 990 q 589 813 656 876 q 401 750 522 750 m 531 197 q 813 -39 813 197 q 703 -234 813 -169 q 390 -299 594 -299 q 101 -261 192 -299 q 11 -149 11 -224 q 42 -69 11 -103 q 146 -21 74 -35 q 29 135 29 25 q 61 222 29 183 q 147 281 93 261 q 28 471 28 339 q 403 708 28 708 q 601 685 518 708 q 628 801 601 747 q 701 888 656 856 q 803 919 747 919 l 829 722 q 806 724 821 724 q 733 703 763 724 q 692 644 703 683 q 778 471 778 583 q 403 236 778 236 q 249 249 315 236 q 231 226 231 243 q 290 197 231 197 l 531 197 m 403 543 q 360 524 375 543 q 344 472 344 506 q 360 420 344 439 q 403 401 375 401 q 446 420 431 401 q 461 472 461 439 q 446 524 461 506 q 403 543 431 543 m 410 -106 q 533 -97 494 -106 q 571 -71 571 -89 q 560 -55 571 -60 q 521 -50 549 -50 l 328 -50 q 259 -55 276 -50 q 242 -74 242 -60 q 281 -98 242 -90 q 410 -106 319 -106 z "},"h":{"ha":861,"x_min":54,"x_max":808,"o":"m 590 708 q 751 647 693 708 q 808 475 808 586 l 808 0 l 489 0 l 489 392 q 478 456 489 438 q 440 474 467 474 q 390 447 406 474 q 374 364 374 421 l 374 0 l 54 0 l 54 972 l 374 972 l 374 553 q 457 669 401 629 q 590 708 513 708 z "},"i":{"ha":428,"x_min":40,"x_max":388,"o":"m 214 739 q 80 769 119 739 q 40 872 40 800 q 80 975 40 944 q 214 1006 119 1006 q 348 975 308 1006 q 388 872 388 944 q 348 769 388 800 q 214 739 308 739 m 374 0 l 54 0 l 54 694 l 374 694 l 374 0 z "},"ı":{"ha":428,"x_min":54,"x_max":374,"o":"m 374 0 l 54 0 l 54 694 l 374 694 l 374 0 z "},"í":{"ha":428,"x_min":54,"x_max":450,"o":"m 374 0 l 54 0 l 54 694 l 374 694 l 374 0 m 450 1014 l 307 768 l 82 768 l 165 1014 l 450 1014 z "},"î":{"ha":428,"x_min":-82,"x_max":510,"o":"m 374 0 l 54 0 l 54 694 l 374 694 l 374 0 m 293 760 l 214 858 l 135 760 l -82 760 l 65 1006 l 363 1006 l 510 760 l 293 760 z "},"ï":{"ha":428,"x_min":-68,"x_max":496,"o":"m 65 743 q -68 874 -68 743 q 65 1004 -68 1004 q 199 874 199 1004 q 65 743 199 743 m 363 743 q 229 874 229 743 q 363 1004 229 1004 q 496 874 496 1004 q 363 743 496 743 m 374 0 l 54 0 l 54 694 l 374 694 l 374 0 z "},"ì":{"ha":428,"x_min":-39,"x_max":374,"o":"m 374 0 l 54 0 l 54 694 l 374 694 l 374 0 m 329 768 l 104 768 l -39 1014 l 246 1014 l 329 768 z "},"ĳ":{"ha":853,"x_min":40,"x_max":815,"o":"m 214 739 q 80 769 119 739 q 40 872 40 800 q 80 975 40 944 q 214 1006 119 1006 q 348 975 308 1006 q 388 872 388 944 q 348 769 388 800 q 214 739 308 739 m 374 0 l 54 0 l 54 694 l 374 694 l 374 0 m 640 1006 q 776 976 738 1006 q 815 872 815 946 q 776 769 815 799 q 640 739 738 739 q 507 769 546 739 q 468 872 468 799 q 507 976 468 946 q 640 1006 546 1006 m 801 -18 q 728 -232 801 -165 q 494 -299 656 -299 q 283 -256 364 -299 l 322 -71 q 393 -89 347 -89 q 460 -65 438 -89 q 482 10 482 -42 l 482 694 l 801 694 l 801 -18 z "},"ī":{"ha":428,"x_min":-1,"x_max":429,"o":"m 429 765 l -1 765 l -1 946 l 429 946 l 429 765 m 374 0 l 54 0 l 54 694 l 374 694 l 374 0 z "},"į":{"ha":428,"x_min":3,"x_max":388,"o":"m 214 739 q 80 769 119 739 q 40 872 40 800 q 80 975 40 944 q 214 1006 119 1006 q 348 975 308 1006 q 388 872 388 944 q 348 769 388 800 q 214 739 308 739 m 285 -131 q 340 -119 322 -131 l 378 -262 q 307 -290 346 -282 q 214 -299 268 -299 q 62 -258 121 -299 q 3 -133 3 -217 q 81 0 3 -49 l 54 0 l 54 694 l 374 694 l 374 0 q 260 -22 303 0 q 217 -78 217 -44 q 235 -117 217 -103 q 285 -131 253 -131 z "},"j":{"ha":425,"x_min":-144,"x_max":388,"o":"m 213 1006 q 349 976 310 1006 q 388 872 388 946 q 349 769 388 799 q 213 739 310 739 q 79 769 118 739 q 40 872 40 799 q 79 976 40 946 q 213 1006 118 1006 m 374 -18 q 301 -232 374 -165 q 67 -299 228 -299 q -144 -256 -64 -299 l -106 -71 q -35 -89 -81 -89 q 32 -65 10 -89 q 54 10 54 -42 l 54 694 l 374 694 l 374 -18 z "},"k":{"ha":914,"x_min":54,"x_max":935,"o":"m 463 243 l 374 135 l 374 0 l 54 0 l 54 972 l 374 972 l 374 449 l 576 694 l 919 694 l 672 422 l 935 0 l 588 0 l 463 243 z "},"l":{"ha":474,"x_min":54,"x_max":481,"o":"m 374 276 q 386 215 374 233 q 431 196 399 196 q 481 203 456 196 l 467 31 q 392 -1 442 11 q 294 -14 342 -14 q 110 42 165 -14 q 54 228 54 97 l 54 972 l 374 972 l 374 276 z "},"ĺ":{"ha":474,"x_min":54,"x_max":481,"o":"m 453 1268 l 326 1036 l 101 1036 l 182 1268 l 453 1268 m 374 276 q 386 215 374 233 q 431 196 399 196 q 481 203 456 196 l 467 31 q 392 -1 442 11 q 294 -14 342 -14 q 110 42 165 -14 q 54 228 54 97 l 54 972 l 374 972 l 374 276 z "},"ľ":{"ha":613,"x_min":54,"x_max":669,"o":"m 374 276 q 386 215 374 233 q 431 196 399 196 q 481 203 456 196 l 467 31 q 392 -1 442 11 q 294 -14 342 -14 q 110 42 165 -14 q 54 228 54 97 l 54 972 l 374 972 l 374 276 m 585 601 l 410 601 l 440 972 l 669 972 l 585 601 z "},"ŀ":{"ha":774,"x_min":54,"x_max":774,"o":"m 374 276 q 386 215 374 233 q 431 196 399 196 q 481 203 456 196 l 467 31 q 392 -1 442 11 q 294 -14 342 -14 q 110 42 165 -14 q 54 228 54 97 l 54 972 l 374 972 l 374 276 m 603 638 q 729 599 685 638 q 774 489 774 560 q 729 379 774 418 q 603 340 685 340 q 476 379 521 340 q 432 489 432 418 q 476 599 432 560 q 603 638 521 638 z "},"ł":{"ha":568,"x_min":-3,"x_max":558,"o":"m 428 456 l 428 276 q 440 215 428 233 q 485 196 453 196 q 535 203 510 196 l 521 31 q 446 -1 496 11 q 349 -14 396 -14 q 164 42 219 -14 q 108 228 108 97 l 108 274 l -3 201 l -3 413 l 108 458 l 108 972 l 428 972 l 428 633 l 558 719 l 558 507 l 428 456 z "},"m":{"ha":1296,"x_min":54,"x_max":1243,"o":"m 1025 708 q 1185 647 1128 708 q 1243 475 1243 586 l 1243 0 l 924 0 l 924 392 q 913 455 924 438 q 875 472 901 472 q 824 446 840 472 q 808 364 808 419 l 808 0 l 489 0 l 489 392 q 478 455 489 438 q 440 472 467 472 q 390 446 406 472 q 374 364 374 419 l 374 0 l 54 0 l 54 694 l 342 694 l 349 543 q 440 666 379 624 q 590 708 501 708 q 722 672 669 708 q 796 569 774 636 q 887 673 829 638 q 1025 708 944 708 z "},"n":{"ha":861,"x_min":54,"x_max":808,"o":"m 590 708 q 751 647 693 708 q 808 475 808 586 l 808 0 l 489 0 l 489 392 q 478 455 489 438 q 440 472 467 472 q 390 446 406 472 q 374 364 374 419 l 374 0 l 54 0 l 54 694 l 342 694 l 349 543 q 440 666 379 624 q 590 708 501 708 z "},"ń":{"ha":861,"x_min":54,"x_max":808,"o":"m 590 708 q 751 647 693 708 q 808 475 808 586 l 808 0 l 489 0 l 489 392 q 478 455 489 438 q 440 472 467 472 q 390 446 406 472 q 374 364 374 419 l 374 0 l 54 0 l 54 694 l 342 694 l 349 543 q 440 666 379 624 q 590 708 501 708 m 665 1014 l 522 768 l 297 768 l 381 1014 l 665 1014 z "},"ň":{"ha":861,"x_min":54,"x_max":808,"o":"m 590 708 q 751 647 693 708 q 808 475 808 586 l 808 0 l 489 0 l 489 392 q 478 455 489 438 q 440 472 467 472 q 390 446 406 472 q 374 364 374 419 l 374 0 l 54 0 l 54 694 l 342 694 l 349 543 q 440 666 379 624 q 590 708 501 708 m 569 768 l 272 768 l 125 1014 l 342 1014 l 421 915 l 500 1014 l 717 1014 l 569 768 z "},"ñ":{"ha":861,"x_min":54,"x_max":808,"o":"m 590 708 q 751 647 693 708 q 808 475 808 586 l 808 0 l 489 0 l 489 392 q 478 455 489 438 q 440 472 467 472 q 390 446 406 472 q 374 364 374 419 l 374 0 l 54 0 l 54 694 l 342 694 l 349 543 q 440 666 379 624 q 590 708 501 708 m 721 999 q 518 754 715 754 q 450 765 475 754 q 396 799 425 776 q 369 817 381 811 q 343 824 357 824 q 301 757 307 824 l 138 757 q 340 1001 143 1001 q 408 990 383 1001 q 463 957 433 979 q 490 938 478 944 q 515 932 501 932 q 544 948 535 932 q 557 999 554 964 l 721 999 z "},"o":{"ha":831,"x_min":28,"x_max":803,"o":"m 415 708 q 701 614 600 708 q 803 347 803 519 q 701 81 803 175 q 415 -14 600 -14 q 129 81 231 -14 q 28 347 28 175 q 129 614 28 519 q 415 708 231 708 m 415 493 q 374 481 388 493 q 354 438 360 468 q 349 347 349 407 q 354 257 349 288 q 374 214 360 226 q 415 201 388 201 q 457 214 443 201 q 476 257 471 226 q 482 347 482 288 q 476 438 482 407 q 457 481 471 468 q 415 493 443 493 z "},"ó":{"ha":831,"x_min":28,"x_max":803,"o":"m 415 708 q 701 614 600 708 q 803 347 803 519 q 701 81 803 175 q 415 -14 600 -14 q 129 81 231 -14 q 28 347 28 175 q 129 614 28 519 q 415 708 231 708 m 415 493 q 374 481 388 493 q 354 438 360 468 q 349 347 349 407 q 354 257 349 288 q 374 214 360 226 q 415 201 388 201 q 457 214 443 201 q 476 257 471 226 q 482 347 482 288 q 476 438 482 407 q 457 481 471 468 q 415 493 443 493 m 651 1014 l 508 768 l 283 768 l 367 1014 l 651 1014 z "},"ô":{"ha":831,"x_min":28,"x_max":803,"o":"m 415 708 q 701 614 600 708 q 803 347 803 519 q 701 81 803 175 q 415 -14 600 -14 q 129 81 231 -14 q 28 347 28 175 q 129 614 28 519 q 415 708 231 708 m 415 493 q 374 481 388 493 q 354 438 360 468 q 349 347 349 407 q 354 257 349 288 q 374 214 360 226 q 415 201 388 201 q 457 214 443 201 q 476 257 471 226 q 482 347 482 288 q 476 438 482 407 q 457 481 471 468 q 415 493 443 493 m 494 760 l 415 858 l 336 760 l 119 760 l 267 1006 l 564 1006 l 711 760 l 494 760 z "},"ö":{"ha":831,"x_min":28,"x_max":803,"o":"m 415 708 q 701 614 600 708 q 803 347 803 519 q 701 81 803 175 q 415 -14 600 -14 q 129 81 231 -14 q 28 347 28 175 q 129 614 28 519 q 415 708 231 708 m 415 493 q 374 481 388 493 q 354 438 360 468 q 349 347 349 407 q 354 257 349 288 q 374 214 360 226 q 415 201 388 201 q 457 214 443 201 q 476 257 471 226 q 482 347 482 288 q 476 438 482 407 q 457 481 471 468 q 415 493 443 493 m 249 1000 q 356 967 318 1000 q 394 874 394 935 q 356 780 394 813 q 249 747 318 747 q 144 781 181 747 q 107 874 107 814 q 144 967 107 933 q 249 1000 181 1000 m 578 1000 q 685 967 647 1000 q 724 874 724 935 q 685 780 724 813 q 578 747 647 747 q 473 781 510 747 q 436 874 436 814 q 473 967 436 933 q 578 1000 510 1000 z "},"ò":{"ha":831,"x_min":28,"x_max":803,"o":"m 415 708 q 701 614 600 708 q 803 347 803 519 q 701 81 803 175 q 415 -14 600 -14 q 129 81 231 -14 q 28 347 28 175 q 129 614 28 519 q 415 708 231 708 m 415 493 q 374 481 388 493 q 354 438 360 468 q 349 347 349 407 q 354 257 349 288 q 374 214 360 226 q 415 201 388 201 q 457 214 443 201 q 476 257 471 226 q 482 347 482 288 q 476 438 482 407 q 457 481 471 468 q 415 493 443 493 m 531 768 l 306 768 l 163 1014 l 447 1014 l 531 768 z "},"ő":{"ha":831,"x_min":28,"x_max":803,"o":"m 415 708 q 701 614 600 708 q 803 347 803 519 q 701 81 803 175 q 415 -14 600 -14 q 129 81 231 -14 q 28 347 28 175 q 129 614 28 519 q 415 708 231 708 m 415 493 q 374 481 388 493 q 354 438 360 468 q 349 347 349 407 q 354 257 349 288 q 374 214 360 226 q 415 201 388 201 q 457 214 443 201 q 476 257 471 226 q 482 347 482 288 q 476 438 482 407 q 457 481 471 468 q 415 493 443 493 m 346 768 l 133 768 l 224 1014 l 475 1014 l 346 768 m 674 768 l 461 768 l 551 1014 l 803 1014 l 674 768 z "},"ō":{"ha":831,"x_min":28,"x_max":803,"o":"m 415 708 q 701 614 600 708 q 803 347 803 519 q 701 81 803 175 q 415 -14 600 -14 q 129 81 231 -14 q 28 347 28 175 q 129 614 28 519 q 415 708 231 708 m 415 493 q 374 481 388 493 q 354 438 360 468 q 349 347 349 407 q 354 257 349 288 q 374 214 360 226 q 415 201 388 201 q 457 214 443 201 q 476 257 471 226 q 482 347 482 288 q 476 438 482 407 q 457 481 471 468 q 415 493 443 493 m 685 765 l 146 765 l 146 946 l 685 946 l 685 765 z "},"ø":{"ha":831,"x_min":28,"x_max":803,"o":"m 415 708 q 642 657 547 708 l 693 722 l 786 722 l 700 615 q 803 347 803 521 q 701 81 803 175 q 415 -14 600 -14 q 200 32 288 -14 l 154 -29 l 61 -29 l 139 72 q 28 347 28 167 q 129 614 28 519 q 415 708 231 708 m 350 303 l 371 338 l 467 467 q 415 493 454 493 q 374 481 388 493 q 354 438 360 468 q 349 347 349 407 l 349 303 l 350 303 m 415 201 q 457 214 443 201 q 476 257 471 226 q 482 347 482 288 l 482 374 l 481 374 l 460 340 l 369 219 q 415 201 382 201 z "},"õ":{"ha":831,"x_min":28,"x_max":803,"o":"m 415 708 q 701 614 600 708 q 803 347 803 519 q 701 81 803 175 q 415 -14 600 -14 q 129 81 231 -14 q 28 347 28 175 q 129 614 28 519 q 415 708 231 708 m 415 493 q 374 481 388 493 q 354 438 360 468 q 349 347 349 407 q 354 257 349 288 q 374 214 360 226 q 415 201 388 201 q 457 214 443 201 q 476 257 471 226 q 482 347 482 288 q 476 438 482 407 q 457 481 471 468 q 415 493 443 493 m 707 999 q 504 754 701 754 q 436 765 461 754 q 382 799 411 776 q 355 817 367 811 q 329 824 343 824 q 288 757 293 824 l 124 757 q 326 1001 129 1001 q 394 990 369 1001 q 449 957 419 979 q 476 938 464 944 q 501 932 488 932 q 531 948 521 932 q 543 999 540 964 l 707 999 z "},"œ":{"ha":1292,"x_min":28,"x_max":1264,"o":"m 1264 369 q 1257 286 1264 317 l 815 286 q 844 217 822 235 q 911 199 867 199 q 994 258 979 199 l 1251 189 q 1135 38 1228 89 q 911 -14 1043 -14 q 656 89 742 -14 q 396 -14 568 -14 q 126 81 225 -14 q 28 347 28 176 q 126 613 28 518 q 396 708 225 708 q 654 606 568 708 q 894 708 738 708 q 1169 617 1074 708 q 1264 369 1264 525 m 896 497 q 840 476 860 497 q 815 404 821 456 l 965 404 q 945 474 961 451 q 896 497 929 497 m 415 201 q 457 213 443 201 q 476 256 471 225 q 482 347 482 288 q 476 438 482 407 q 456 482 471 469 q 415 494 442 494 q 375 482 389 494 q 356 438 361 469 q 350 347 350 407 q 356 256 350 288 q 375 213 361 225 q 415 201 389 201 z "},"p":{"ha":871,"x_min":54,"x_max":836,"o":"m 571 708 q 767 615 699 708 q 836 351 836 522 q 766 82 836 178 q 569 -14 696 -14 q 450 21 499 -14 q 374 117 401 56 l 374 -292 l 54 -292 l 54 694 l 335 694 l 343 532 q 428 661 369 614 q 571 708 488 708 m 442 211 q 496 240 478 211 q 514 347 514 269 q 496 455 514 425 q 442 485 478 485 q 391 453 408 485 q 374 353 374 422 l 374 342 q 390 243 374 275 q 442 211 407 211 z "},"þ":{"ha":871,"x_min":54,"x_max":836,"o":"m 581 708 q 709 672 651 708 q 801 556 767 635 q 836 358 836 478 q 793 132 836 215 q 690 17 750 49 q 568 -14 629 -14 q 374 107 432 -14 l 374 -292 l 54 -292 l 54 972 l 374 972 l 374 557 q 451 668 400 628 q 581 708 503 708 m 442 211 q 499 239 483 211 q 514 347 514 267 q 499 456 514 428 q 442 485 483 485 q 391 453 408 485 q 374 353 374 422 l 374 342 q 390 243 374 275 q 442 211 407 211 z "},"q":{"ha":871,"x_min":35,"x_max":817,"o":"m 817 694 l 817 -292 l 497 -292 l 497 117 q 421 21 469 56 q 301 -14 372 -14 q 105 82 175 -14 q 35 351 35 178 q 103 615 35 522 q 300 708 172 708 q 442 661 383 708 q 528 532 501 614 l 536 694 l 817 694 m 429 211 q 481 243 464 211 q 497 342 497 275 l 497 353 q 480 453 497 422 q 429 485 463 485 q 375 455 393 485 q 357 347 357 425 q 375 240 357 269 q 429 211 393 211 z "},"r":{"ha":617,"x_min":54,"x_max":625,"o":"m 553 708 q 625 692 601 708 l 599 431 q 563 447 586 440 q 511 453 539 453 q 410 422 447 453 q 374 333 374 392 l 374 0 l 54 0 l 54 694 l 342 694 l 349 521 q 553 708 399 708 z "},"ŕ":{"ha":617,"x_min":54,"x_max":625,"o":"m 553 708 q 625 692 601 708 l 599 431 q 563 447 586 440 q 511 453 539 453 q 410 422 447 453 q 374 333 374 392 l 374 0 l 54 0 l 54 694 l 342 694 l 349 521 q 553 708 399 708 m 571 1014 l 428 768 l 203 768 l 286 1014 l 571 1014 z "},"ř":{"ha":617,"x_min":31,"x_max":625,"o":"m 553 708 q 625 692 601 708 l 599 431 q 563 447 586 440 q 511 453 539 453 q 410 422 447 453 q 374 333 374 392 l 374 0 l 54 0 l 54 694 l 342 694 l 349 521 q 553 708 399 708 m 475 768 l 178 768 l 31 1014 l 247 1014 l 326 915 l 406 1014 l 622 1014 l 475 768 z "},"s":{"ha":746,"x_min":8,"x_max":735,"o":"m 376 -14 q 158 10 247 -14 q 8 89 69 35 l 149 258 q 242 200 189 222 q 353 178 294 178 q 397 183 379 178 q 414 199 414 188 q 390 222 414 211 q 310 243 367 232 q 91 327 160 272 q 22 467 22 382 q 63 583 22 528 q 189 673 104 638 q 399 708 274 708 q 603 679 521 708 q 733 607 686 650 l 603 453 q 414 517 539 517 q 360 510 376 517 q 343 492 343 503 q 428 464 343 475 q 661 387 588 442 q 735 236 735 332 q 646 57 735 128 q 376 -14 557 -14 z "},"ś":{"ha":746,"x_min":8,"x_max":735,"o":"m 376 -14 q 158 10 247 -14 q 8 89 69 35 l 149 258 q 242 200 189 222 q 353 178 294 178 q 397 183 379 178 q 414 199 414 188 q 390 222 414 211 q 310 243 367 232 q 91 327 160 272 q 22 467 22 382 q 63 583 22 528 q 189 673 104 638 q 399 708 274 708 q 603 679 521 708 q 733 607 686 650 l 603 453 q 414 517 539 517 q 360 510 376 517 q 343 492 343 503 q 428 464 343 475 q 661 387 588 442 q 735 236 735 332 q 646 57 735 128 q 376 -14 557 -14 m 628 1014 l 485 768 l 260 768 l 343 1014 l 628 1014 z "},"š":{"ha":746,"x_min":8,"x_max":735,"o":"m 376 -14 q 158 10 247 -14 q 8 89 69 35 l 149 258 q 242 200 189 222 q 353 178 294 178 q 397 183 379 178 q 414 199 414 188 q 390 222 414 211 q 310 243 367 232 q 91 327 160 272 q 22 467 22 382 q 63 583 22 528 q 189 673 104 638 q 399 708 274 708 q 603 679 521 708 q 733 607 686 650 l 603 453 q 414 517 539 517 q 360 510 376 517 q 343 492 343 503 q 428 464 343 475 q 661 387 588 442 q 735 236 735 332 q 646 57 735 128 q 376 -14 557 -14 m 532 768 l 235 768 l 88 1014 l 304 1014 l 383 915 l 463 1014 l 679 1014 l 532 768 z "},"ß":{"ha":925,"x_min":54,"x_max":901,"o":"m 657 479 q 833 416 765 479 q 901 243 901 353 q 869 114 901 172 q 767 21 836 56 q 596 -14 699 -14 q 407 31 475 -14 l 449 232 q 480 208 464 215 q 522 201 496 201 q 575 224 556 201 q 594 289 594 247 q 572 348 594 328 q 507 368 550 368 l 431 368 l 469 579 l 506 579 q 560 606 540 581 q 579 675 579 631 q 556 740 579 717 q 493 764 532 764 q 401 726 428 764 q 374 599 374 689 l 374 0 l 54 0 l 54 607 q 159 885 54 792 q 494 979 264 979 q 783 906 681 979 q 886 704 886 832 q 858 593 886 644 q 777 512 829 542 q 657 482 725 482 l 657 479 z "},"ſ":{"ha":513,"x_min":54,"x_max":524,"o":"m 54 722 q 144 934 54 868 q 371 1000 235 1000 q 460 992 425 1000 q 524 964 496 983 l 515 778 q 490 789 503 786 q 458 792 478 792 q 389 769 415 792 q 363 701 363 747 l 363 0 l 54 0 l 54 722 z "},"t":{"ha":618,"x_min":1,"x_max":613,"o":"m 613 33 q 519 -1 578 13 q 406 -14 460 -14 q 182 44 256 -14 q 108 233 108 101 l 108 479 l 1 479 l 1 694 l 108 694 l 108 842 l 428 931 l 428 694 l 603 694 l 603 479 l 428 479 l 428 283 q 448 216 428 236 q 511 196 468 196 q 599 214 563 196 l 613 33 z "},"ť":{"ha":618,"x_min":1,"x_max":739,"o":"m 739 1065 l 654 750 l 479 750 l 510 1065 l 739 1065 m 511 196 q 599 214 563 196 l 613 33 q 519 -1 578 13 q 406 -14 460 -14 q 182 44 256 -14 q 108 233 108 101 l 108 479 l 1 479 l 1 694 l 108 694 l 108 842 l 428 931 l 428 694 l 603 694 l 603 479 l 428 479 l 428 283 q 448 216 428 236 q 511 196 468 196 z "},"u":{"ha":861,"x_min":53,"x_max":807,"o":"m 807 694 l 807 0 l 519 0 l 513 147 q 423 26 482 67 q 278 -14 364 -14 q 110 44 167 -14 q 53 225 53 101 l 53 694 l 372 694 l 372 304 q 384 240 372 258 q 424 222 396 222 q 488 332 488 222 l 488 694 l 807 694 z "},"ú":{"ha":861,"x_min":53,"x_max":807,"o":"m 807 694 l 807 0 l 519 0 l 513 147 q 423 26 482 67 q 278 -14 364 -14 q 110 44 167 -14 q 53 225 53 101 l 53 694 l 372 694 l 372 304 q 384 240 372 258 q 424 222 396 222 q 488 332 488 222 l 488 694 l 807 694 m 658 1014 l 515 768 l 290 768 l 374 1014 l 658 1014 z "},"û":{"ha":861,"x_min":53,"x_max":807,"o":"m 807 694 l 807 0 l 519 0 l 513 147 q 423 26 482 67 q 278 -14 364 -14 q 110 44 167 -14 q 53 225 53 101 l 53 694 l 372 694 l 372 304 q 384 240 372 258 q 424 222 396 222 q 488 332 488 222 l 488 694 l 807 694 m 501 760 l 422 858 l 343 760 l 126 760 l 274 1006 l 571 1006 l 718 760 l 501 760 z "},"ü":{"ha":861,"x_min":53,"x_max":807,"o":"m 807 694 l 807 0 l 519 0 l 513 147 q 423 26 482 67 q 278 -14 364 -14 q 110 44 167 -14 q 53 225 53 101 l 53 694 l 372 694 l 372 304 q 384 240 372 258 q 424 222 396 222 q 488 332 488 222 l 488 694 l 807 694 m 256 1000 q 363 967 325 1000 q 401 874 401 935 q 363 780 401 813 q 256 747 325 747 q 151 781 188 747 q 114 874 114 814 q 151 967 114 933 q 256 1000 188 1000 m 585 1000 q 692 967 654 1000 q 731 874 731 935 q 692 780 731 813 q 585 747 654 747 q 480 781 517 747 q 443 874 443 814 q 480 967 443 933 q 585 1000 517 1000 z "},"ù":{"ha":861,"x_min":53,"x_max":807,"o":"m 807 694 l 807 0 l 519 0 l 513 147 q 423 26 482 67 q 278 -14 364 -14 q 110 44 167 -14 q 53 225 53 101 l 53 694 l 372 694 l 372 304 q 384 240 372 258 q 424 222 396 222 q 488 332 488 222 l 488 694 l 807 694 m 538 768 l 313 768 l 169 1014 l 454 1014 l 538 768 z "},"ű":{"ha":861,"x_min":53,"x_max":810,"o":"m 807 694 l 807 0 l 519 0 l 513 147 q 423 26 482 67 q 278 -14 364 -14 q 110 44 167 -14 q 53 225 53 101 l 53 694 l 372 694 l 372 304 q 384 240 372 258 q 424 222 396 222 q 488 332 488 222 l 488 694 l 807 694 m 353 768 l 140 768 l 231 1014 l 482 1014 l 353 768 m 681 768 l 468 768 l 558 1014 l 810 1014 l 681 768 z "},"ū":{"ha":861,"x_min":53,"x_max":807,"o":"m 807 694 l 807 0 l 519 0 l 513 147 q 423 26 482 67 q 278 -14 364 -14 q 110 44 167 -14 q 53 225 53 101 l 53 694 l 372 694 l 372 304 q 384 240 372 258 q 424 222 396 222 q 488 332 488 222 l 488 694 l 807 694 m 692 765 l 153 765 l 153 946 l 692 946 l 692 765 z "},"ģ":{"ha":803,"x_min":11,"x_max":813,"o":"m 513 760 l 265 760 l 364 1067 l 557 1067 l 513 760 m 531 197 q 813 -39 813 197 q 703 -234 813 -169 q 390 -299 594 -299 q 101 -261 192 -299 q 11 -149 11 -224 q 42 -69 11 -103 q 146 -21 74 -35 q 29 135 29 25 q 61 222 29 183 q 147 281 93 261 q 28 471 28 339 q 403 708 28 708 q 539 699 482 708 q 599 857 549 793 q 744 921 649 921 q 775 919 764 921 l 801 722 q 751 728 778 728 q 683 712 711 728 q 642 671 656 696 q 778 471 778 614 q 403 236 778 236 q 249 249 315 236 q 231 226 231 243 q 290 197 231 197 l 531 197 m 403 543 q 360 524 375 543 q 344 472 344 506 q 360 420 344 439 q 403 401 375 401 q 446 420 431 401 q 461 472 461 439 q 446 524 461 506 q 403 543 431 543 m 410 -106 q 533 -97 494 -106 q 571 -71 571 -89 q 560 -55 571 -60 q 521 -50 549 -50 l 328 -50 q 259 -55 276 -50 q 242 -74 242 -60 q 281 -98 242 -90 q 410 -106 319 -106 z "},"ķ":{"ha":914,"x_min":54,"x_max":935,"o":"m 463 243 l 374 135 l 374 0 l 54 0 l 54 972 l 374 972 l 374 449 l 576 694 l 919 694 l 672 422 l 935 0 l 588 0 l 463 243 m 517 -337 l 319 -337 l 353 -69 l 621 -69 l 517 -337 z "},"ļ":{"ha":474,"x_min":54,"x_max":481,"o":"m 374 276 q 386 215 374 233 q 431 196 399 196 q 481 203 456 196 l 467 31 q 392 -1 442 11 q 294 -14 342 -14 q 110 42 165 -14 q 54 228 54 97 l 54 972 l 374 972 l 374 276 m 290 -337 l 93 -337 l 126 -69 l 394 -69 l 290 -337 z "},"ņ":{"ha":861,"x_min":54,"x_max":808,"o":"m 590 708 q 751 647 693 708 q 808 475 808 586 l 808 0 l 489 0 l 489 392 q 478 455 489 438 q 440 472 467 472 q 390 446 406 472 q 374 364 374 419 l 374 0 l 54 0 l 54 694 l 342 694 l 349 543 q 440 666 379 624 q 590 708 501 708 m 469 -337 l 272 -337 l 306 -69 l 574 -69 l 469 -337 z "},"ŗ":{"ha":617,"x_min":49,"x_max":625,"o":"m 553 708 q 625 692 601 708 l 599 431 q 563 447 586 440 q 511 453 539 453 q 410 422 447 453 q 374 333 374 392 l 374 0 l 54 0 l 54 694 l 342 694 l 349 521 q 553 708 399 708 m 246 -337 l 49 -337 l 82 -69 l 350 -69 l 246 -337 z "},"ş":{"ha":746,"x_min":8,"x_max":735,"o":"m 735 236 q 678 87 735 151 q 507 -1 621 22 q 575 -125 575 -49 q 514 -258 575 -217 q 351 -299 453 -299 q 238 -282 282 -299 q 165 -237 194 -265 l 228 -106 q 331 -144 267 -144 q 385 -128 365 -144 q 406 -83 406 -112 q 331 -12 406 -36 q 142 15 221 -10 q 8 89 64 39 l 149 258 q 242 200 189 222 q 353 178 294 178 q 397 183 379 178 q 414 199 414 188 q 390 222 414 211 q 310 243 367 232 q 91 327 160 272 q 22 467 22 382 q 63 583 22 528 q 189 673 104 638 q 399 708 274 708 q 603 679 521 708 q 733 607 686 650 l 603 453 q 414 517 539 517 q 360 510 376 517 q 343 492 343 503 q 428 464 343 475 q 661 387 588 442 q 735 236 735 332 z "},"ţ":{"ha":618,"x_min":1,"x_max":613,"o":"m 489 -7 q 551 -125 551 -57 q 490 -258 551 -217 q 328 -299 429 -299 q 215 -283 258 -299 q 142 -239 171 -267 l 206 -106 q 301 -144 242 -144 q 361 -128 340 -144 q 382 -82 382 -112 q 366 -37 382 -54 q 310 -7 350 -19 q 254 6 278 -3 l 249 7 q 143 87 178 32 q 108 233 108 142 l 108 479 l 1 479 l 1 694 l 108 694 l 108 842 l 428 931 l 428 694 l 603 694 l 603 479 l 428 479 l 428 283 q 448 216 428 236 q 511 196 468 196 q 599 214 563 196 l 613 33 q 489 -7 571 7 z "},"ș":{"ha":746,"x_min":8,"x_max":735,"o":"m 376 -14 q 158 10 247 -14 q 8 89 69 35 l 149 258 q 242 200 189 222 q 353 178 294 178 q 397 183 379 178 q 414 199 414 188 q 390 222 414 211 q 310 243 367 232 q 91 327 160 272 q 22 467 22 382 q 63 583 22 528 q 189 673 104 638 q 399 708 274 708 q 603 679 521 708 q 733 607 686 650 l 603 453 q 414 517 539 517 q 360 510 376 517 q 343 492 343 503 q 428 464 343 475 q 661 387 588 442 q 735 236 735 332 q 646 57 735 128 q 376 -14 557 -14 m 428 -337 l 231 -337 l 264 -69 l 532 -69 l 428 -337 z "},"ț":{"ha":618,"x_min":1,"x_max":613,"o":"m 613 33 q 519 -1 578 13 q 406 -14 460 -14 q 182 44 256 -14 q 108 233 108 101 l 108 479 l 1 479 l 1 694 l 108 694 l 108 842 l 428 931 l 428 694 l 603 694 l 603 479 l 428 479 l 428 283 q 448 216 428 236 q 511 196 468 196 q 599 214 563 196 l 613 33 m 397 -337 l 200 -337 l 233 -69 l 501 -69 l 397 -337 z "},"ų":{"ha":861,"x_min":53,"x_max":811,"o":"m 811 -262 q 740 -290 779 -282 q 647 -299 701 -299 q 495 -258 554 -299 q 436 -133 436 -217 q 519 3 436 -43 l 513 147 q 423 26 482 67 q 278 -14 364 -14 q 110 44 167 -14 q 53 225 53 101 l 53 694 l 372 694 l 372 304 q 384 240 372 258 q 424 222 396 222 q 488 332 488 222 l 488 694 l 807 694 l 807 0 q 693 -22 736 0 q 650 -78 650 -44 q 668 -117 650 -103 q 718 -131 686 -131 q 774 -119 756 -131 l 811 -262 z "},"ů":{"ha":861,"x_min":53,"x_max":807,"o":"m 807 694 l 807 0 l 519 0 l 513 147 q 423 26 482 67 q 278 -14 364 -14 q 110 44 167 -14 q 53 225 53 101 l 53 694 l 372 694 l 372 304 q 384 240 372 258 q 424 222 396 222 q 488 332 488 222 l 488 694 l 807 694 m 426 1085 q 571 1040 519 1085 q 622 914 622 996 q 571 788 622 832 q 426 743 519 743 q 282 788 333 743 q 231 914 231 832 q 282 1040 231 996 q 426 1085 333 1085 m 426 968 q 385 954 400 968 q 371 914 371 940 q 385 874 371 888 q 426 860 400 860 q 467 874 453 860 q 482 914 482 888 q 467 954 482 940 q 426 968 453 968 z "},"v":{"ha":817,"x_min":-14,"x_max":831,"o":"m 607 0 l 210 0 l -14 694 l 317 694 l 381 353 l 406 188 l 411 188 l 436 354 l 500 694 l 831 694 l 607 0 z "},"w":{"ha":1308,"x_min":-12,"x_max":1321,"o":"m 1132 0 l 735 0 l 685 214 l 657 383 l 651 383 l 625 215 l 574 0 l 176 0 l -12 694 l 318 694 l 374 363 l 394 206 l 400 206 l 428 364 l 497 694 l 811 694 l 882 360 l 908 206 l 914 206 l 935 361 l 990 694 l 1321 694 l 1132 0 z "},"x":{"ha":871,"x_min":-15,"x_max":886,"o":"m 533 0 l 432 213 l 333 0 l -15 0 l 225 353 l -10 694 l 343 694 l 436 493 l 532 694 l 881 694 l 646 347 l 886 0 l 533 0 z "},"y":{"ha":825,"x_min":-11,"x_max":839,"o":"m 635 78 q 532 -144 588 -62 q 399 -262 476 -225 q 207 -299 321 -299 q -7 -253 78 -299 l 51 -51 q 100 -69 74 -64 q 175 -75 126 -75 q 241 -67 219 -75 q 271 -37 263 -58 l 275 -26 l 188 178 l -11 694 l 338 694 l 400 336 l 426 174 l 457 338 l 526 694 l 839 694 l 635 78 z "},"ý":{"ha":825,"x_min":-11,"x_max":839,"o":"m 635 78 q 532 -144 588 -62 q 399 -262 476 -225 q 207 -299 321 -299 q -7 -253 78 -299 l 51 -51 q 100 -69 74 -64 q 175 -75 126 -75 q 241 -67 219 -75 q 271 -37 263 -58 l 275 -26 l 188 178 l -11 694 l 338 694 l 400 336 l 426 174 l 457 338 l 526 694 l 839 694 l 635 78 m 685 1014 l 542 768 l 317 768 l 400 1014 l 685 1014 z "},"ÿ":{"ha":825,"x_min":-11,"x_max":839,"o":"m 635 78 q 532 -144 588 -62 q 399 -262 476 -225 q 207 -299 321 -299 q -7 -253 78 -299 l 51 -51 q 100 -69 74 -64 q 175 -75 126 -75 q 241 -67 219 -75 q 271 -37 263 -58 l 275 -26 l 188 178 l -11 694 l 338 694 l 400 336 l 426 174 l 457 338 l 526 694 l 839 694 l 635 78 m 282 1000 q 390 967 351 1000 q 428 874 428 935 q 390 780 428 813 q 282 747 351 747 q 177 781 214 747 q 140 874 140 814 q 177 967 140 933 q 282 1000 214 1000 m 611 1000 q 719 967 681 1000 q 757 874 757 935 q 719 780 757 813 q 611 747 681 747 q 506 781 543 747 q 469 874 469 814 q 506 967 469 933 q 611 1000 543 1000 z "},"z":{"ha":697,"x_min":31,"x_max":679,"o":"m 31 183 l 247 422 l 313 486 l 211 483 l 31 483 l 31 694 l 665 694 l 665 511 l 453 275 l 385 208 l 499 211 l 679 211 l 679 0 l 31 0 l 31 183 z "},"ź":{"ha":697,"x_min":31,"x_max":679,"o":"m 31 183 l 247 422 l 313 486 l 211 483 l 31 483 l 31 694 l 665 694 l 665 511 l 453 275 l 385 208 l 499 211 l 679 211 l 679 0 l 31 0 l 31 183 m 586 1014 l 443 768 l 218 768 l 301 1014 l 586 1014 z "},"ž":{"ha":697,"x_min":31,"x_max":679,"o":"m 31 183 l 247 422 l 313 486 l 211 483 l 31 483 l 31 694 l 665 694 l 665 511 l 453 275 l 385 208 l 499 211 l 679 211 l 679 0 l 31 0 l 31 183 m 490 768 l 193 768 l 46 1014 l 263 1014 l 342 915 l 421 1014 l 638 1014 l 490 768 z "},"ż":{"ha":697,"x_min":31,"x_max":679,"o":"m 31 183 l 247 422 l 313 486 l 211 483 l 31 483 l 31 694 l 665 694 l 665 511 l 453 275 l 385 208 l 499 211 l 679 211 l 679 0 l 31 0 l 31 183 m 350 1008 q 510 878 510 1008 q 350 747 510 747 q 194 878 194 747 q 350 1008 194 1008 z "},"ﬁ":{"ha":1025,"x_min":4,"x_max":985,"o":"m 394 694 l 592 694 l 592 479 l 417 479 l 417 0 l 97 0 l 97 479 l 4 479 l 4 694 l 97 694 l 97 722 q 188 934 97 868 q 414 1000 278 1000 q 601 954 542 1000 l 581 769 q 547 786 565 781 q 501 792 529 792 q 422 772 449 792 q 394 706 394 753 l 394 694 m 811 739 q 677 769 717 739 q 638 872 638 800 q 677 975 638 944 q 811 1006 717 1006 q 945 975 906 1006 q 985 872 985 944 q 945 769 985 800 q 811 739 906 739 m 971 0 l 651 0 l 651 694 l 971 694 l 971 0 z "},"ﬂ":{"ha":1071,"x_min":4,"x_max":1078,"o":"m 394 694 l 592 694 l 592 479 l 417 479 l 417 0 l 97 0 l 97 479 l 4 479 l 4 694 l 97 694 l 97 722 q 188 934 97 868 q 414 1000 278 1000 q 601 954 542 1000 l 581 769 q 547 786 565 781 q 501 792 529 792 q 422 772 449 792 q 394 706 394 753 l 394 694 m 971 276 q 983 215 971 233 q 1028 196 996 196 q 1078 203 1053 196 l 1064 31 q 989 -1 1039 11 q 892 -14 939 -14 q 707 42 763 -14 q 651 228 651 97 l 651 972 l 971 972 l 971 276 z "},"ª":{"ha":661,"x_min":36,"x_max":617,"o":"m 329 704 l 329 721 q 318 757 329 744 q 285 769 307 769 q 232 708 233 769 l 42 738 q 113 869 49 822 q 297 917 178 917 q 494 866 431 917 q 557 713 557 815 l 557 578 q 592 536 557 536 q 617 540 608 536 l 599 425 q 507 406 563 406 q 417 426 454 406 q 367 488 381 447 q 299 428 343 450 q 189 406 254 406 q 36 522 36 406 q 81 622 36 585 q 231 682 125 660 l 329 704 m 286 529 q 317 542 306 529 q 329 578 329 554 l 329 625 l 296 615 q 263 596 275 610 q 251 564 251 582 q 261 538 251 547 q 286 529 271 529 m 54 319 l 604 319 l 604 163 l 54 163 l 54 319 z "},"º":{"ha":644,"x_min":47,"x_max":597,"o":"m 322 406 q 121 473 194 406 q 47 661 47 540 q 121 849 47 782 q 322 917 194 917 q 524 849 450 917 q 597 661 597 782 q 524 473 597 540 q 322 406 450 406 m 322 544 q 359 570 349 544 q 369 661 369 596 q 359 753 369 728 q 322 778 349 778 q 285 752 296 778 q 275 661 275 726 q 285 570 275 596 q 322 544 296 544 m 50 319 l 594 319 l 594 163 l 50 163 l 50 319 z "},"π":{"ha":1144,"x_min":19,"x_max":1108,"o":"m 943 483 l 943 300 q 1040 196 943 196 q 1067 197 1057 196 l 1044 -7 q 935 -12 964 -12 q 747 15 815 -12 q 651 96 679 43 q 624 229 624 149 l 624 483 l 497 483 l 497 0 l 178 0 l 178 483 l 19 483 l 19 694 l 1108 694 l 1108 483 l 943 483 z "},"⁄":{"ha":379,"x_min":-243,"x_max":622,"o":"m 418 918 l 622 918 l -39 0 l -243 0 l 418 918 z "},"½":{"ha":1414,"x_min":35,"x_max":1389,"o":"m 418 924 l 418 372 l 199 372 l 199 640 q 203 725 199 674 q 35 664 118 665 l 35 843 q 147 873 85 847 q 233 924 210 899 l 418 924 m 883 918 l 1088 918 l 426 0 l 222 0 l 883 918 m 875 129 q 996 188 943 158 q 1113 274 1074 232 q 1153 350 1153 317 q 1117 388 1153 388 q 1071 297 1067 388 l 854 350 q 925 500 854 447 q 1119 553 996 553 q 1322 499 1258 553 q 1386 369 1386 444 q 1296 219 1386 278 q 1165 163 1243 185 l 1165 160 q 1318 167 1228 167 l 1389 167 l 1389 -6 l 875 -6 l 875 129 z "},"¼":{"ha":1318,"x_min":35,"x_max":1300,"o":"m 418 924 l 418 372 l 199 372 l 199 640 q 203 725 199 674 q 35 664 118 665 l 35 843 q 147 873 85 847 q 233 924 210 899 l 418 924 m 883 918 l 1088 918 l 426 0 l 222 0 l 883 918 m 1300 99 l 1226 99 l 1226 -6 l 1032 -6 l 1032 99 l 751 99 l 751 196 l 957 547 l 1226 547 l 1226 242 l 1300 242 l 1300 99 m 1032 242 l 1032 315 q 1035 403 1032 347 l 1036 431 l 1032 431 q 992 343 1018 390 l 935 242 l 1032 242 z "},"¾":{"ha":1396,"x_min":-1,"x_max":1378,"o":"m 267 931 q 447 890 385 931 q 508 769 508 849 q 478 685 508 717 q 388 650 447 654 l 388 643 q 518 533 518 643 q 456 409 518 454 q 281 364 393 364 q 95 397 164 364 q -1 508 26 431 l 203 579 q 260 517 201 517 q 303 556 303 517 q 292 580 303 572 q 260 588 282 588 l 229 588 l 229 690 l 254 690 q 285 701 274 690 q 296 729 296 711 q 258 767 296 767 q 206 703 207 767 l 10 765 q 91 890 21 850 q 267 931 161 931 m 961 918 l 1165 918 l 504 0 l 300 0 l 961 918 m 1378 99 l 1304 99 l 1304 -6 l 1110 -6 l 1110 99 l 829 99 l 829 196 l 1035 547 l 1304 547 l 1304 242 l 1378 242 l 1378 99 m 1110 242 l 1110 315 q 1113 403 1110 347 l 1114 431 l 1110 431 q 1069 343 1096 390 l 1013 242 l 1110 242 z "},"➀":{"ha":1264,"x_min":97,"x_max":1167,"o":"m 632 -56 q 352 9 474 -56 q 164 190 231 74 q 97 458 97 307 q 164 726 97 610 q 352 908 231 843 q 632 972 474 972 q 912 908 790 972 q 1100 726 1033 843 q 1167 458 1167 610 q 1100 190 1167 307 q 912 9 1033 74 q 632 -56 790 -56 m 632 71 q 836 119 747 71 q 974 256 925 168 q 1022 458 1022 343 q 974 661 1022 574 q 836 797 925 749 q 632 846 747 846 q 428 797 517 846 q 290 661 339 749 q 242 458 242 574 q 290 256 242 343 q 428 119 339 168 q 632 71 517 71 m 785 740 l 785 189 l 565 189 l 565 457 q 569 542 565 490 q 401 481 485 482 l 401 660 q 514 690 451 664 q 600 740 576 715 l 785 740 z "},"➁":{"ha":1264,"x_min":97,"x_max":1167,"o":"m 632 -56 q 352 9 474 -56 q 164 190 231 74 q 97 458 97 307 q 164 726 97 610 q 352 908 231 843 q 632 972 474 972 q 912 908 790 972 q 1100 726 1033 843 q 1167 458 1167 610 q 1100 190 1167 307 q 912 9 1033 74 q 632 -56 790 -56 m 632 71 q 836 119 747 71 q 974 256 925 168 q 1022 458 1022 343 q 974 661 1022 574 q 836 797 925 749 q 632 846 747 846 q 428 797 517 846 q 290 661 339 749 q 242 458 242 574 q 290 256 242 343 q 428 119 339 168 q 632 71 517 71 m 376 336 q 497 394 446 365 q 615 481 575 439 q 654 557 654 524 q 618 594 654 594 q 572 504 568 594 l 356 557 q 426 707 356 654 q 621 760 497 760 q 824 706 760 760 q 888 576 888 651 q 797 426 888 485 q 667 369 744 392 l 667 367 q 819 374 729 374 l 890 374 l 890 201 l 376 201 l 376 336 z "},"➂":{"ha":1264,"x_min":97,"x_max":1167,"o":"m 632 -56 q 352 9 474 -56 q 164 190 231 74 q 97 458 97 307 q 164 726 97 610 q 352 908 231 843 q 632 972 474 972 q 912 908 790 972 q 1100 726 1033 843 q 1167 458 1167 610 q 1100 190 1167 307 q 912 9 1033 74 q 632 -56 790 -56 m 632 71 q 836 119 747 71 q 974 256 925 168 q 1022 458 1022 343 q 974 661 1022 574 q 836 797 925 749 q 632 846 747 846 q 428 797 517 846 q 290 661 339 749 q 242 458 242 574 q 290 256 242 343 q 428 119 339 168 q 632 71 517 71 m 636 743 q 816 702 754 743 q 878 582 878 661 q 847 498 878 529 q 757 463 817 467 l 757 456 q 888 346 888 456 q 825 222 888 267 q 650 176 763 176 q 465 210 533 176 q 368 321 396 243 l 572 392 q 629 329 571 329 q 672 368 672 329 q 662 392 672 385 q 629 400 651 400 l 599 400 l 599 503 l 624 503 q 654 513 643 503 q 665 542 665 524 q 628 579 665 579 q 575 515 576 579 l 379 578 q 460 703 390 663 q 636 743 531 743 z "},"➃":{"ha":1264,"x_min":97,"x_max":1167,"o":"m 632 -56 q 352 9 474 -56 q 164 190 231 74 q 97 458 97 307 q 164 726 97 610 q 352 908 231 843 q 632 972 474 972 q 912 908 790 972 q 1100 726 1033 843 q 1167 458 1167 610 q 1100 190 1167 307 q 912 9 1033 74 q 632 -56 790 -56 m 632 71 q 836 119 747 71 q 974 256 925 168 q 1022 458 1022 343 q 974 661 1022 574 q 836 797 925 749 q 632 846 747 846 q 428 797 517 846 q 290 661 339 749 q 242 458 242 574 q 290 256 242 343 q 428 119 339 168 q 632 71 517 71 m 875 293 l 801 293 l 801 189 l 607 189 l 607 293 l 326 293 l 326 390 l 532 742 l 801 742 l 801 436 l 875 436 l 875 293 m 607 436 l 607 510 q 610 597 607 542 l 611 625 l 607 625 q 567 538 593 585 l 510 436 l 607 436 z "},"➄":{"ha":1264,"x_min":97,"x_max":1167,"o":"m 632 -56 q 352 9 474 -56 q 164 190 231 74 q 97 458 97 307 q 164 726 97 610 q 352 908 231 843 q 632 972 474 972 q 912 908 790 972 q 1100 726 1033 843 q 1167 458 1167 610 q 1100 190 1167 307 q 912 9 1033 74 q 632 -56 790 -56 m 632 71 q 836 119 747 71 q 974 256 925 168 q 1022 458 1022 343 q 974 661 1022 574 q 836 797 925 749 q 632 846 747 846 q 428 797 517 846 q 290 661 339 749 q 242 458 242 574 q 290 256 242 343 q 428 119 339 168 q 632 71 517 71 m 699 528 q 879 363 879 528 q 810 215 879 263 q 629 167 742 167 q 469 190 532 167 q 368 275 406 213 l 567 356 q 586 326 574 336 q 624 317 599 317 q 672 358 672 317 q 660 386 672 376 q 625 396 647 396 q 595 392 607 396 q 571 379 583 388 l 390 401 l 429 726 l 860 726 l 860 568 l 593 568 l 590 539 q 581 508 589 522 l 582 507 q 699 528 610 528 z "},"➅":{"ha":1264,"x_min":97,"x_max":1167,"o":"m 632 -56 q 352 9 474 -56 q 164 190 231 74 q 97 458 97 307 q 164 726 97 610 q 352 908 231 843 q 632 972 474 972 q 912 908 790 972 q 1100 726 1033 843 q 1167 458 1167 610 q 1100 190 1167 307 q 912 9 1033 74 q 632 -56 790 -56 m 632 71 q 836 119 747 71 q 974 256 925 168 q 1022 458 1022 343 q 974 661 1022 574 q 836 797 925 749 q 632 846 747 846 q 428 797 517 846 q 290 661 339 749 q 242 458 242 574 q 290 256 242 343 q 428 119 339 168 q 632 71 517 71 m 628 172 q 428 242 497 172 q 358 456 358 311 q 437 667 358 596 q 644 739 515 739 q 794 711 735 739 q 885 615 853 683 l 718 538 q 694 576 713 563 q 650 590 676 590 q 588 561 611 590 q 564 481 564 532 l 564 467 l 565 467 q 708 511 607 511 q 838 473 788 511 q 888 350 888 435 q 821 219 888 265 q 628 172 754 172 m 633 317 q 682 358 682 317 q 635 400 682 400 q 586 358 586 400 q 633 317 586 317 z "},"➆":{"ha":1264,"x_min":97,"x_max":1167,"o":"m 632 -56 q 352 9 474 -56 q 164 190 231 74 q 97 458 97 307 q 164 726 97 610 q 352 908 231 843 q 632 972 474 972 q 912 908 790 972 q 1100 726 1033 843 q 1167 458 1167 610 q 1100 190 1167 307 q 912 9 1033 74 q 632 -56 790 -56 m 632 71 q 836 119 747 71 q 974 256 925 168 q 1022 458 1022 343 q 974 661 1022 574 q 836 797 925 749 q 632 846 747 846 q 428 797 517 846 q 290 661 339 749 q 242 458 242 574 q 290 256 242 343 q 428 119 339 168 q 632 71 517 71 m 886 717 l 886 586 q 764 400 797 507 q 731 165 731 293 l 507 165 q 546 367 507 267 q 653 544 585 468 l 386 544 l 386 717 l 886 717 z "},"➇":{"ha":1264,"x_min":97,"x_max":1167,"o":"m 632 -56 q 352 9 474 -56 q 164 190 231 74 q 97 458 97 307 q 164 726 97 610 q 352 908 231 843 q 632 972 474 972 q 912 908 790 972 q 1100 726 1033 843 q 1167 458 1167 610 q 1100 190 1167 307 q 912 9 1033 74 q 632 -56 790 -56 m 632 71 q 836 119 747 71 q 974 256 925 168 q 1022 458 1022 343 q 974 661 1022 574 q 836 797 925 749 q 632 846 747 846 q 428 797 517 846 q 290 661 339 749 q 242 458 242 574 q 290 256 242 343 q 428 119 339 168 q 632 71 517 71 m 632 744 q 819 699 750 744 q 888 578 888 654 q 863 505 888 536 q 789 460 839 474 l 789 458 q 899 340 899 432 q 828 220 899 263 q 632 178 758 178 q 438 220 507 178 q 368 340 368 263 q 474 458 368 432 l 474 460 q 403 503 428 472 q 379 578 379 535 q 447 699 379 654 q 632 744 515 744 m 633 613 q 583 571 583 613 q 633 529 583 529 q 683 571 683 529 q 633 613 683 613 m 633 310 q 683 351 683 310 q 633 393 683 393 q 583 351 583 393 q 633 310 583 310 z "},"➈":{"ha":1264,"x_min":97,"x_max":1167,"o":"m 632 -56 q 352 9 474 -56 q 164 190 231 74 q 97 458 97 307 q 164 726 97 610 q 352 908 231 843 q 632 972 474 972 q 912 908 790 972 q 1100 726 1033 843 q 1167 458 1167 610 q 1100 190 1167 307 q 912 9 1033 74 q 632 -56 790 -56 m 632 71 q 836 119 747 71 q 974 256 925 168 q 1022 458 1022 343 q 974 661 1022 574 q 836 797 925 749 q 632 846 747 846 q 428 797 517 846 q 290 661 339 749 q 242 458 242 574 q 290 256 242 343 q 428 119 339 168 q 632 71 517 71 m 640 740 q 914 457 914 740 q 835 242 914 310 q 624 174 757 174 q 473 203 531 174 q 396 311 415 233 l 579 361 q 594 331 581 339 q 640 322 608 322 q 708 419 708 322 l 708 433 l 707 433 q 586 385 674 385 q 438 433 496 385 q 381 558 381 482 q 450 694 381 647 q 640 740 519 740 m 635 596 q 588 554 588 596 q 635 514 588 514 q 682 554 682 514 q 635 596 682 596 z "},"₀":{"ha":589,"x_min":25,"x_max":564,"o":"m 294 -271 q 90 -202 156 -271 q 25 13 25 -133 q 90 227 25 158 q 294 296 156 296 q 499 227 433 296 q 564 13 564 158 q 499 -202 564 -133 q 294 -271 433 -271 m 294 -119 q 334 -92 324 -119 q 344 13 344 -65 q 334 117 344 90 q 294 144 324 144 q 255 117 265 144 q 244 13 244 90 q 255 -92 244 -65 q 294 -119 265 -119 z "},"₁":{"ha":465,"x_min":35,"x_max":418,"o":"m 418 289 l 418 -262 l 199 -262 l 199 6 q 203 90 199 39 q 35 29 118 31 l 35 208 q 147 238 85 213 q 233 289 210 264 l 418 289 z "},"₂":{"ha":569,"x_min":10,"x_max":544,"o":"m 31 -128 q 151 -69 100 -99 q 269 17 229 -25 q 308 93 308 60 q 272 131 308 131 q 226 40 222 131 l 10 93 q 81 243 10 190 q 275 296 151 296 q 478 242 414 296 q 542 113 542 188 q 451 -37 542 21 q 321 -94 399 -72 l 321 -97 q 474 -90 383 -90 l 544 -90 l 544 -262 l 31 -262 l 31 -128 z "},"₃":{"ha":543,"x_min":-1,"x_max":518,"o":"m 267 296 q 447 255 385 296 q 508 135 508 214 q 478 51 508 82 q 388 15 447 19 l 388 8 q 518 -101 518 8 q 456 -226 518 -181 q 281 -271 393 -271 q 95 -237 164 -271 q -1 -126 26 -204 l 203 -56 q 260 -118 201 -118 q 303 -79 303 -118 q 292 -55 303 -62 q 260 -47 282 -47 l 229 -47 l 229 56 l 254 56 q 285 66 274 56 q 296 94 296 76 q 258 132 296 132 q 206 68 207 132 l 10 131 q 91 256 21 215 q 267 296 161 296 z "},"₄":{"ha":583,"x_min":17,"x_max":565,"o":"m 565 -158 l 492 -158 l 492 -262 l 297 -262 l 297 -158 l 17 -158 l 17 -61 l 222 290 l 492 290 l 492 -15 l 565 -15 l 565 -158 m 297 -15 l 297 58 q 300 146 297 90 l 301 174 l 297 174 q 257 86 283 133 l 200 -15 l 297 -15 z "},"₅":{"ha":558,"x_min":8,"x_max":519,"o":"m 339 90 q 519 -75 519 90 q 451 -223 519 -175 q 269 -271 382 -271 q 109 -248 172 -271 q 8 -162 46 -225 l 207 -82 q 226 -111 214 -101 q 264 -121 239 -121 q 313 -79 313 -121 q 300 -51 313 -61 q 265 -42 288 -42 q 235 -46 247 -42 q 211 -58 224 -50 l 31 -36 l 69 289 l 500 289 l 500 131 l 233 131 l 231 101 q 221 71 229 85 l 222 69 q 339 90 250 90 z "},"₆":{"ha":579,"x_min":31,"x_max":560,"o":"m 300 -271 q 100 -201 169 -271 q 31 13 31 -132 q 109 224 31 153 q 317 296 188 296 q 466 268 407 296 q 557 172 525 240 l 390 94 q 367 133 385 119 q 322 147 349 147 q 260 118 283 147 q 236 38 236 89 l 236 24 l 238 24 q 381 68 279 68 q 510 30 460 68 q 560 -93 560 -8 q 493 -224 560 -178 q 300 -271 426 -271 m 306 -126 q 354 -85 354 -126 q 307 -43 354 -43 q 258 -85 258 -43 q 306 -126 258 -126 z "},"₇":{"ha":532,"x_min":19,"x_max":519,"o":"m 519 289 l 519 158 q 397 -28 431 79 q 364 -262 364 -135 l 140 -262 q 179 -60 140 -161 q 286 117 218 40 l 19 117 l 19 289 l 519 289 z "},"₈":{"ha":608,"x_min":39,"x_max":569,"o":"m 303 296 q 490 251 421 296 q 558 129 558 206 q 534 56 558 88 q 460 11 510 25 l 460 10 q 569 -108 569 -17 q 499 -228 569 -186 q 303 -271 429 -271 q 108 -228 178 -271 q 39 -108 39 -186 q 144 10 39 -17 l 144 11 q 74 55 99 24 q 50 129 50 86 q 118 251 50 206 q 303 296 186 296 m 304 164 q 254 122 254 164 q 304 81 254 81 q 354 122 354 81 q 304 164 354 164 m 304 -139 q 354 -97 354 -139 q 304 -56 354 -56 q 254 -97 254 -56 q 304 -139 254 -139 z "},"₉":{"ha":586,"x_min":22,"x_max":556,"o":"m 282 296 q 556 13 556 296 q 477 -203 556 -135 q 265 -271 399 -271 q 115 -241 172 -271 q 38 -133 57 -211 l 221 -83 q 236 -114 222 -106 q 282 -122 250 -122 q 350 -25 350 -122 l 350 -11 l 349 -11 q 228 -60 315 -60 q 80 -11 138 -60 q 22 114 22 38 q 92 249 22 203 q 282 296 161 296 m 276 151 q 229 110 229 151 q 276 69 229 69 q 324 110 324 69 q 276 151 324 151 z "},"⁰":{"ha":589,"x_min":25,"x_max":564,"o":"m 294 454 q 90 523 156 454 q 25 738 25 592 q 90 952 25 883 q 294 1021 156 1021 q 499 952 433 1021 q 564 738 564 883 q 499 523 564 592 q 294 454 433 454 m 294 606 q 334 633 324 606 q 344 738 344 660 q 334 842 344 815 q 294 869 324 869 q 255 842 265 869 q 244 738 244 815 q 255 633 244 660 q 294 606 265 606 z "},"¹":{"ha":465,"x_min":35,"x_max":418,"o":"m 418 1014 l 418 463 l 199 463 l 199 731 q 203 815 199 764 q 35 754 118 756 l 35 933 q 147 963 85 938 q 233 1014 210 989 l 418 1014 z "},"²":{"ha":569,"x_min":10,"x_max":544,"o":"m 31 597 q 151 656 100 626 q 269 742 229 700 q 308 818 308 785 q 272 856 308 856 q 226 765 222 856 l 10 818 q 81 968 10 915 q 275 1021 151 1021 q 478 967 414 1021 q 542 838 542 913 q 451 688 542 746 q 321 631 399 653 l 321 628 q 474 635 383 635 l 544 635 l 544 463 l 31 463 l 31 597 z "},"³":{"ha":543,"x_min":-1,"x_max":518,"o":"m 267 1021 q 447 980 385 1021 q 508 860 508 939 q 478 776 508 807 q 388 740 447 744 l 388 733 q 518 624 518 733 q 456 499 518 544 q 281 454 393 454 q 95 488 164 454 q -1 599 26 521 l 203 669 q 260 607 201 607 q 303 646 303 607 q 292 670 303 663 q 260 678 282 678 l 229 678 l 229 781 l 254 781 q 285 791 274 781 q 296 819 296 801 q 258 857 296 857 q 206 793 207 857 l 10 856 q 91 981 21 940 q 267 1021 161 1021 z "},"⁴":{"ha":583,"x_min":17,"x_max":565,"o":"m 565 567 l 492 567 l 492 463 l 297 463 l 297 567 l 17 567 l 17 664 l 222 1015 l 492 1015 l 492 710 l 565 710 l 565 567 m 297 710 l 297 783 q 300 871 297 815 l 301 899 l 297 899 q 257 811 283 858 l 200 710 l 297 710 z "},"⁵":{"ha":558,"x_min":8,"x_max":519,"o":"m 339 815 q 519 650 519 815 q 451 502 519 550 q 269 454 382 454 q 109 477 172 454 q 8 563 46 500 l 207 643 q 226 614 214 624 q 264 604 239 604 q 313 646 313 604 q 300 674 313 664 q 265 683 288 683 q 235 679 247 683 q 211 667 224 675 l 31 689 l 69 1014 l 500 1014 l 500 856 l 233 856 l 231 826 q 221 796 229 810 l 222 794 q 339 815 250 815 z "},"⁶":{"ha":579,"x_min":31,"x_max":560,"o":"m 300 454 q 100 524 169 454 q 31 738 31 593 q 109 949 31 878 q 317 1021 188 1021 q 466 993 407 1021 q 557 897 525 965 l 390 819 q 367 858 385 844 q 322 872 349 872 q 260 843 283 872 q 236 763 236 814 l 236 749 l 238 749 q 381 793 279 793 q 510 755 460 793 q 560 632 560 717 q 493 501 560 547 q 300 454 426 454 m 306 599 q 354 640 354 599 q 307 682 354 682 q 258 640 258 682 q 306 599 258 599 z "},"⁷":{"ha":532,"x_min":19,"x_max":519,"o":"m 519 1014 l 519 883 q 397 697 431 804 q 364 463 364 590 l 140 463 q 179 665 140 564 q 286 842 218 765 l 19 842 l 19 1014 l 519 1014 z "},"⁸":{"ha":608,"x_min":39,"x_max":569,"o":"m 303 1021 q 490 976 421 1021 q 558 854 558 931 q 534 781 558 813 q 460 736 510 750 l 460 735 q 569 617 569 708 q 499 497 569 539 q 303 454 429 454 q 108 497 178 454 q 39 617 39 539 q 144 735 39 708 l 144 736 q 74 780 99 749 q 50 854 50 811 q 118 976 50 931 q 303 1021 186 1021 m 304 889 q 254 847 254 889 q 304 806 254 806 q 354 847 354 806 q 304 889 354 889 m 304 586 q 354 628 354 586 q 304 669 354 669 q 254 628 254 669 q 304 586 254 586 z "},"⁹":{"ha":586,"x_min":22,"x_max":556,"o":"m 282 1021 q 556 738 556 1021 q 477 522 556 590 q 265 454 399 454 q 115 484 172 454 q 38 592 57 514 l 221 642 q 236 611 222 619 q 282 603 250 603 q 350 700 350 603 l 350 714 l 349 714 q 228 665 315 665 q 80 714 138 665 q 22 839 22 763 q 92 974 22 928 q 282 1021 161 1021 m 276 876 q 229 835 229 876 q 276 794 229 794 q 324 835 324 794 q 276 876 324 876 z "},"*":{"ha":832,"x_min":40,"x_max":792,"o":"m 589 590 l 715 429 l 538 300 l 424 471 l 415 492 l 407 471 l 293 300 l 115 429 l 243 590 l 260 604 l 238 606 l 40 661 l 108 871 l 300 799 l 319 786 l 314 810 l 306 1014 l 525 1014 l 517 810 l 511 786 l 531 799 l 724 871 l 792 661 l 593 606 l 572 604 l 589 590 z "},"\\":{"ha":678,"x_min":8,"x_max":669,"o":"m 304 972 l 669 -97 l 374 -97 l 8 972 l 304 972 z "},"·":{"ha":425,"x_min":42,"x_max":383,"o":"m 213 638 q 339 599 294 638 q 383 489 383 560 q 339 379 383 418 q 213 340 294 340 q 86 379 131 340 q 42 489 42 418 q 86 599 42 560 q 213 638 131 638 z "},"•":{"ha":597,"x_min":58,"x_max":539,"o":"m 299 690 q 476 630 413 690 q 539 458 539 569 q 476 287 539 347 q 299 226 413 226 q 122 287 185 226 q 58 458 58 347 q 122 630 58 569 q 299 690 185 690 z "},":":{"ha":425,"x_min":42,"x_max":383,"o":"m 213 708 q 339 669 294 708 q 383 560 383 631 q 339 450 383 489 q 213 411 294 411 q 86 450 131 411 q 42 560 42 489 q 86 669 42 631 q 213 708 131 708 m 213 286 q 339 247 294 286 q 383 138 383 208 q 339 28 383 67 q 213 -11 294 -11 q 86 28 131 -11 q 42 138 42 67 q 86 247 42 208 q 213 286 131 286 z "},",":{"ha":425,"x_min":31,"x_max":386,"o":"m 206 286 q 341 228 296 286 q 386 79 386 169 q 329 -106 386 -24 q 165 -231 272 -187 l 31 -144 q 156 -77 107 -112 q 228 8 206 -42 l 221 14 q 176 -6 203 -6 q 77 30 119 -6 q 35 132 35 65 q 80 248 35 210 q 206 286 125 286 z "},"…":{"ha":1328,"x_min":46,"x_max":1282,"o":"m 1111 286 q 1238 247 1193 286 q 1282 138 1282 208 q 1238 28 1282 67 q 1111 -11 1193 -11 q 985 28 1029 -11 q 940 138 940 67 q 985 247 940 208 q 1111 286 1029 286 m 664 286 q 790 247 746 286 q 835 138 835 208 q 790 28 835 67 q 664 -11 746 -11 q 538 28 582 -11 q 493 138 493 67 q 538 247 493 208 q 664 286 582 286 m 217 286 q 343 247 299 286 q 388 138 388 208 q 343 28 388 67 q 217 -11 299 -11 q 90 28 135 -11 q 46 138 46 67 q 90 247 46 208 q 217 286 135 286 z "},"!":{"ha":446,"x_min":56,"x_max":389,"o":"m 389 689 l 356 306 l 89 306 l 56 689 l 56 917 l 389 917 l 389 689 m 222 257 q 342 222 300 257 q 385 124 385 188 q 342 25 385 60 q 222 -10 300 -10 q 102 25 144 -10 q 60 124 60 60 q 102 222 60 188 q 222 257 144 257 z "},"¡":{"ha":446,"x_min":57,"x_max":390,"o":"m 224 438 q 103 472 146 438 q 61 571 61 507 q 103 669 61 635 q 224 704 146 704 q 344 669 301 704 q 386 571 386 635 q 344 472 386 507 q 224 438 301 438 m 57 6 l 90 389 l 357 389 l 390 6 l 390 -222 l 57 -222 l 57 6 z "},"#":{"ha":1001,"x_min":42,"x_max":960,"o":"m 779 540 l 753 376 l 901 376 l 901 197 l 725 197 l 693 0 l 489 0 l 519 197 l 374 197 l 343 0 l 138 0 l 168 197 l 42 197 l 42 376 l 197 376 l 222 540 l 100 540 l 100 719 l 251 719 l 282 917 l 488 917 l 457 719 l 603 719 l 633 917 l 839 917 l 807 719 l 960 719 l 960 540 l 779 540 m 574 540 l 428 540 l 403 376 l 549 376 l 574 540 z "},".":{"ha":425,"x_min":42,"x_max":383,"o":"m 213 286 q 339 247 294 286 q 383 138 383 208 q 339 28 383 67 q 213 -11 294 -11 q 86 28 131 -11 q 42 138 42 67 q 86 247 42 208 q 213 286 131 286 z "},"?":{"ha":904,"x_min":39,"x_max":853,"o":"m 460 931 q 853 668 853 931 q 783 477 853 538 q 586 403 713 417 l 563 303 l 303 303 l 281 517 q 506 618 506 522 q 439 681 506 681 q 353 574 354 681 l 39 681 q 149 862 49 793 q 460 931 249 931 m 435 257 q 555 222 513 257 q 597 124 597 188 q 555 25 597 60 q 435 -10 513 -10 q 315 25 357 -10 q 272 124 272 60 q 315 222 272 188 q 435 257 357 257 z "},"¿":{"ha":904,"x_min":51,"x_max":865,"o":"m 469 439 q 349 474 392 439 q 307 572 307 508 q 349 671 307 636 q 469 706 392 706 q 590 671 547 706 q 632 572 632 636 q 590 474 632 508 q 469 439 547 439 m 444 -235 q 51 28 51 -235 q 122 219 51 158 q 318 293 192 279 l 342 393 l 601 393 l 624 179 q 399 78 399 174 q 465 15 399 15 q 551 122 550 15 l 865 15 q 756 -166 856 -97 q 444 -235 656 -235 z "},"\"":{"ha":663,"x_min":69,"x_max":619,"o":"m 575 518 l 371 518 l 371 931 l 619 931 l 575 518 m 274 518 l 69 518 l 69 931 l 318 931 l 274 518 z "},"'":{"ha":361,"x_min":69,"x_max":318,"o":"m 274 518 l 69 518 l 69 931 l 318 931 l 274 518 z "},";":{"ha":425,"x_min":31,"x_max":386,"o":"m 210 411 q 83 450 128 411 q 39 560 39 489 q 83 669 39 631 q 210 708 128 708 q 336 669 292 708 q 381 560 381 631 q 336 450 381 489 q 210 411 292 411 m 206 286 q 341 228 296 286 q 386 79 386 169 q 329 -106 386 -24 q 165 -231 272 -187 l 31 -144 q 156 -77 107 -112 q 228 8 206 -42 l 221 14 q 176 -6 203 -6 q 77 30 119 -6 q 35 132 35 65 q 80 248 35 210 q 206 286 125 286 z "},"/":{"ha":678,"x_min":8,"x_max":669,"o":"m 304 -97 l 8 -97 l 374 972 l 669 972 l 304 -97 z "},"_":{"ha":749,"x_min":0,"x_max":749,"o":"m 749 -306 l 0 -306 l 0 -62 l 749 -62 l 749 -306 z "},"₍":{"ha":385,"x_min":71,"x_max":382,"o":"m 382 301 q 299 185 322 249 q 275 13 275 122 q 299 -160 275 -97 q 382 -276 322 -224 l 269 -372 q 121 -216 171 -311 q 71 13 71 -121 q 121 241 71 146 q 269 397 171 336 l 382 301 z "},"₎":{"ha":385,"x_min":3,"x_max":314,"o":"m 115 397 q 264 241 214 336 q 314 13 314 146 q 264 -216 314 -121 q 115 -372 214 -311 l 3 -276 q 86 -160 63 -224 q 110 13 110 -97 q 86 185 110 122 q 3 301 63 249 l 115 397 z "},"{":{"ha":647,"x_min":69,"x_max":629,"o":"m 471 533 q 441 431 471 469 q 350 371 411 392 q 441 310 411 350 q 471 207 471 271 l 471 63 q 508 -45 471 -12 q 629 -78 546 -78 l 629 -268 q 392 -242 479 -268 q 265 -156 306 -217 q 225 11 225 -96 l 225 131 q 190 242 225 208 q 69 275 154 275 l 69 465 q 190 499 154 465 q 225 610 225 532 l 225 731 q 265 897 225 836 q 392 983 306 957 q 629 1008 479 1008 l 629 818 q 508 785 546 818 q 471 679 471 753 l 471 533 z "},"}":{"ha":647,"x_min":18,"x_max":578,"o":"m 422 610 q 458 499 422 532 q 578 465 493 465 l 578 275 q 458 242 493 275 q 422 131 422 208 l 422 11 q 382 -156 422 -96 q 255 -242 342 -217 q 18 -268 168 -268 l 18 -78 q 139 -45 101 -78 q 176 63 176 -12 l 176 207 q 206 310 176 271 q 297 371 236 350 q 206 431 236 392 q 176 533 176 469 l 176 679 q 139 785 176 753 q 18 818 101 818 l 18 1008 q 255 983 168 1008 q 382 897 342 957 q 422 731 422 836 l 422 610 z "},"[":{"ha":583,"x_min":117,"x_max":554,"o":"m 388 764 l 388 -24 l 554 -24 l 554 -233 l 117 -233 l 117 974 l 554 974 l 554 764 l 388 764 z "},"]":{"ha":583,"x_min":29,"x_max":467,"o":"m 467 -233 l 29 -233 l 29 -24 l 196 -24 l 196 764 l 29 764 l 29 974 l 467 974 l 467 -233 z "},"(":{"ha":581,"x_min":99,"x_max":585,"o":"m 585 869 q 427 659 476 774 q 378 371 378 544 q 427 81 378 196 q 585 -129 476 -33 l 442 -268 q 99 371 99 -75 q 442 1008 99 818 l 585 869 z "},")":{"ha":581,"x_min":-4,"x_max":482,"o":"m 139 1008 q 482 371 482 818 q 139 -268 482 -75 l -4 -129 q 153 81 104 -33 q 203 371 203 196 q 153 659 203 544 q -4 869 104 774 l 139 1008 z "},"⁽":{"ha":385,"x_min":71,"x_max":382,"o":"m 382 1026 q 299 910 322 974 q 275 738 275 847 q 299 565 275 628 q 382 449 322 501 l 269 353 q 121 509 171 414 q 71 738 71 604 q 121 966 71 871 q 269 1122 171 1061 l 382 1026 z "},"⁾":{"ha":385,"x_min":3,"x_max":314,"o":"m 115 1122 q 264 966 214 1061 q 314 738 314 871 q 264 509 314 604 q 115 353 214 414 l 3 449 q 86 565 63 501 q 110 738 110 628 q 86 910 110 847 q 3 1026 63 974 l 115 1122 z "},"—":{"ha":1389,"x_min":104,"x_max":1285,"o":"m 1285 256 l 104 256 l 104 499 l 1285 499 l 1285 256 z "},"–":{"ha":986,"x_min":104,"x_max":882,"o":"m 882 256 l 104 256 l 104 499 l 882 499 l 882 256 z "},"-":{"ha":750,"x_min":104,"x_max":646,"o":"m 646 256 l 104 256 l 104 499 l 646 499 l 646 256 z "},"­":{"ha":750,"x_min":104,"x_max":646,"o":"m 646 256 l 104 256 l 104 499 l 646 499 l 646 256 z "},"«":{"ha":899,"x_min":33,"x_max":865,"o":"m 307 368 l 468 96 l 207 96 l 33 368 l 207 640 l 468 640 l 307 368 m 704 368 l 865 96 l 604 96 l 431 368 l 604 640 l 865 640 l 704 368 z "},"»":{"ha":899,"x_min":33,"x_max":865,"o":"m 294 640 l 468 368 l 294 96 l 33 96 l 194 368 l 33 640 l 294 640 m 692 640 l 865 368 l 692 96 l 431 96 l 592 368 l 431 640 l 692 640 z "},"‹":{"ha":501,"x_min":33,"x_max":468,"o":"m 307 368 l 468 96 l 207 96 l 33 368 l 207 640 l 468 640 l 307 368 z "},"›":{"ha":501,"x_min":33,"x_max":468,"o":"m 294 640 l 468 368 l 294 96 l 33 96 l 194 368 l 33 640 l 294 640 z "},"„":{"ha":807,"x_min":31,"x_max":768,"o":"m 206 286 q 341 228 296 286 q 386 79 386 169 q 329 -106 386 -24 q 165 -231 272 -187 l 31 -144 q 156 -77 107 -112 q 228 8 206 -42 l 221 14 q 176 -6 203 -6 q 77 30 119 -6 q 35 132 35 65 q 80 248 35 210 q 206 286 125 286 m 588 286 q 723 228 678 286 q 768 79 768 169 q 711 -106 768 -24 q 547 -231 654 -187 l 413 -144 q 538 -77 489 -112 q 610 8 588 -42 l 603 14 q 558 -6 585 -6 q 459 30 501 -6 q 417 132 417 65 q 462 248 417 210 q 588 286 507 286 z "},"“":{"ha":838,"x_min":46,"x_max":794,"o":"m 226 436 q 91 494 136 436 q 46 643 46 553 q 103 828 46 746 q 267 953 160 910 l 401 867 q 276 799 325 835 q 204 714 226 764 l 211 708 q 256 728 229 728 q 355 692 313 728 q 397 590 397 657 q 352 474 397 513 q 226 436 307 436 m 619 436 q 484 494 529 436 q 439 643 439 553 q 496 828 439 746 q 660 953 553 910 l 794 867 q 669 799 718 835 q 597 714 619 764 l 604 708 q 649 728 622 728 q 748 692 706 728 q 790 590 790 657 q 745 474 790 513 q 619 436 700 436 z "},"”":{"ha":826,"x_min":51,"x_max":789,"o":"m 226 949 q 362 890 317 949 q 407 742 407 832 q 350 557 407 639 q 186 432 293 475 l 51 518 q 177 585 128 550 q 249 671 226 621 l 242 676 q 197 657 224 657 q 98 692 140 657 q 56 794 56 728 q 101 910 56 872 q 226 949 146 949 m 608 949 q 744 890 699 949 q 789 742 789 832 q 732 557 789 639 q 568 432 675 475 l 433 518 q 559 585 510 550 q 631 671 608 621 l 624 676 q 579 657 606 657 q 480 692 522 657 q 438 794 438 728 q 483 910 438 872 q 608 949 528 949 z "},"‘":{"ha":444,"x_min":46,"x_max":401,"o":"m 226 436 q 91 494 136 436 q 46 643 46 553 q 103 828 46 746 q 267 953 160 910 l 401 867 q 276 799 325 835 q 204 714 226 764 l 211 708 q 256 728 229 728 q 355 692 313 728 q 397 590 397 657 q 352 474 397 513 q 226 436 307 436 z "},"’":{"ha":444,"x_min":51,"x_max":407,"o":"m 226 949 q 362 890 317 949 q 407 742 407 832 q 350 557 407 639 q 186 432 293 475 l 51 518 q 177 585 128 550 q 249 671 226 621 l 242 676 q 197 657 224 657 q 98 692 140 657 q 56 794 56 728 q 101 910 56 872 q 226 949 146 949 z "},"‚":{"ha":425,"x_min":31,"x_max":386,"o":"m 206 286 q 341 228 296 286 q 386 79 386 169 q 329 -106 386 -24 q 165 -231 272 -187 l 31 -144 q 156 -77 107 -112 q 228 8 206 -42 l 221 14 q 176 -6 203 -6 q 77 30 119 -6 q 35 132 35 65 q 80 248 35 210 q 206 286 125 286 z "}," ":{"ha":347,"x_min":0,"x_max":0,"o":""},"€":{"ha":976,"x_min":0,"x_max":958,"o":"m 583 199 q 721 313 701 199 l 957 247 q 829 51 931 117 q 574 -14 728 -14 q 279 70 396 -14 q 124 310 163 154 l 0 310 l 0 401 l 110 401 q 107 458 107 438 q 108 490 107 479 l 0 490 l 0 582 l 118 582 q 269 840 150 749 q 574 931 389 931 q 824 872 718 931 q 958 711 931 813 l 733 606 q 690 692 731 665 q 589 718 650 718 q 469 685 514 718 q 407 582 425 651 l 674 582 l 632 490 l 394 490 l 394 458 q 396 401 394 419 l 631 401 l 594 310 l 413 310 q 473 226 432 254 q 583 199 514 199 z "},"¢":{"ha":807,"x_min":40,"x_max":793,"o":"m 563 399 q 535 478 560 447 q 472 518 511 508 l 472 175 q 564 282 553 192 l 786 206 q 710 53 793 113 q 472 -14 626 -7 l 472 -139 l 392 -139 l 392 -12 q 130 91 219 -1 q 40 347 40 183 q 133 605 40 511 q 392 707 225 699 l 392 833 l 472 833 l 472 707 q 716 633 640 699 q 788 472 792 567 l 563 399 m 315 343 q 334 225 315 263 q 392 178 353 188 l 392 517 q 333 466 351 506 q 315 343 315 426 z "},"¤":{"ha":881,"x_min":19,"x_max":861,"o":"m 739 458 q 717 338 739 396 l 861 217 l 681 38 l 554 189 q 442 171 506 171 q 325 189 382 171 l 199 38 l 19 217 l 164 338 q 142 458 142 396 q 164 578 142 519 l 19 699 l 199 878 l 325 726 q 442 744 382 744 q 554 726 506 744 l 681 878 l 861 699 l 717 576 q 739 458 739 521 m 442 383 q 494 403 475 383 q 513 458 513 424 q 494 513 513 493 q 442 533 475 533 q 388 513 407 533 q 368 458 368 493 q 388 403 368 424 q 442 383 407 383 z "},"$":{"ha":907,"x_min":15,"x_max":901,"o":"m 418 1 q 183 39 275 7 q 15 133 90 71 l 142 326 q 418 207 232 215 l 418 342 q 228 387 304 363 q 97 468 153 411 q 42 625 42 525 q 140 826 42 747 q 418 915 239 904 l 418 1028 l 508 1028 l 508 917 q 738 875 651 913 q 901 767 824 838 l 765 592 q 654 678 717 650 q 508 711 592 707 l 508 567 q 697 521 619 547 q 831 435 775 494 q 888 274 888 376 q 781 80 888 151 q 508 1 675 8 l 508 -111 l 418 -111 l 418 1 m 418 706 q 353 683 376 699 q 331 644 331 667 q 352 610 331 624 q 418 585 374 596 l 418 706 m 508 208 q 600 261 600 218 q 508 324 600 303 l 508 208 z "},"ƒ":{"ha":743,"x_min":-44,"x_max":765,"o":"m 665 797 q 586 771 618 797 q 546 699 554 744 l 528 596 l 703 596 l 703 385 l 489 385 l 436 88 q 331 -109 413 -40 q 119 -178 249 -178 q 26 -169 61 -178 q -44 -137 -10 -160 l -6 43 q 56 28 18 28 q 135 54 103 28 q 175 125 167 81 l 222 385 l 39 385 l 39 596 l 260 596 l 285 736 q 390 934 308 865 q 601 1003 471 1003 q 695 994 660 1003 q 765 963 731 985 l 726 782 q 665 797 700 797 z "},"£":{"ha":864,"x_min":33,"x_max":838,"o":"m 826 265 q 838 193 838 228 q 815 92 838 139 q 746 15 792 44 q 636 -14 700 -14 q 517 8 568 -14 q 407 71 465 31 q 210 -14 326 -14 q 83 21 133 -14 q 33 121 33 56 q 87 222 33 188 q 217 256 140 256 q 275 254 257 256 q 236 376 268 319 l 46 376 l 46 479 l 165 479 q 112 575 126 533 q 97 665 97 617 q 136 795 97 735 q 255 893 175 856 q 451 931 335 931 q 814 669 767 931 l 560 557 q 514 679 540 646 q 444 713 488 713 q 392 696 413 713 q 372 649 372 679 q 419 533 372 603 l 453 479 l 713 479 l 713 376 l 489 376 q 494 310 494 349 q 482 208 494 257 q 575 193 533 193 q 650 293 658 193 l 826 265 m 210 85 q 251 99 236 85 q 272 150 265 114 q 213 160 244 160 q 174 150 188 160 q 161 122 161 140 q 174 94 161 104 q 210 85 186 85 z "},"₺":{"ha":1040,"x_min":29,"x_max":1003,"o":"m 1003 454 q 892 122 1003 244 q 574 0 782 0 l 151 0 l 151 363 l 29 329 l 29 419 l 151 453 l 151 550 l 29 517 l 29 607 l 151 640 l 151 917 l 475 917 l 475 729 l 685 786 l 685 697 l 475 639 l 475 542 l 685 600 l 685 510 l 475 451 l 475 236 l 539 236 q 652 290 611 236 q 693 454 693 343 l 1003 454 z "},"₽":{"ha":993,"x_min":22,"x_max":951,"o":"m 461 385 l 461 301 l 715 301 l 715 179 l 461 179 l 461 0 l 138 0 l 138 179 l 22 179 l 22 301 l 138 301 l 138 385 l 22 385 l 22 514 l 138 514 l 138 917 l 567 917 q 853 845 754 917 q 951 650 951 774 q 857 448 951 511 q 567 385 763 385 l 461 385 m 461 514 l 514 514 q 601 535 574 514 q 628 600 628 556 q 601 665 628 644 q 514 686 574 686 l 461 686 l 461 514 z "},"¥":{"ha":996,"x_min":13,"x_max":983,"o":"m 768 431 l 921 431 l 921 349 l 656 349 l 656 264 l 921 264 l 921 182 l 656 182 l 656 0 l 340 0 l 340 182 l 75 182 l 75 264 l 340 264 l 340 349 l 75 349 l 75 431 l 228 431 l 326 425 l 13 917 l 335 917 l 440 664 l 497 519 l 500 519 l 557 665 l 663 917 l 983 917 l 669 425 l 768 431 z "},"≈":{"ha":839,"x_min":79,"x_max":760,"o":"m 261 775 q 351 763 310 775 q 444 729 392 751 q 514 703 486 711 q 569 694 542 694 q 669 710 626 694 q 760 765 711 725 l 760 543 q 582 475 679 475 q 502 485 539 475 q 410 515 465 494 q 331 543 364 533 q 261 553 297 553 q 163 537 203 553 q 79 482 122 521 l 79 706 q 165 759 126 743 q 261 775 204 775 m 261 418 q 349 407 308 418 q 444 374 389 396 q 516 348 490 356 q 569 340 542 340 q 669 355 626 340 q 760 410 711 369 l 760 188 q 582 118 678 118 q 500 128 539 118 q 410 160 461 139 q 331 188 364 178 q 261 197 297 197 q 162 181 203 197 q 79 126 121 165 l 79 350 q 165 403 125 388 q 261 418 204 418 z "},"~":{"ha":882,"x_min":60,"x_max":822,"o":"m 822 628 q 753 396 817 475 q 571 317 690 317 q 485 330 518 317 q 411 368 451 343 q 377 390 390 383 q 349 396 364 396 q 313 381 325 396 q 296 328 300 365 l 60 328 q 128 560 65 481 q 311 639 192 639 q 397 626 364 639 q 471 588 431 613 q 505 566 492 572 q 533 560 518 560 q 569 575 557 560 q 586 628 582 590 l 822 628 z "},"÷":{"ha":839,"x_min":61,"x_max":778,"o":"m 419 904 q 517 870 482 904 q 551 775 551 836 q 517 681 551 714 q 419 647 482 647 q 321 681 356 647 q 286 775 286 714 q 321 870 286 836 q 419 904 356 904 m 778 353 l 61 353 l 61 565 l 778 565 l 778 353 m 419 271 q 517 237 482 271 q 551 142 551 203 q 517 47 551 81 q 419 14 482 14 q 321 47 356 14 q 286 142 286 81 q 321 237 286 203 q 419 271 356 271 z "},"=":{"ha":839,"x_min":90,"x_max":749,"o":"m 749 508 l 90 508 l 90 710 l 749 710 l 749 508 m 749 193 l 90 193 l 90 394 l 749 394 l 749 193 z "},"₌":{"ha":585,"x_min":78,"x_max":507,"o":"m 78 218 l 507 218 l 507 61 l 78 61 l 78 218 m 78 -22 l 507 -22 l 507 -179 l 78 -179 l 78 -22 z "},"⁼":{"ha":585,"x_min":78,"x_max":507,"o":"m 78 943 l 507 943 l 507 786 l 78 786 l 78 943 m 78 703 l 507 703 l 507 546 l 78 546 l 78 703 z "},">":{"ha":839,"x_min":65,"x_max":760,"o":"m 760 536 l 760 282 l 65 -14 l 65 282 l 513 410 l 65 536 l 65 832 l 760 536 z "},"≥":{"ha":839,"x_min":75,"x_max":761,"o":"m 761 768 l 761 419 l 75 258 l 75 510 l 600 594 l 75 678 l 75 929 l 761 768 m 75 215 l 761 215 l 761 0 l 75 0 l 75 215 z "},"∞":{"ha":1360,"x_min":25,"x_max":1335,"o":"m 1046 753 q 1335 410 1335 753 q 1251 140 1335 214 q 1008 67 1167 67 q 826 104 908 67 q 640 239 744 142 q 515 128 565 164 q 421 79 465 92 q 311 67 376 67 q 104 142 183 67 q 25 410 25 218 q 314 753 25 753 q 442 743 386 753 q 567 697 497 733 q 721 583 638 660 q 856 695 800 658 q 953 742 913 732 q 1046 753 994 751 m 1021 389 q 1101 411 1079 389 q 1124 481 1124 433 q 1106 548 1124 526 q 1044 569 1088 569 q 969 549 1008 569 q 851 454 931 529 q 935 403 896 417 q 1021 389 974 389 m 236 339 q 258 271 236 292 q 321 250 279 250 q 365 257 344 250 q 419 289 385 264 q 507 367 453 314 q 423 419 460 407 q 335 431 386 431 q 261 410 286 431 q 236 339 236 390 z "},"∫":{"ha":681,"x_min":-11,"x_max":693,"o":"m 508 1053 q 618 1040 571 1053 q 693 1006 665 1028 l 672 825 q 639 842 657 838 q 592 847 621 847 q 512 827 539 847 q 485 760 485 807 l 485 99 q 396 -112 485 -46 q 174 -178 307 -178 q -11 -131 50 -178 l 10 50 q 43 33 25 39 q 89 28 61 28 q 169 48 142 28 q 196 115 196 68 l 196 776 q 285 987 196 921 q 508 1053 375 1053 z "},"<":{"ha":839,"x_min":79,"x_max":774,"o":"m 774 536 l 326 410 l 774 282 l 774 -14 l 79 282 l 79 536 l 774 832 l 774 536 z "},"≤":{"ha":839,"x_min":78,"x_max":764,"o":"m 764 678 l 239 594 l 764 510 l 764 258 l 78 419 l 78 768 l 764 929 l 764 678 m 78 215 l 764 215 l 764 0 l 78 0 l 78 215 z "},"¬":{"ha":839,"x_min":83,"x_max":756,"o":"m 756 565 l 756 104 l 513 104 l 513 353 l 83 353 l 83 565 l 756 565 z "},"−":{"ha":839,"x_min":83,"x_max":756,"o":"m 756 344 l 83 344 l 83 574 l 756 574 l 756 344 z "},"₋":{"ha":501,"x_min":50,"x_max":451,"o":"m 50 97 l 451 97 l 451 -69 l 50 -69 l 50 97 z "},"⁻":{"ha":501,"x_min":50,"x_max":451,"o":"m 50 822 l 451 822 l 451 656 l 50 656 l 50 822 z "},"×":{"ha":839,"x_min":50,"x_max":789,"o":"m 583 461 l 789 256 l 625 92 l 419 297 l 214 92 l 50 256 l 256 461 l 50 667 l 214 831 l 419 625 l 625 831 l 789 667 l 583 461 z "},"≠":{"ha":839,"x_min":69,"x_max":769,"o":"m 536 524 l 474 379 l 769 379 l 769 178 l 386 178 l 311 4 l 138 4 l 213 178 l 69 178 l 69 379 l 299 379 l 361 524 l 69 524 l 69 724 l 447 724 l 528 910 l 703 910 l 622 724 l 769 724 l 769 524 l 536 524 z "},"∂":{"ha":954,"x_min":86,"x_max":885,"o":"m 461 931 q 772 815 660 931 q 885 485 885 700 q 772 101 885 217 q 432 -14 660 -14 q 266 17 344 -14 q 138 115 188 49 q 88 279 88 181 q 133 438 88 372 q 253 536 178 503 q 414 569 328 569 q 589 467 540 569 q 407 676 572 676 q 303 661 349 676 q 214 607 257 646 l 86 800 q 256 901 175 872 q 461 931 336 931 m 492 222 q 578 297 556 222 q 549 340 569 322 q 497 357 529 357 q 438 339 458 357 q 417 289 417 321 q 436 240 417 258 q 492 222 456 222 z "},"%":{"ha":1378,"x_min":33,"x_max":1344,"o":"m 317 931 q 522 858 444 931 q 600 664 600 785 q 522 470 600 543 q 317 397 444 397 q 111 470 189 397 q 33 664 33 543 q 111 858 33 785 q 317 931 189 931 m 913 918 l 1143 918 l 468 0 l 238 0 l 913 918 m 317 725 q 274 709 289 725 q 260 664 260 693 q 274 619 260 635 q 317 603 289 603 q 359 619 344 603 q 374 664 374 635 q 359 709 374 693 q 317 725 344 725 m 1061 519 q 1267 447 1189 519 q 1344 253 1344 374 q 1267 59 1344 132 q 1061 -14 1189 -14 q 856 59 933 -14 q 778 253 778 132 q 856 447 778 374 q 1061 519 933 519 m 1061 314 q 1019 298 1033 314 q 1004 253 1004 282 q 1019 208 1004 224 q 1061 192 1033 192 q 1103 208 1089 192 q 1118 253 1118 224 q 1103 298 1118 282 q 1061 314 1089 314 z "},"‰":{"ha":1986,"x_min":33,"x_max":1953,"o":"m 317 931 q 522 858 444 931 q 600 664 600 785 q 522 470 600 543 q 317 397 444 397 q 111 470 189 397 q 33 664 33 543 q 111 858 33 785 q 317 931 189 931 m 913 918 l 1143 918 l 468 0 l 238 0 l 913 918 m 317 725 q 274 709 289 725 q 260 664 260 693 q 274 619 260 635 q 317 603 289 603 q 359 619 344 603 q 374 664 374 635 q 359 709 374 693 q 317 725 344 725 m 1061 519 q 1267 447 1189 519 q 1344 253 1344 374 q 1267 59 1344 132 q 1061 -14 1189 -14 q 856 59 933 -14 q 778 253 778 132 q 856 447 778 374 q 1061 519 933 519 m 1669 519 q 1875 447 1797 519 q 1953 253 1953 374 q 1875 59 1953 132 q 1669 -14 1797 -14 q 1464 59 1542 -14 q 1386 253 1386 132 q 1464 447 1386 374 q 1669 519 1542 519 m 1061 314 q 1019 298 1033 314 q 1004 253 1004 282 q 1019 208 1004 224 q 1061 192 1033 192 q 1103 208 1089 192 q 1118 253 1118 224 q 1103 298 1118 282 q 1061 314 1089 314 m 1669 314 q 1627 298 1642 314 q 1613 253 1613 282 q 1627 208 1613 224 q 1669 192 1642 192 q 1712 208 1697 192 q 1726 253 1726 224 q 1712 298 1726 282 q 1669 314 1697 314 z "},"+":{"ha":839,"x_min":63,"x_max":776,"o":"m 776 353 l 542 353 l 542 76 l 299 76 l 299 353 l 63 353 l 63 565 l 299 565 l 299 842 l 542 842 l 542 565 l 776 565 l 776 353 z "},"₊":{"ha":501,"x_min":29,"x_max":472,"o":"m 472 -61 l 331 -61 l 331 -207 l 172 -207 l 172 -61 l 29 -61 l 29 92 l 172 92 l 172 238 l 331 238 l 331 92 l 472 92 l 472 -61 z "},"±":{"ha":839,"x_min":63,"x_max":776,"o":"m 776 703 l 776 500 l 528 500 l 528 286 l 313 286 l 313 500 l 63 500 l 63 703 l 313 703 l 313 917 l 528 917 l 528 703 l 776 703 m 63 196 l 776 196 l 776 1 l 63 1 l 63 196 z "},"⁺":{"ha":501,"x_min":29,"x_max":472,"o":"m 472 664 l 331 664 l 331 518 l 172 518 l 172 664 l 29 664 l 29 817 l 172 817 l 172 963 l 331 963 l 331 817 l 472 817 l 472 664 z "},"∏":{"ha":967,"x_min":69,"x_max":897,"o":"m 897 -178 l 601 -178 l 601 679 l 365 679 l 365 -178 l 69 -178 l 69 917 l 897 917 l 897 -178 z "},"√":{"ha":968,"x_min":15,"x_max":1065,"o":"m 1065 1136 l 631 0 l 313 0 l 156 410 l 15 410 l 15 639 l 319 639 l 407 392 l 472 190 l 543 413 l 803 1136 l 1065 1136 z "},"∑":{"ha":968,"x_min":76,"x_max":893,"o":"m 893 693 l 404 693 l 701 397 l 701 340 l 401 32 l 893 32 l 893 -178 l 76 -178 l 76 32 l 394 369 l 76 693 l 76 917 l 893 917 l 893 693 z "},"µ":{"ha":863,"x_min":54,"x_max":808,"o":"m 808 694 l 808 0 l 521 0 l 514 135 q 374 -8 472 13 l 374 -292 l 54 -292 l 54 694 l 374 694 l 374 304 q 385 240 374 258 q 425 222 397 222 q 489 332 489 222 l 489 694 l 808 694 z "},"Ω":{"ha":1083,"x_min":71,"x_max":1013,"o":"m 1013 206 l 1013 0 l 581 0 l 581 206 q 656 265 633 207 q 678 450 678 322 q 645 630 678 572 q 542 688 613 688 q 438 630 471 688 q 406 450 406 572 q 427 264 406 321 q 501 206 449 207 l 503 206 l 503 0 l 71 0 l 71 206 l 265 206 q 124 323 172 246 q 75 510 75 400 q 131 734 75 639 q 292 880 188 829 q 542 931 397 931 q 791 880 686 931 q 951 734 896 829 q 1007 510 1007 639 q 958 323 1007 400 q 817 206 910 246 l 1013 206 z "},"∆":{"ha":1050,"x_min":56,"x_max":994,"o":"m 994 179 l 994 0 l 56 0 l 56 179 l 367 917 l 683 917 l 994 179 m 304 217 l 746 217 l 525 743 l 304 217 z "},"∕":{"ha":379,"x_min":-243,"x_max":622,"o":"m 418 918 l 622 918 l -39 0 l -243 0 l 418 918 z "},"∙":{"ha":425,"x_min":42,"x_max":383,"o":"m 213 626 q 339 588 294 626 q 383 478 383 549 q 339 368 383 407 q 213 329 294 329 q 86 368 131 329 q 42 478 42 407 q 86 588 42 549 q 213 626 131 626 z "},"↑":{"ha":1042,"x_min":26,"x_max":1013,"o":"m 524 925 q 725 713 607 811 q 1013 515 843 615 l 857 279 q 663 457 746 353 q 679 215 679 339 l 679 0 l 360 0 l 360 215 q 376 457 360 339 q 182 279 293 353 l 26 515 q 314 713 196 615 q 515 925 432 811 l 524 925 z "},"↗":{"ha":1042,"x_min":110,"x_max":924,"o":"m 910 869 q 896 554 896 714 q 924 175 896 321 l 647 167 q 646 228 646 188 q 664 444 646 340 q 463 229 592 358 l 307 75 l 110 272 l 264 428 q 479 629 383 547 q 263 611 375 611 q 201 613 222 611 l 210 889 q 589 861 356 861 q 904 875 749 861 l 910 869 z "},"→":{"ha":1042,"x_min":82,"x_max":1007,"o":"m 597 953 q 795 665 697 783 q 1007 464 893 547 l 1007 456 q 795 254 893 372 q 597 -33 697 136 l 361 122 q 539 317 435 233 q 297 300 421 300 l 82 300 l 82 619 l 297 619 q 539 603 421 619 q 361 797 435 686 l 597 953 z "},"↘":{"ha":1042,"x_min":107,"x_max":921,"o":"m 921 797 q 893 418 893 651 q 907 103 893 258 l 901 97 q 586 111 746 111 q 207 83 353 111 l 199 360 q 260 361 219 361 q 476 343 372 361 q 261 544 381 425 l 107 700 l 304 897 l 460 743 q 661 528 589 614 q 643 744 643 632 q 644 806 643 785 l 921 797 z "},"↓":{"ha":1042,"x_min":29,"x_max":1015,"o":"m 1015 401 q 728 203 846 301 q 526 -8 610 106 l 518 -8 q 317 203 435 106 q 29 401 199 301 l 185 638 q 379 460 296 564 q 363 701 363 579 l 363 917 l 682 917 l 682 701 q 665 460 682 579 q 860 638 749 564 l 1015 401 z "},"↙":{"ha":1042,"x_min":121,"x_max":935,"o":"m 565 343 q 782 361 669 361 q 843 360 822 361 l 835 83 q 456 111 689 111 q 140 97 296 111 l 135 103 q 149 418 149 258 q 121 797 149 651 l 397 806 q 399 744 399 785 q 381 528 399 632 q 582 743 453 614 l 738 897 l 935 700 l 781 544 q 565 343 661 425 z "},"←":{"ha":1042,"x_min":35,"x_max":960,"o":"m 960 619 l 960 300 l 744 300 q 503 317 621 300 q 681 122 607 233 l 444 -33 q 247 254 344 136 q 35 456 149 372 l 35 464 q 247 665 149 547 q 444 953 344 783 l 681 797 q 503 603 607 686 q 744 619 621 619 l 960 619 z "},"↖":{"ha":1042,"x_min":118,"x_max":932,"o":"m 932 272 l 735 75 l 579 229 q 378 444 450 358 q 396 228 396 340 q 394 167 396 188 l 118 175 q 146 554 146 321 q 132 869 146 714 l 138 875 q 453 861 293 861 q 832 889 686 861 l 840 613 q 779 611 819 611 q 563 629 667 611 q 778 428 658 547 l 932 272 z "},"↔":{"ha":1558,"x_min":35,"x_max":1524,"o":"m 1114 979 q 1312 692 1214 810 q 1524 490 1410 574 l 1524 482 q 1312 281 1410 399 q 1114 -7 1214 163 l 878 149 q 1056 343 951 260 q 814 326 938 326 l 744 326 q 503 343 621 326 q 681 149 607 260 l 444 -7 q 247 281 344 163 q 35 482 149 399 l 35 490 q 247 692 149 574 q 444 979 344 810 l 681 824 q 503 629 607 713 q 744 646 621 646 l 814 646 q 1056 629 936 646 q 878 824 951 713 l 1114 979 z "},"↕":{"ha":1042,"x_min":28,"x_max":1014,"o":"m 664 182 q 858 360 747 286 l 1014 124 q 726 -74 844 24 q 525 -286 608 -172 l 517 -286 q 315 -74 433 -172 q 28 124 197 24 l 183 360 q 378 182 294 286 q 361 424 361 301 l 361 493 q 378 735 361 617 q 183 557 294 631 l 28 793 q 315 991 197 893 q 517 1203 433 1089 l 525 1203 q 726 991 608 1089 q 1014 793 844 893 l 858 557 q 664 735 747 631 q 681 493 681 617 l 681 424 q 664 182 681 301 z "},"●":{"ha":833,"x_min":56,"x_max":778,"o":"m 417 -14 q 233 33 315 -14 q 103 163 150 81 q 56 347 56 246 q 103 531 56 449 q 233 661 150 614 q 417 708 315 708 q 601 661 518 708 q 731 531 683 614 q 778 347 778 449 q 731 163 778 246 q 601 33 683 81 q 417 -14 518 -14 z "},"○":{"ha":833,"x_min":36,"x_max":797,"o":"m 417 -14 q 223 33 310 -14 q 86 163 136 81 q 36 347 36 246 q 86 531 36 449 q 223 661 136 614 q 417 708 310 708 q 610 661 524 708 q 747 531 697 614 q 797 347 797 449 q 747 163 797 246 q 610 33 697 81 q 417 -14 524 -14 m 417 181 q 535 228 488 181 q 582 347 582 276 q 535 466 582 418 q 417 514 488 514 q 299 466 346 514 q 251 347 251 418 q 299 228 251 276 q 417 181 346 181 z "},"◆":{"ha":833,"x_min":49,"x_max":785,"o":"m 49 360 l 417 728 l 785 360 l 417 -8 l 49 360 z "},"◇":{"ha":833,"x_min":49,"x_max":785,"o":"m 49 360 l 417 728 l 785 360 l 417 -8 l 49 360 m 565 360 l 417 508 l 268 360 l 417 211 l 565 360 z "},"◊":{"ha":968,"x_min":64,"x_max":903,"o":"m 903 458 l 640 0 l 326 0 l 64 458 l 326 917 l 640 917 l 903 458 m 619 458 l 483 746 l 347 458 l 483 171 l 619 458 z "},"▪":{"ha":833,"x_min":69,"x_max":764,"o":"m 764 694 l 764 0 l 69 0 l 69 694 l 764 694 z "},"▫":{"ha":833,"x_min":56,"x_max":778,"o":"m 56 694 l 778 694 l 778 0 l 56 0 l 56 694 m 572 192 l 572 503 l 261 503 l 261 192 l 572 192 z "},"❛":{"ha":944,"x_min":74,"x_max":881,"o":"m 861 743 q 488 701 607 743 q 331 579 369 660 l 339 574 q 418 619 372 603 q 540 635 464 635 q 710 601 632 635 q 834 497 788 567 q 881 324 881 426 q 779 69 881 151 q 493 -14 678 -14 q 259 38 353 -14 q 119 180 165 90 q 74 383 74 269 q 238 782 74 640 q 782 924 401 924 l 861 743 z "},"❜":{"ha":944,"x_min":64,"x_max":871,"o":"m 83 -7 q 456 35 338 -7 q 614 157 575 76 l 606 163 q 526 117 572 133 q 404 101 481 101 q 235 135 313 101 q 110 240 157 169 q 64 413 64 310 q 165 667 64 585 q 451 750 267 750 q 685 698 592 750 q 825 556 779 646 q 871 353 871 467 q 707 -46 871 96 q 163 -187 543 -187 l 83 -7 z "},"❝":{"ha":1692,"x_min":74,"x_max":1628,"o":"m 1288 635 q 1457 601 1379 635 q 1581 497 1535 567 q 1628 324 1628 426 q 1526 69 1628 151 q 1240 -14 1425 -14 q 1002 40 1097 -14 q 861 190 907 94 q 731 36 825 86 q 493 -14 638 -14 q 259 38 353 -14 q 119 180 165 90 q 74 383 74 269 q 238 782 74 640 q 782 924 401 924 l 861 743 q 488 701 607 743 q 331 579 369 660 l 339 574 q 418 619 372 603 q 540 635 464 635 q 708 601 631 635 q 831 501 785 567 q 1028 813 863 703 q 1529 924 1194 924 l 1608 743 q 1235 701 1354 743 q 1078 579 1117 660 l 1086 574 q 1165 619 1119 603 q 1288 635 1211 635 z "},"❞":{"ha":1692,"x_min":64,"x_max":1618,"o":"m 1199 750 q 1433 698 1339 750 q 1572 556 1526 646 q 1618 353 1618 467 q 1454 -46 1618 96 q 910 -187 1290 -187 l 831 -7 q 1203 35 1085 -7 q 1361 157 1322 76 l 1353 163 q 1274 117 1319 133 q 1151 101 1228 101 q 984 135 1061 101 q 861 235 907 169 q 663 -77 829 33 q 163 -187 497 -187 l 83 -7 q 456 35 338 -7 q 614 157 575 76 l 606 163 q 526 117 572 133 q 404 101 481 101 q 235 135 313 101 q 110 240 157 169 q 64 413 64 310 q 165 667 64 585 q 451 750 267 750 q 690 696 594 750 q 831 546 785 642 q 960 700 867 650 q 1199 750 1054 750 z "},"❡":{"ha":1124,"x_min":65,"x_max":1049,"o":"m 1049 169 q 997 -58 1049 49 q 830 -231 944 -164 q 538 -299 715 -299 q 108 11 108 -299 q 113 69 108 39 l 286 118 q 279 49 279 74 q 313 -64 279 -28 q 404 -100 347 -100 q 483 29 483 -100 l 483 238 l 442 238 q 260 276 347 238 q 119 390 174 314 q 65 571 65 465 q 113 751 65 674 q 252 873 160 829 q 475 917 344 917 l 1049 917 l 1049 169 m 719 719 l 719 101 q 695 -51 719 1 q 621 -131 671 -104 l 625 -136 q 772 -52 731 -121 q 813 140 813 17 l 813 719 l 719 719 z "},"|":{"ha":517,"x_min":117,"x_max":400,"o":"m 400 -233 l 117 -233 l 117 974 l 400 974 l 400 -233 z "},"¦":{"ha":394,"x_min":56,"x_max":339,"o":"m 339 431 l 56 431 l 56 974 l 339 974 l 339 431 m 339 -233 l 56 -233 l 56 310 l 339 310 l 339 -233 z "},"@":{"ha":1278,"x_min":53,"x_max":1224,"o":"m 672 917 q 958 855 833 917 q 1153 668 1082 793 q 1224 361 1224 543 q 1178 155 1224 235 q 1061 40 1132 75 q 910 6 990 6 q 694 117 754 6 q 610 33 657 60 q 503 6 564 6 q 343 76 400 6 q 286 254 286 146 q 374 551 286 450 q 606 651 463 651 q 692 619 663 651 q 726 553 722 588 l 756 635 l 990 635 l 924 260 q 919 213 919 233 q 935 165 919 179 q 985 151 950 151 q 1067 206 1033 151 q 1101 361 1101 261 q 985 690 1101 582 q 672 797 869 797 q 421 740 531 797 q 249 572 311 682 q 188 310 188 463 q 247 69 188 168 q 404 -78 307 -29 q 611 -128 501 -128 q 773 -110 715 -128 q 878 -57 831 -93 l 944 -153 q 804 -222 878 -200 q 604 -244 731 -244 q 322 -180 447 -244 q 125 10 197 -115 q 53 310 53 135 q 133 629 53 492 q 355 842 214 767 q 672 917 496 917 m 643 451 q 602 432 622 451 q 569 377 582 413 q 557 297 557 342 q 603 218 557 218 q 633 228 619 218 q 649 257 646 238 l 669 399 q 671 419 671 407 q 665 444 671 438 q 643 451 658 451 z "},"&":{"ha":919,"x_min":14,"x_max":906,"o":"m 889 -14 q 738 1 797 -14 q 614 60 679 15 q 357 -14 517 -14 q 107 51 200 -14 q 14 247 14 117 q 51 376 14 313 q 174 471 88 439 q 109 574 125 531 q 93 676 93 618 q 128 800 93 742 q 235 894 163 858 q 415 931 308 931 q 596 896 525 931 q 698 808 667 861 q 729 694 729 754 q 677 544 729 610 q 528 444 625 478 l 568 406 l 646 331 q 664 457 664 388 l 867 457 q 783 219 860 311 q 858 201 824 201 q 906 207 872 201 l 889 -14 m 424 735 q 377 716 394 735 q 360 663 360 697 q 372 617 360 640 q 419 556 385 594 q 470 615 457 588 q 483 675 483 642 q 467 719 483 703 q 424 735 450 735 m 399 185 q 456 189 429 185 l 426 217 q 303 335 332 306 q 286 303 290 319 q 282 265 282 288 q 313 206 282 228 q 399 185 343 185 z "},"¶":{"ha":1124,"x_min":42,"x_max":1054,"o":"m 1054 -139 l 800 -139 l 800 678 l 669 678 l 669 -139 l 415 -139 l 415 311 q 135 385 228 313 q 42 613 42 458 q 140 842 42 768 q 444 917 238 917 l 1054 917 l 1054 -139 z "},"©":{"ha":1028,"x_min":33,"x_max":994,"o":"m 514 931 q 766 872 657 931 q 935 707 875 814 q 994 458 994 600 q 935 210 994 317 q 766 44 875 103 q 514 -14 657 -14 q 262 44 371 -14 q 93 210 153 103 q 33 458 33 317 q 93 707 33 600 q 262 872 153 814 q 514 931 371 931 m 526 753 q 306 674 386 753 q 225 461 225 594 q 306 249 225 328 q 526 169 386 169 q 709 216 642 169 q 813 368 776 263 l 649 429 q 607 366 633 383 q 536 349 581 349 q 422 458 422 349 q 451 542 422 513 q 536 571 481 571 q 601 556 579 571 q 640 503 624 542 l 792 572 q 701 708 765 664 q 526 753 636 753 z "},"®":{"ha":1028,"x_min":33,"x_max":994,"o":"m 514 931 q 766 872 657 931 q 935 707 875 814 q 994 458 994 600 q 935 210 994 317 q 766 44 875 103 q 514 -14 657 -14 q 262 44 371 -14 q 93 210 153 103 q 33 458 33 317 q 93 707 33 600 q 262 872 153 814 q 514 931 371 931 m 290 726 l 290 226 l 476 226 l 476 390 l 504 390 l 575 226 l 797 226 l 671 407 q 771 558 771 446 q 720 678 771 629 q 597 726 669 726 l 290 726 m 543 593 q 594 542 594 593 q 543 490 594 490 l 476 490 l 476 593 l 543 593 z "},"§":{"ha":888,"x_min":25,"x_max":861,"o":"m 861 392 q 768 182 861 257 q 781 103 781 147 q 690 -87 781 -22 q 436 -153 600 -153 q 232 -122 307 -153 q 96 -24 157 -92 l 244 119 q 323 57 282 75 q 433 39 364 39 q 532 46 503 39 q 561 74 561 53 q 527 106 561 93 q 408 124 493 118 q 117 198 210 138 q 25 367 25 258 q 118 578 25 500 q 106 656 106 614 q 197 856 106 782 q 450 931 289 931 q 654 900 579 931 q 790 801 729 869 l 642 658 q 563 721 604 703 q 453 739 522 739 q 358 724 392 739 q 325 685 325 708 q 358 653 325 665 q 478 635 392 642 q 769 560 676 619 q 861 392 861 500 m 406 353 q 633 306 550 340 q 654 340 654 319 q 616 382 654 367 q 481 406 578 397 q 253 453 336 418 q 232 418 232 439 q 270 376 232 392 q 406 353 308 361 z "},"™":{"ha":1142,"x_min":0,"x_max":1128,"o":"m 453 796 l 310 796 l 310 458 l 143 458 l 143 796 l 0 796 l 0 917 l 453 917 l 453 796 m 1128 917 l 1128 458 l 964 458 l 964 613 l 969 768 l 965 768 l 929 632 l 881 458 l 742 458 l 693 633 l 657 768 l 653 768 l 658 613 l 658 458 l 493 458 l 493 917 l 743 917 l 793 735 l 811 646 l 815 646 l 833 735 l 885 917 l 1128 917 z "},"°":{"ha":721,"x_min":50,"x_max":671,"o":"m 361 375 q 133 449 215 375 q 50 653 50 522 q 133 856 50 782 q 361 931 215 931 q 588 856 506 931 q 671 653 671 782 q 588 449 671 522 q 361 375 506 375 m 361 567 q 426 591 401 567 q 450 654 450 615 q 426 717 450 693 q 361 740 401 740 q 296 717 321 740 q 271 654 271 693 q 296 591 271 615 q 361 567 321 567 z "},"℮":{"ha":1049,"x_min":53,"x_max":992,"o":"m 525 931 q 870 797 749 931 q 986 408 992 663 l 265 408 l 265 201 q 385 119 311 147 q 551 90 460 90 q 781 145 682 90 q 951 325 881 200 l 951 182 q 795 35 901 85 q 553 -14 689 -14 q 285 44 397 -14 q 113 209 172 103 q 53 458 53 315 q 111 707 53 600 q 276 872 169 814 q 525 931 383 931 m 526 826 q 368 798 431 826 q 265 715 306 769 l 265 513 l 785 513 l 785 726 q 682 801 744 775 q 526 826 619 826 z "},"ℓ":{"ha":668,"x_min":42,"x_max":621,"o":"m 417 261 q 431 198 417 215 q 492 181 444 181 q 607 197 574 181 l 597 14 q 515 -8 557 -1 q 411 -14 472 -14 q 192 42 258 -14 q 125 228 125 99 l 125 232 q 42 228 83 228 l 42 358 q 125 363 85 358 l 125 660 q 185 860 125 789 q 386 931 244 931 q 573 867 525 931 q 621 708 621 804 q 567 499 621 594 q 417 338 513 404 l 417 261 m 461 790 q 427 768 438 790 q 417 699 417 746 l 417 482 q 501 718 501 571 q 492 773 501 756 q 461 790 482 790 z "},"^":{"ha":899,"x_min":32,"x_max":867,"o":"m 594 493 l 450 803 l 304 493 l 32 493 l 318 1000 l 581 1000 l 867 493 l 594 493 z "},"†":{"ha":903,"x_min":43,"x_max":860,"o":"m 860 415 l 596 415 l 596 -139 l 304 -139 l 304 415 l 43 415 l 43 653 l 304 653 l 304 917 l 596 917 l 596 653 l 860 653 l 860 415 z "},"‡":{"ha":903,"x_min":57,"x_max":846,"o":"m 582 457 l 582 307 l 846 307 l 846 83 l 582 83 l 582 -139 l 318 -139 l 318 83 l 57 83 l 57 307 l 318 307 l 318 457 l 57 457 l 57 681 l 318 681 l 318 917 l 582 917 l 582 681 l 846 681 l 846 457 l 582 457 z "},"":{"ha":1569,"x_min":32,"x_max":1524,"o":"m 1514 418 l 1439 390 l 1504 357 l 1431 329 l 1489 289 l 1404 275 l 1457 228 l 1365 224 l 1414 179 l 1329 174 q 1290 153 1310 161 l 1290 40 q 1250 0 1290 0 l 1186 0 q 1146 32 1146 0 q 1186 67 1146 67 l 1201 67 l 1201 121 q 1110 107 1163 111 l 1110 40 q 1069 0 1110 0 l 1006 0 q 965 32 965 0 q 1006 67 965 67 l 1021 67 l 1021 104 l 707 104 l 707 40 q 667 0 707 0 l 603 0 q 561 32 561 0 q 572 58 561 49 q 603 67 583 67 l 619 67 l 619 104 l 497 104 l 497 40 q 456 0 497 0 l 394 0 q 351 32 351 0 q 394 67 351 67 l 408 67 l 408 118 q 217 156 308 122 q 74 244 125 190 q 44 258 56 246 q 32 288 32 269 q 44 318 32 306 q 75 331 57 331 l 79 331 q 182 440 136 365 q 228 581 228 515 l 219 663 l 275 638 l 265 718 l 322 686 l 322 765 l 382 721 l 382 799 l 442 760 l 446 840 l 504 792 l 514 874 l 572 821 l 581 897 l 642 846 l 663 925 l 713 867 l 731 940 l 783 881 l 807 953 l 851 889 l 885 958 l 929 896 l 972 972 l 1010 890 l 1063 958 l 1090 878 l 1150 951 l 1164 863 l 1243 926 l 1232 836 l 1321 883 l 1290 800 l 1378 822 l 1342 757 l 1431 763 l 1381 707 l 1478 707 l 1411 639 l 1510 639 l 1440 585 l 1518 567 l 1443 521 l 1524 494 l 1446 460 l 1514 418 m 464 356 q 517 385 497 363 q 536 439 536 408 q 513 499 536 476 q 456 522 489 522 q 392 496 418 522 l 403 474 q 454 496 426 496 q 500 464 488 496 q 506 436 506 451 q 451 374 506 390 l 464 356 m 294 344 q 345 364 326 344 q 365 418 364 383 l 340 418 q 328 388 340 399 q 294 376 315 376 q 260 388 272 376 q 247 418 247 399 l 222 418 q 242 365 222 385 q 294 344 263 344 z "},"̦":{"ha":0,"x_min":-507,"x_max":-206,"o":"m -310 -337 l -507 -337 l -474 -69 l -206 -69 l -310 -337 z "},"ˉ":{"ha":694,"x_min":78,"x_max":617,"o":"m 617 765 l 78 765 l 78 946 l 617 946 l 617 765 z "},"´":{"ha":694,"x_min":232,"x_max":600,"o":"m 600 1014 l 457 768 l 232 768 l 315 1014 l 600 1014 z "},"˘":{"ha":694,"x_min":93,"x_max":601,"o":"m 601 990 q 535 813 601 876 q 347 750 468 750 q 160 813 226 750 q 93 990 93 876 l 286 990 q 347 914 286 914 q 408 990 408 914 l 601 990 z "},"ˇ":{"ha":694,"x_min":51,"x_max":643,"o":"m 496 768 l 199 768 l 51 1014 l 268 1014 l 347 915 l 426 1014 l 643 1014 l 496 768 z "},"¸":{"ha":694,"x_min":151,"x_max":561,"o":"m 289 58 q 490 1 419 50 q 561 -125 561 -49 q 500 -258 561 -217 q 338 -299 439 -299 q 224 -282 268 -299 q 151 -237 181 -265 l 214 -106 q 317 -144 253 -144 q 372 -128 351 -144 q 392 -83 392 -112 q 357 -30 392 -51 q 233 3 322 -8 l 289 58 z "},"ˆ":{"ha":694,"x_min":51,"x_max":643,"o":"m 426 760 l 347 858 l 268 760 l 51 760 l 199 1006 l 496 1006 l 643 760 l 426 760 z "},"¨":{"ha":694,"x_min":39,"x_max":656,"o":"m 181 1000 q 288 967 250 1000 q 326 874 326 935 q 288 780 326 813 q 181 747 250 747 q 76 781 113 747 q 39 874 39 814 q 76 967 39 933 q 181 1000 113 1000 m 510 1000 q 617 967 579 1000 q 656 874 656 935 q 617 780 656 813 q 510 747 579 747 q 405 781 442 747 q 368 874 368 814 q 405 967 368 933 q 510 1000 442 1000 z "},"˙":{"ha":694,"x_min":192,"x_max":507,"o":"m 347 1008 q 507 878 507 1008 q 347 747 507 747 q 192 878 192 747 q 347 1008 192 1008 z "},"`":{"ha":694,"x_min":94,"x_max":463,"o":"m 463 768 l 238 768 l 94 1014 l 379 1014 l 463 768 z "},"˝":{"ha":694,"x_min":65,"x_max":735,"o":"m 278 768 l 65 768 l 156 1014 l 407 1014 l 278 768 m 606 768 l 393 768 l 483 1014 l 735 1014 l 606 768 z "},"¯":{"ha":694,"x_min":78,"x_max":617,"o":"m 617 765 l 78 765 l 78 946 l 617 946 l 617 765 z "},"˛":{"ha":764,"x_min":158,"x_max":533,"o":"m 515 14 q 406 -23 439 -1 q 372 -78 372 -44 q 390 -117 372 -103 q 440 -131 408 -131 q 496 -119 478 -131 l 533 -262 q 463 -290 501 -282 q 369 -299 424 -299 q 217 -258 276 -299 q 158 -133 158 -217 q 225 -8 158 -54 q 401 44 292 38 l 515 14 z "},"˚":{"ha":694,"x_min":156,"x_max":547,"o":"m 351 1085 q 496 1040 444 1085 q 547 914 547 996 q 496 788 547 832 q 351 743 444 743 q 207 788 258 743 q 156 914 156 832 q 207 1040 156 996 q 351 1085 258 1085 m 351 968 q 310 954 325 968 q 296 914 296 940 q 310 874 296 888 q 351 860 325 860 q 392 874 378 860 q 407 914 407 888 q 392 954 407 940 q 351 968 378 968 z "},"˜":{"ha":694,"x_min":56,"x_max":639,"o":"m 639 999 q 436 754 633 754 q 368 765 393 754 q 314 799 343 776 q 287 817 299 811 q 261 824 275 824 q 219 757 225 824 l 56 757 q 258 1001 61 1001 q 326 990 301 1001 q 381 957 351 979 q 408 938 396 944 q 433 932 419 932 q 463 948 453 932 q 475 999 472 964 l 639 999 z "}}}
